<svg xmlns="http://www.w3.org/2000/svg" xmlns:xlink="http://www.w3.org/1999/xlink" width="98.336" height="90.314" viewBox="0 0 98.336 90.314">
  <defs>
    <clipPath id="clip-path">
      <rect id="Retângulo_55" data-name="Retângulo 55" width="76.116" height="35.646" fill="none" stroke="#1a8165" stroke-width="1"/>
    </clipPath>
  </defs>
  <g id="Grupo_274" data-name="Grupo 274" transform="translate(-1654.829 -1879.067)">
    <g id="Grupo_268" data-name="Grupo 268" transform="translate(1656.333 1880.57)">
      <path id="Caminho_175" data-name="Caminho 175" d="M0,16.328C0-7.782,21.34-27.326,47.665-27.326S95.33-7.782,95.33,16.328,73.99,59.982,47.665,59.982,0,40.438,0,16.328" transform="translate(0 27.326)" fill="#fff"/>
    </g>
    <g id="Grupo_269" data-name="Grupo 269" transform="translate(1656.333 1880.57)">
      <path id="Caminho_176" data-name="Caminho 176" d="M0,16.328C0-7.782,21.34-27.326,47.665-27.326S95.33-7.782,95.33,16.328,73.99,59.982,47.665,59.982,0,40.438,0,16.328Z" transform="translate(0 27.326)" fill="none" stroke="#fff" stroke-width="3.006"/>
    </g>
    <g id="Grupo_273" data-name="Grupo 273" transform="translate(1742.056 1935.465) rotate(180)" opacity="0.93">
      <g id="Grupo_272" data-name="Grupo 272">
        <g id="Grupo_271" data-name="Grupo 271" clip-path="url(#clip-path)">
          <g id="Grupo_270" data-name="Grupo 270" transform="translate(17.501 3.342)">
            <path id="Caminho_177" data-name="Caminho 177" d="M0,0,20.557,17.816,41.113,0" fill="none" stroke="#1a8165" stroke-width="3.006"/>
          </g>
        </g>
      </g>
    </g>
  </g>
</svg>
