<svg xmlns="http://www.w3.org/2000/svg" xmlns:xlink="http://www.w3.org/1999/xlink" width="94.936" height="97.19" viewBox="0 0 94.936 97.19">
  <defs>
    <clipPath id="clip-path">
      <path id="Caminho_201" data-name="Caminho 201" d="M0,36.219H94.936v-97.19H0Z" transform="translate(0 60.971)" fill="none"/>
    </clipPath>
  </defs>
  <g id="Grupo_308" data-name="Grupo 308" transform="translate(0 60.971)">
    <g id="Grupo_307" data-name="Grupo 307" transform="translate(0 -60.971)" clip-path="url(#clip-path)">
      <g id="Grupo_300" data-name="Grupo 300" transform="translate(28.285 0)">
        <path id="Caminho_194" data-name="Caminho 194" d="M15.074,20.369a4.022,4.022,0,0,1-1.264-.207,3.855,3.855,0,0,1-2.649-3.708V8.135H6.938V4.406H14.89V16.454L24.271,4.406H35.356A2.229,2.229,0,0,0,37.548,2.2V-28.353a2.229,2.229,0,0,0-2.192-2.208H-19.45a2.231,2.231,0,0,0-2.195,2.208v14.259h-3.73V-28.353a5.937,5.937,0,0,1,5.925-5.936H35.356a5.934,5.934,0,0,1,5.92,5.936V2.2a5.934,5.934,0,0,1-5.92,5.935H26.143L18.2,18.778a3.906,3.906,0,0,1-3.127,1.591" transform="translate(25.375 34.289)" fill="#c9e9c8"/>
      </g>
      <g id="Grupo_301" data-name="Grupo 301" transform="translate(0 23.992)">
        <path id="Caminho_195" data-name="Caminho 195" d="M15.01,19.793H11.282V-1.245L23.9-16.014l3.558-5.979a7.894,7.894,0,0,0-.654-5.079,5.956,5.956,0,0,0-.885-1.388l-5.367,8.866-8.109,8.142C10.769-9.688,7.554-8.869,5.287-8.869H.787c-2.236,0-5.447-.81-7.213-2.582l-8.391-8.5L-19.9-28.46a5.982,5.982,0,0,0-.9,1.428,7.3,7.3,0,0,0-.448,5.291l3.558,5.994,12.426,14.5V3.513H-9V.131l-11.721-13.72-3.862-6.5a10.894,10.894,0,0,1,.391-8.5,7.6,7.6,0,0,1,4.31-4.264l1.416-.465,6.728,11.259,7.951,7.981A7.472,7.472,0,0,0,.787-12.6h4.5a7.373,7.373,0,0,0,4.479-1.451l7.98-8.013L24.477-33.32l1.417.465a7.594,7.594,0,0,1,4.278,4.191,11.1,11.1,0,0,1,.617,8.307l-3.878,6.513L15.01.131Z" transform="translate(25.269 33.32)" fill="#c9e9c8"/>
      </g>
      <g id="Grupo_302" data-name="Grupo 302" transform="translate(20.251 24.367)">
        <path id="Caminho_196" data-name="Caminho 196" d="M2.94,6.678A7.744,7.744,0,0,1-4.95-1.267V-3.295a7.745,7.745,0,0,1,7.89-7.946,7.744,7.744,0,0,1,7.889,7.946v2.028A7.744,7.744,0,0,1,2.94,6.678m0-14.189A4.052,4.052,0,0,0-1.222-3.295v2.028A4.052,4.052,0,0,0,2.94,2.949,4.008,4.008,0,0,0,7.1-1.267V-3.295A4.008,4.008,0,0,0,2.94-7.511" transform="translate(4.95 11.241)" fill="#c9e9c8"/>
      </g>
      <g id="Grupo_303" data-name="Grupo 303" transform="translate(46.492 56.766)">
        <path id="Caminho_197" data-name="Caminho 197" d="M2.99,6.679A7.81,7.81,0,0,1-5.034-1.266V-3.3A7.811,7.811,0,0,1,2.99-11.243,7.81,7.81,0,0,1,11.013-3.3v2.029A7.809,7.809,0,0,1,2.99,6.679m0-14.193A4.118,4.118,0,0,0-1.306-3.3v2.029A4.117,4.117,0,0,0,2.99,2.95,4.071,4.071,0,0,0,7.285-1.266V-3.3A4.075,4.075,0,0,0,2.99-7.515" transform="translate(5.034 11.243)" fill="#c9e9c8"/>
      </g>
      <g id="Grupo_304" data-name="Grupo 304" transform="translate(40.601 56.333)">
        <path id="Caminho_198" data-name="Caminho 198" d="M9.7,15.226H5.976V6.24L18.36-4.193l3.566-7.865c.534-1.361.3-4.824-.952-7.471a7.743,7.743,0,0,0-.383-.717L15.245-7.765l-9.708,4.8C3.492-2.044,1.559-1.174-.145-1.174H-2.428c-3.8,0-10.18.811-10.18,6.252V15.226h-3.728V5.078c0-6.249,5.2-9.98,13.908-9.98H-.145a14.476,14.476,0,0,0,4.154-1.46l.926-.411,7.419-3.714L18.84-25.631l1.621.528a7.038,7.038,0,0,1,3.885,3.983c1.6,3.389,2.036,7.908,1.014,10.516L21.084-1.61,9.7,7.973Z" transform="translate(16.336 25.631)" fill="#c9e9c8"/>
      </g>
      <g id="Grupo_305" data-name="Grupo 305" transform="translate(14.093 62.926)">
        <path id="Caminho_199" data-name="Caminho 199" d="M2.99,6.678A7.809,7.809,0,0,1-5.033-1.267V-3.295A7.81,7.81,0,0,1,2.99-11.241a7.81,7.81,0,0,1,8.023,7.946v2.028A7.809,7.809,0,0,1,2.99,6.678m0-14.19A4.117,4.117,0,0,0-1.3-3.295v2.028A4.116,4.116,0,0,0,2.99,2.949,4.071,4.071,0,0,0,7.284-1.267V-3.295A4.073,4.073,0,0,0,2.99-7.513" transform="translate(5.033 11.241)" fill="#c9e9c8"/>
      </g>
      <g id="Grupo_306" data-name="Grupo 306" transform="translate(7.936 83.274)">
        <path id="Caminho_200" data-name="Caminho 200" d="M10.47,5.186H6.741V1.171C6.741-4.2.276-5-3.577-5S-13.9-4.2-13.9,1.171V5.186h-3.728V1.171c0-6.2,5.252-9.9,14.048-9.9s14.047,3.7,14.047,9.9Z" transform="translate(17.625 8.73)" fill="#c9e9c8"/>
      </g>
    </g>
  </g>
</svg>
