<svg xmlns="http://www.w3.org/2000/svg" xmlns:xlink="http://www.w3.org/1999/xlink" width="46.027" height="31.864" viewBox="0 0 46.027 31.864">
  <defs>
    <clipPath id="clip-path">
      <path id="Caminho_125" data-name="Caminho 125" d="M0,0H46.027V-31.864H0Z" fill="#fff"/>
    </clipPath>
  </defs>
  <g id="Grupo_171" data-name="Grupo 171" transform="translate(0 31.864)">
    <g id="Grupo_165" data-name="Grupo 165" transform="translate(0 -29.922)">
      <path id="Caminho_121" data-name="Caminho 121" d="M0,0V27.982H15.081l1.942,1.94h8.5l1.942-1.94H42.4V10.593H40.636V26.216h-13.9L24.79,28.157H17.754l-1.942-1.941H1.767V1.767H2.825V0Z" fill="#fff"/>
    </g>
    <g id="Grupo_169" data-name="Grupo 169" clip-path="url(#clip-path)">
      <g id="Grupo_166" data-name="Grupo 166" transform="translate(22.155 -3.882)">
        <path id="Caminho_122" data-name="Caminho 122" d="M0,0H-3.266L-3.53-.352a3.8,3.8,0,0,0-3.178-1.59H-18.271V-27.98H-6.708C-2.074-27.98,0-24.612,0-21.273ZM-2.4-1.766h.638V-21.273c0-2.388-1.3-4.941-4.942-4.941h-9.8V-3.708h9.8A5.522,5.522,0,0,1-2.4-1.766" fill="#fff"/>
      </g>
      <g id="Grupo_167" data-name="Grupo 167" transform="translate(23.742 -3.884)">
        <path id="Caminho_123" data-name="Caminho 123" d="M0,0H-3.356V-21.271A6.329,6.329,0,0,1,3.305-27.98H14.777v4.767H13.011v-3H3.305c-3.609,0-4.9,2.553-4.9,4.943v19.5h.53A4.763,4.763,0,0,1,3.305-3.708h9.706v-7.854h1.766v9.62H3.305C1.356-1.942.688-1.387.243-.49Z" fill="#fff"/>
      </g>
      <g id="Grupo_168" data-name="Grupo 168" transform="translate(27.822 -11.321)">
        <path id="Caminho_124" data-name="Caminho 124" d="M0,0,1.389-5.538,13.43-17.578a1.875,1.875,0,0,1,1.345-.623h0a1.894,1.894,0,0,1,1.353.623l1.451,1.452a1.891,1.891,0,0,1,.623,1.35,1.894,1.894,0,0,1-.623,1.351L5.542-1.385ZM2.984-4.636,2.43-2.428l2.21-.551L16.335-14.674a.783.783,0,0,0,.091-.107c-.016-.014-.044-.048-.091-.1L14.882-16.33a.6.6,0,0,0-.141-.112Z" fill="#fff"/>
      </g>
    </g>
    <g id="Grupo_170" data-name="Grupo 170" transform="translate(41.867 -22.589)">
      <path id="Caminho_126" data-name="Caminho 126" d="M0,0-2.912-2.913l1.248-1.249L1.249-1.249Z" fill="#fff"/>
    </g>
  </g>
</svg>
