<svg xmlns="http://www.w3.org/2000/svg" xmlns:xlink="http://www.w3.org/1999/xlink" width="44.934" height="55.845" viewBox="0 0 44.934 55.845">
  <defs>
    <clipPath id="clip-path">
      <path id="Caminho_72" data-name="Caminho 72" d="M0,11.8H44.934V-44.049H0Z" transform="translate(0 44.049)" fill="none"/>
    </clipPath>
  </defs>
  <g id="Grupo_123" data-name="Grupo 123" transform="translate(0 44.049)">
    <g id="Grupo_107" data-name="Grupo 107" transform="translate(15.169 -44.049)">
      <path id="Caminho_60" data-name="Caminho 60" d="M.457,0-1.707.568-.87,3.751,1.3,3.183Z" transform="translate(1.707)" fill="#edf7ec"/>
    </g>
    <g id="Grupo_108" data-name="Grupo 108" transform="translate(5.377 -38.326)">
      <path id="Caminho_61" data-name="Caminho 61" d="M.425.781-1.586-1.4.061-2.916,2.072-.737Z" transform="translate(1.586 2.916)" fill="#edf7ec"/>
    </g>
    <g id="Grupo_109" data-name="Grupo 109" transform="translate(0.021 -28.256)">
      <path id="Caminho_62" data-name="Caminho 62" d="M0,.454l2.847.838L3.48-.856.633-1.694Z" transform="translate(0 1.694)" fill="#edf7ec"/>
    </g>
    <g id="Grupo_110" data-name="Grupo 110" transform="translate(0 -17.361)">
      <path id="Caminho_63" data-name="Caminho 63" d="M0,.213.673,2.346,3.859,1.341,3.185-.794Z" transform="translate(0 0.794)" fill="#edf7ec"/>
    </g>
    <g id="Grupo_111" data-name="Grupo 111" transform="translate(5.686 -8.142)">
      <path id="Caminho_64" data-name="Caminho 64" d="M.359.8-1.34-.654.671-3l1.7,1.457Z" transform="translate(1.34 2.998)" fill="#edf7ec"/>
    </g>
    <g id="Grupo_112" data-name="Grupo 112" transform="translate(35.926 -8.569)">
      <path id="Caminho_65" data-name="Caminho 65" d="M.5.806-1.85-1.372-.326-3.011,2.019-.834Z" transform="translate(1.85 3.011)" fill="#edf7ec"/>
    </g>
    <g id="Grupo_113" data-name="Grupo 113" transform="translate(41.52 -17.561)">
      <path id="Caminho_66" data-name="Caminho 66" d="M0,.466l2.847.5.387-2.2-2.847-.5Z" transform="translate(0 1.739)" fill="#edf7ec"/>
    </g>
    <g id="Grupo_114" data-name="Grupo 114" transform="translate(41.341 -28.908)">
      <path id="Caminho_67" data-name="Caminho 67" d="M0,.213.745,2.325,3.593,1.319,2.847-.794Z" transform="translate(0 0.794)" fill="#edf7ec"/>
    </g>
    <g id="Grupo_115" data-name="Grupo 115" transform="translate(35.529 -38.661)">
      <path id="Caminho_68" data-name="Caminho 68" d="M.348.781-1.3-.737.712-2.916,2.359-1.4Z" transform="translate(1.299 2.916)" fill="#edf7ec"/>
    </g>
    <g id="Grupo_116" data-name="Grupo 116" transform="translate(26.371 -43.948)">
      <path id="Caminho_69" data-name="Caminho 69" d="M.466.714-1.742.347l.5-3.015L.969-2.3Z" transform="translate(1.742 2.668)" fill="#edf7ec"/>
    </g>
    <g id="Grupo_119" data-name="Grupo 119" transform="translate(0 -44.049)" clip-path="url(#clip-path)">
      <g id="Grupo_117" data-name="Grupo 117" transform="translate(13.891 10.79)">
        <path id="Caminho_70" data-name="Caminho 70" d="M1.3,4.52C-2.616,3.533-5.215-.79-4.836-3.847c.578-3.9,3.066-6,5.26-7.844a12.653,12.653,0,0,0,3.674-4.1l.5-1.085,1.05.572c4,2.173,7.513,7.624,6.155,13.446C11.09-.209,8.687,1.947,4.653,3.58L3.811,1.507C7.984-.184,9.281-2.1,9.633-3.406A10.23,10.23,0,0,0,5.52-13.749a17.588,17.588,0,0,1-3.654,3.77C-.209-8.231-2.168-6.58-2.618-3.545c-.228,1.845,1.544,5.157,4.471,5.9Z" transform="translate(4.873 16.88)" fill="#edf7ec"/>
      </g>
      <g id="Grupo_118" data-name="Grupo 118" transform="translate(19.056 18.059)">
        <path id="Caminho_71" data-name="Caminho 71" d="M.306,3.849C-2.486-1.984-.659-6.931.953-11.3c.388-1.052.768-2.075,1.062-3.074l2.146.634c-.307,1.046-.7,2.115-1.108,3.216C1.524-6.38-.058-2.1,2.327,2.883Z" transform="translate(1.141 14.372)" fill="#edf7ec"/>
      </g>
    </g>
    <g id="Grupo_120" data-name="Grupo 120" transform="translate(16.252 7.212)">
      <path id="Caminho_73" data-name="Caminho 73" d="M1.884,0-.463,2.345H-1.88L-4.227,0H-7.034V2.24h1.88l2.347,2.343H.464L2.812,2.24h1.88V0Z" transform="translate(7.034)" fill="#edf7ec"/>
    </g>
    <path id="Caminho_74" data-name="Caminho 74" d="M27.385-7.983H10.968v-2.239H27.385Z" transform="translate(2.937 9.059)" fill="#edf7ec"/>
    <path id="Caminho_75" data-name="Caminho 75" d="M27.385-4.151H10.968V-6.39H27.385Z" transform="translate(2.937 10.085)" fill="#edf7ec"/>
    <g id="Grupo_122" data-name="Grupo 122" transform="translate(0 -44.049)" clip-path="url(#clip-path)">
      <g id="Grupo_121" data-name="Grupo 121" transform="translate(6.756 6.201)">
        <path id="Caminho_76" data-name="Caminho 76" d="M4.984,7.49H2.745V5.119a11.371,11.371,0,0,1,3.295-7.6,14.536,14.536,0,0,0,3.825-10.16A12.966,12.966,0,0,0-3.256-25.731a12.964,12.964,0,0,0-13.118,13.09A14.531,14.531,0,0,0-12.549-2.482a11.372,11.372,0,0,1,3.3,7.6V7.49h-2.24V5.119A9.024,9.024,0,0,0-14.131-.9a16.8,16.8,0,0,1-4.482-11.744A15.18,15.18,0,0,1-3.256-27.97,15.181,15.181,0,0,1,12.1-12.641,16.812,16.812,0,0,1,7.623-.9,9.03,9.03,0,0,0,4.984,5.119Z" transform="translate(18.613 27.97)" fill="#edf7ec"/>
      </g>
    </g>
  </g>
</svg>
