<svg xmlns="http://www.w3.org/2000/svg" xmlns:xlink="http://www.w3.org/1999/xlink" width="106.689" height="109.72" viewBox="0 0 106.689 109.72">
  <defs>
    <clipPath id="clip-path">
      <path id="Caminho_157" data-name="Caminho 157" d="M0,58.289H106.689V-51.431H0Z" transform="translate(0 51.431)" fill="none"/>
    </clipPath>
  </defs>
  <g id="Grupo_241" data-name="Grupo 241" transform="translate(0 51.431)">
    <g id="Grupo_235" data-name="Grupo 235" transform="translate(0 -51.431)" clip-path="url(#clip-path)">
      <g id="Grupo_232" data-name="Grupo 232" transform="translate(34.875 52.507)">
        <path id="Caminho_154" data-name="Caminho 154" d="M1.588,22.819-1.4,19.834l.279-.292a7.164,7.164,0,0,1,5.8-2.622H38.465C40.555,16.214,52.46,4.688,55.256,1.564A135.031,135.031,0,0,0,65.729-14.894a8.2,8.2,0,0,0-6.116-.74c-3.087.7-5.05,2.746-7.793,8.092a2.112,2.112,0,0,1-.907.911L40.944-1.467,39-5.217l9.376-4.858c2.714-5.161,5.449-8.57,10.278-9.67,5.229-1.252,9.542.721,11.326,3.081a2.1,2.1,0,0,1,.254,2.114C67.954-9.286,60.176,2.379,58.407,4.372c-.154.173-15.755,16.77-19.943,16.77H4.681A3.083,3.083,0,0,0,1.97,22.416Z" transform="translate(1.401 20.134)" fill="#fff"/>
      </g>
      <g id="Grupo_233" data-name="Grupo 233" transform="translate(16.423 59.723)">
        <path id="Caminho_155" data-name="Caminho 155" d="M28.583,10.777H7.9a2.111,2.111,0,0,1,0-4.222H28.583c3.3,0,4.783-1.822,4.783-3.627S31.888-.7,28.583-.7H14.8c-1.577,0-3-1.088-4.655-2.349C8.9-3.994,7.209-5.289,6.251-5.289H-5.239c-2.261,0-5.611,2.025-7.748,4.021-3.413,3.413-9.325,9.026-9.325,9.026L-25.22,4.7s5.865-5.574,9.3-9c2.6-2.428,6.908-5.205,10.682-5.205H6.251c2.387,0,4.546,1.649,6.451,3.1a12.064,12.064,0,0,0,2.227,1.5l13.653-.013c5.911,0,9,3.951,9,7.851s-3.093,7.849-9,7.849" transform="translate(25.22 9.509)" fill="#fff"/>
      </g>
      <g id="Grupo_234" data-name="Grupo 234" transform="translate(0.001 68.817)">
        <path id="Caminho_156" data-name="Caminho 156" d="M14.489,21.73A2.1,2.1,0,0,1,13,21.111L-12.167-4.052a2.112,2.112,0,0,1-.017-2.965L-.965-18.535a2.252,2.252,0,0,1,1.513-.638,2.1,2.1,0,0,1,1.491.619L27.5,6.909a2.114,2.114,0,0,1-.021,3.006L15.961,21.132a2.1,2.1,0,0,1-1.472.6M-7.709-5.564,14.51,16.654,23,8.381.564-14.057Z" transform="translate(12.784 19.173)" fill="#fff"/>
      </g>
    </g>
    <g id="Grupo_236" data-name="Grupo 236" transform="translate(11.887 29.473)">
      <path id="Caminho_158" data-name="Caminho 158" d="M2.576,4.054-2.273-.492.611-3.577,5.463.971Z" transform="translate(2.273 3.577)" fill="#fff"/>
    </g>
    <g id="Grupo_240" data-name="Grupo 240" transform="translate(0 -51.431)" clip-path="url(#clip-path)">
      <g id="Grupo_237" data-name="Grupo 237" transform="translate(47.295 41.229)">
        <path id="Caminho_159" data-name="Caminho 159" d="M18.353,8.362a2.109,2.109,0,0,1-2.11-2.11V3.946c0-5.312-9.69-7.1-14.108-7.1s-14.11,1.79-14.11,7.1V6.252a2.109,2.109,0,0,1-2.11,2.11,2.109,2.109,0,0,1-2.11-2.11V3.946c0-8.305,10.961-11.324,18.33-11.324s18.33,3.019,18.33,11.324V6.252a2.111,2.111,0,0,1-2.112,2.11" transform="translate(16.194 7.378)" fill="#fff"/>
      </g>
      <g id="Grupo_238" data-name="Grupo 238" transform="translate(54.267 13.641)">
        <path id="Caminho_160" data-name="Caminho 160" d="M6.034,13.355A11.507,11.507,0,0,1-5.324,1.731V-.157A11.509,11.509,0,0,1,6.034-11.784,11.507,11.507,0,0,1,17.39-.157V1.731A11.505,11.505,0,0,1,6.034,13.355m0-20.917A7.284,7.284,0,0,0-1.1-.157V1.731a7.282,7.282,0,0,0,7.136,7.4,7.281,7.281,0,0,0,7.134-7.4V-.157a7.282,7.282,0,0,0-7.134-7.4" transform="translate(5.324 11.784)" fill="#fff"/>
      </g>
      <g id="Grupo_239" data-name="Grupo 239" transform="translate(29.104 0)">
        <path id="Caminho_161" data-name="Caminho 161" d="M3.6,29.783a2.112,2.112,0,0,1-1.83-1.056A36.959,36.959,0,0,1-3.175,10.3,36.519,36.519,0,1,1,68.194,21.188a2.111,2.111,0,0,1-4.032-1.252A32.3,32.3,0,1,0,1.047,10.3a32.739,32.739,0,0,0,4.378,16.32A2.117,2.117,0,0,1,4.65,29.5a2.14,2.14,0,0,1-1.052.279" transform="translate(3.175 26.279)" fill="#fff"/>
      </g>
    </g>
  </g>
</svg>
