<svg xmlns="http://www.w3.org/2000/svg" xmlns:xlink="http://www.w3.org/1999/xlink" width="44.969" height="46.036" viewBox="0 0 44.969 46.036">
  <defs>
    <clipPath id="clip-path">
      <path id="Caminho_94" data-name="Caminho 94" d="M0,0H44.969V-46.036H0Z" fill="#fff"/>
    </clipPath>
  </defs>
  <g id="Grupo_135" data-name="Grupo 135" transform="translate(0 46.036)">
    <g id="Grupo_144" data-name="Grupo 144" clip-path="url(#clip-path)">
      <g id="Grupo_137" data-name="Grupo 137" transform="translate(32.557 -20.146)">
        <path id="Caminho_87" data-name="Caminho 87" d="M0,0A1.92,1.92,0,0,1-.6-.1,1.824,1.824,0,0,1-1.853-1.854V-5.8h-2V-7.561H-.087v5.707L4.357-7.561H9.608a1.056,1.056,0,0,0,1.038-1.045V-23.078a1.056,1.056,0,0,0-1.038-1.046H-16.353a1.057,1.057,0,0,0-1.04,1.046v6.754h-1.766v-6.754a2.812,2.812,0,0,1,2.806-2.812H9.608a2.811,2.811,0,0,1,2.8,2.812V-8.606A2.811,2.811,0,0,1,9.608-5.8H5.243L1.482-.754A1.851,1.851,0,0,1,0,0" fill="#fff"/>
      </g>
      <g id="Grupo_138" data-name="Grupo 138" transform="translate(19.079 -9.514)">
        <path id="Caminho_88" data-name="Caminho 88" d="M0,0H-1.766V-9.965l5.974-7,1.686-2.832a3.741,3.741,0,0,0-.31-2.406,2.852,2.852,0,0,0-.418-.657l-2.543,4.2L-1.218-14.8a5.071,5.071,0,0,1-3.388,1.223H-6.738A5.229,5.229,0,0,1-10.154-14.8l-3.975-4.025-2.408-4.031a2.809,2.809,0,0,0-.427.676,3.453,3.453,0,0,0-.213,2.506l1.686,2.839,5.885,6.87v2.254h-1.766v-1.6l-5.552-6.5-1.83-3.079a5.159,5.159,0,0,1,.186-4.027,3.6,3.6,0,0,1,2.041-2.02l.671-.22,3.187,5.332L-8.9-16.045a3.537,3.537,0,0,0,2.165.7h2.132a3.5,3.5,0,0,0,2.121-.686l3.78-3.8,3.189-5.332.671.22a3.6,3.6,0,0,1,2.027,1.986,5.258,5.258,0,0,1,.292,3.934L5.637-15.933,0-9.313Z" fill="#fff"/>
      </g>
      <g id="Grupo_139" data-name="Grupo 139" transform="translate(13.33 -26.007)">
        <path id="Caminho_89" data-name="Caminho 89" d="M0,0A3.668,3.668,0,0,1-3.737-3.763v-.961A3.667,3.667,0,0,1,0-8.487,3.668,3.668,0,0,1,3.737-4.724v.961A3.668,3.668,0,0,1,0,0M0-6.721a1.919,1.919,0,0,0-1.971,2v.961A1.919,1.919,0,0,0,0-1.766a1.9,1.9,0,0,0,1.97-2v-.961a1.9,1.9,0,0,0-1.97-2" fill="#fff"/>
      </g>
      <g id="Grupo_140" data-name="Grupo 140" transform="translate(25.823 -10.659)">
        <path id="Caminho_90" data-name="Caminho 90" d="M0,0A3.7,3.7,0,0,1-3.8-3.763v-.961A3.7,3.7,0,0,1,0-8.489,3.7,3.7,0,0,1,3.8-4.724v.961A3.7,3.7,0,0,1,0,0M0-6.723a1.951,1.951,0,0,0-2.035,2v.961A1.95,1.95,0,0,0,0-1.766a1.928,1.928,0,0,0,2.034-2v-.961A1.93,1.93,0,0,0,0-6.723" fill="#fff"/>
      </g>
      <g id="Grupo_141" data-name="Grupo 141" transform="translate(31.566)">
        <path id="Caminho_91" data-name="Caminho 91" d="M0,0H-1.766V-4.257L4.1-9.2l1.689-3.725a5.6,5.6,0,0,0-.451-3.539,3.517,3.517,0,0,0-.181-.34L2.624-10.89l-4.6,2.275a7.265,7.265,0,0,1-2.691.847H-5.747c-1.8,0-4.821.385-4.821,2.961V0h-1.766V-4.807c0-2.959,2.463-4.727,6.587-4.727h1.082A6.862,6.862,0,0,0-2.7-10.226l.439-.195L1.255-12.18l3.072-7.173.768.25a3.337,3.337,0,0,1,1.84,1.887,7.142,7.142,0,0,1,.48,4.981L5.391-7.975,0-3.436Z" fill="#fff"/>
      </g>
      <g id="Grupo_142" data-name="Grupo 142" transform="translate(10.476 -7.742)">
        <path id="Caminho_92" data-name="Caminho 92" d="M0,0A3.7,3.7,0,0,1-3.8-3.763v-.961A3.7,3.7,0,0,1,0-8.487,3.7,3.7,0,0,1,3.8-4.724v.961A3.7,3.7,0,0,1,0,0M0-6.721a1.949,1.949,0,0,0-2.034,2v.961A1.949,1.949,0,0,0,0-1.766a1.928,1.928,0,0,0,2.034-2v-.961A1.928,1.928,0,0,0,0-6.721" fill="#fff"/>
      </g>
      <g id="Grupo_143" data-name="Grupo 143" transform="translate(17.066)">
        <path id="Caminho_93" data-name="Caminho 93" d="M0,0H-1.766V-1.9c0-2.544-3.062-2.924-4.887-2.924s-4.889.38-4.889,2.924V0h-1.766V-1.9c0-2.938,2.488-4.69,6.655-4.69S0-4.84,0-1.9Z" fill="#fff"/>
      </g>
    </g>
  </g>
</svg>
