<svg xmlns="http://www.w3.org/2000/svg" width="17.262" height="18.832" viewBox="0 0 17.262 18.832">
  <g id="Grupo_27" data-name="Grupo 27" transform="translate(13.339)">
    <path id="Caminho_21" data-name="Caminho 21" d="M0,0H-1.569A3.924,3.924,0,0,0-5.493,3.923a3.879,3.879,0,0,0-2.354-.784h-4.708a.784.784,0,0,0-.784.784v11.77a.784.784,0,0,0,.784.785h4.708a2.353,2.353,0,0,1,2.268,1.766.784.784,0,0,0,.761.588h.22a.784.784,0,0,0,.761-.588,2.353,2.353,0,0,1,2.268-1.766H3.139a.784.784,0,0,0,.784-.785V3.923a.784.784,0,0,0-.784-.784H.785V.785A.785.785,0,0,0,0,0M-3.923,3.923A2.354,2.354,0,0,1-1.569,1.569h.784v10.2h-.784a3.88,3.88,0,0,0-2.354.785ZM-7.847,14.909H-11.77V4.708h3.923A2.354,2.354,0,0,1-5.493,7.062v8.631a3.887,3.887,0,0,0-2.354-.784m10.2-10.2v10.2H-1.569a3.887,3.887,0,0,0-2.354.784,2.354,2.354,0,0,1,2.354-2.354H0a.785.785,0,0,0,.785-.784V4.708Z" fill="#fff"/>
  </g>
</svg>
