<svg id="Grupo_565" data-name="Grupo 565" xmlns="http://www.w3.org/2000/svg" xmlns:xlink="http://www.w3.org/1999/xlink" width="49.808" height="58.352" viewBox="0 0 49.808 58.352">
  <defs>
    <clipPath id="clip-path">
      <path id="Caminho_436" data-name="Caminho 436" d="M0,17.824H49.808V-40.528H0Z" transform="translate(0 40.528)" fill="none"/>
    </clipPath>
  </defs>
  <g id="Grupo_549" data-name="Grupo 549" transform="translate(0 0)" clip-path="url(#clip-path)">
    <g id="Grupo_547" data-name="Grupo 547" transform="translate(18.219 14.51)">
      <path id="Caminho_434" data-name="Caminho 434" d="M5.314,4.822H-4.014A4.427,4.427,0,0,1-7.5,3.078c-.494-.53-.7-.716-1-.716h-2.456A1.122,1.122,0,0,1-12.084,1.24,1.122,1.122,0,0,1-10.962.117h2.456A3.529,3.529,0,0,1-5.858,1.549c.612.657,1,1.028,1.844,1.028H5.314c.288,0,.546-.386.765-1.148.134-.533.553-4.75.881-8.521.157-.847.066-1.279-.066-1.441a.925.925,0,0,0-.659-.186H3.778A1.121,1.121,0,0,1,2.657-9.841a1.121,1.121,0,0,1,1.122-1.123H6.234a2.939,2.939,0,0,1,2.391,1A3.67,3.67,0,0,1,9.18-6.78c-.194,2.311-.711,8.046-.947,8.839C7.579,4.342,6.285,4.822,5.314,4.822" transform="translate(12.084 10.964)" fill="#007254"/>
    </g>
    <g id="Grupo_548" data-name="Grupo 548" transform="translate(18.219 7.121)">
      <path id="Caminho_435" data-name="Caminho 435" d="M2.173,4.617a1.122,1.122,0,1,1,0-2.245A3.356,3.356,0,0,0,5.579-.245a10.428,10.428,0,0,1,.831-2.347l.184-.382a3.1,3.1,0,0,0,.171-.366,3.276,3.276,0,0,1,.16-.436,4.3,4.3,0,0,0,.386-1.949c0-1.483-.173-1.847-.766-2.325a.753.753,0,0,0-.464-.2v.662c0,1.961-1.119,2.9-2.2,3.8-.327.275-.678.566-1.028.914A6.528,6.528,0,0,1-1.376-.831H-3.819A1.123,1.123,0,0,1-4.942-1.954,1.122,1.122,0,0,1-3.819-3.075h2.443A4.391,4.391,0,0,0,1.242-4.435c.423-.426.824-.762,1.2-1.074.993-.832,1.4-1.2,1.4-2.08v-.917A1.925,1.925,0,0,1,5.02-10.277a2.822,2.822,0,0,1,2.967.507C9.3-8.712,9.557-7.529,9.557-5.725a6.452,6.452,0,0,1-.576,2.851,4.532,4.532,0,0,1-.38.907L8.422-1.6A8.585,8.585,0,0,0,7.761.276,5.612,5.612,0,0,1,2.173,4.617" transform="translate(4.942 10.499)" fill="#007254"/>
    </g>
  </g>
  <path id="Caminho_437" data-name="Caminho 437" d="M16.77-13.923H8.4V-32.129H16.77Zm-6.126-2.246h3.882V-29.884H10.644Z" transform="translate(3.694 44.222)" fill="#007254"/>
  <g id="Grupo_553" data-name="Grupo 553" transform="translate(0 0)" clip-path="url(#clip-path)">
    <g id="Grupo_550" data-name="Grupo 550" transform="translate(4.838 48.689)">
      <path id="Caminho_438" data-name="Caminho 438" d="M5.563,2.951A1.123,1.123,0,0,1,4.44,1.828V-.644c0-2.859-5.1-3.821-7.422-3.821S-10.4-3.5-10.4-.644V1.828a1.123,1.123,0,0,1-1.123,1.123,1.122,1.122,0,0,1-1.122-1.123V-.644c0-4.42,5.929-6.067,9.667-6.067S6.686-5.064,6.686-.644V1.828A1.123,1.123,0,0,1,5.563,2.951" transform="translate(12.649 6.711)" fill="#007254"/>
    </g>
    <g id="Grupo_551" data-name="Grupo 551" transform="translate(8.546 34.18)">
      <path id="Caminho_439" data-name="Caminho 439" d="M1.82,4.034A6.041,6.041,0,0,1-4.138-2.073v-.992A6.041,6.041,0,0,1,1.82-9.173,6.042,6.042,0,0,1,7.779-3.065v.992A6.042,6.042,0,0,1,1.82,4.034m0-10.963A3.794,3.794,0,0,0-1.893-3.065v.992A3.794,3.794,0,0,0,1.82,1.79,3.794,3.794,0,0,0,5.533-2.073v-.992A3.794,3.794,0,0,0,1.82-6.928" transform="translate(4.138 9.173)" fill="#007254"/>
    </g>
    <g id="Grupo_552" data-name="Grupo 552" transform="translate(-0.001 -0.001)">
      <path id="Caminho_440" data-name="Caminho 440" d="M8.519,14.811a2.292,2.292,0,0,1-2.278-2.3v-7.4H3.7a1.123,1.123,0,1,1,0-2.246H8.486v9.649l8.977-9.649h8.192A2.537,2.537,0,0,0,28.193.334V-28.9a2.537,2.537,0,0,0-2.538-2.531H-14.588A2.536,2.536,0,0,0-17.124-28.9V.334a2.536,2.536,0,0,0,2.535,2.533h1.22A1.123,1.123,0,0,1-12.246,3.99a1.123,1.123,0,0,1-1.123,1.123h-1.22A4.785,4.785,0,0,1-19.37.334V-28.9a4.785,4.785,0,0,1,4.782-4.777H25.655A4.785,4.785,0,0,1,30.438-28.9V.334a4.785,4.785,0,0,1-4.783,4.779h-7.2l-8.282,9.074a2.674,2.674,0,0,1-1.653.625" transform="translate(19.37 33.678)" fill="#007254"/>
    </g>
  </g>
</svg>
