<svg xmlns="http://www.w3.org/2000/svg" xmlns:xlink="http://www.w3.org/1999/xlink" width="42.71" height="57.702" viewBox="0 0 42.71 57.702">
  <defs>
    <clipPath id="clip-path">
      <path id="Caminho_469" data-name="Caminho 469" d="M0,17.451H42.71v-57.7H0Z" transform="translate(0 40.251)" fill="none"/>
    </clipPath>
  </defs>
  <g id="Grupo_569" data-name="Grupo 569" transform="translate(0 0)">
    <g id="Grupo_576" data-name="Grupo 576" transform="translate(0 0)" clip-path="url(#clip-path)">
      <g id="Grupo_570" data-name="Grupo 570" transform="translate(19.288 26.528)">
        <path id="Caminho_463" data-name="Caminho 463" d="M4.35,4.322H1.938A1.116,1.116,0,0,1,1.148,4l-4.5-4.5H-8.916A1.118,1.118,0,0,1-10.034-1.62V-4.027a1.118,1.118,0,0,1,.328-.791l2.413-2.411a1.118,1.118,0,0,1,.79-.328h1.95l2.084-2.084a1.116,1.116,0,0,1,.79-.327H7.805v2.235H-1.216L-3.3-5.65a1.118,1.118,0,0,1-.79.328H-6.04L-7.8-3.565v.829h4.911A1.12,1.12,0,0,1-2.1-2.41l4.5,4.5H3.886L5.967,0a1.113,1.113,0,0,1,.791-.328H10.38V1.909H7.222L5.142,4a1.12,1.12,0,0,1-.791.327" transform="translate(10.034 9.969)" fill="#007254"/>
      </g>
      <g id="Grupo_571" data-name="Grupo 571" transform="translate(15.672 37.379)">
        <path id="Caminho_464" data-name="Caminho 464" d="M2.891,4.687a1.118,1.118,0,0,1-.5-.118l-2.413-1.2a1.117,1.117,0,0,1-.618-1V-.788L-2.4-2.546H-5.55A1.117,1.117,0,0,1-6.668-3.662V-7.281a1.116,1.116,0,0,1,.327-.79l2.414-2.411a1.12,1.12,0,0,1,.79-.328H1.688a1.118,1.118,0,0,1,.79.328L7.3-5.658a1.116,1.116,0,0,1,.327.79v4.82A1.122,1.122,0,0,1,7.3.743L3.681,4.36a1.118,1.118,0,0,1-.79.327M1.6,1.675l1.072.535L5.39-.511V-4.4L1.224-8.574h-3.9L-4.433-6.818V-4.78h2.5a1.116,1.116,0,0,1,.79.327L1.27-2.041a1.116,1.116,0,0,1,.327.79Z" transform="translate(6.668 10.81)" fill="#007254"/>
      </g>
      <g id="Grupo_572" data-name="Grupo 572" transform="translate(1.279 26.212)">
        <path id="Caminho_465" data-name="Caminho 465" d="M.682,4.418H-1.574V2.183H.218l.55-.552V.889A1.116,1.116,0,0,1,1.1.1L3.5-2.314a1.122,1.122,0,0,1,.791-.327h2.5V-3.935a2.5,2.5,0,0,0-2.5-2.5h-1.2A1.117,1.117,0,0,1,2.3-6.762L.456-8.614l1.583-1.577L3.554-8.67h.74A4.739,4.739,0,0,1,9.027-3.935v2.411A1.117,1.117,0,0,1,7.91-.406H4.758L3,1.352v.74a1.113,1.113,0,0,1-.325.787l-1.2,1.21a1.116,1.116,0,0,1-.793.33" transform="translate(1.574 10.191)" fill="#007254"/>
      </g>
      <g id="Grupo_573" data-name="Grupo 573" transform="translate(2.323 42.203)">
        <path id="Caminho_466" data-name="Caminho 466" d="M2.525,3.328H.291V-.531a1.116,1.116,0,0,1,.327-.79L2.7-3.407v-.277L.946-5.441H-5.825V-7.676H1.407a1.122,1.122,0,0,1,.791.327L4.61-4.936a1.118,1.118,0,0,1,.328.79v1.2a1.118,1.118,0,0,1-.328.79L2.525-.068Z" transform="translate(5.825 7.676)" fill="#007254"/>
      </g>
      <g id="Grupo_574" data-name="Grupo 574" transform="translate(19.29 0)">
        <path id="Caminho_467" data-name="Caminho 467" d="M.338,8.333A1.118,1.118,0,0,1-.78,7.215V-18.1A1.118,1.118,0,0,1,.338-19.221,1.118,1.118,0,0,1,1.456-18.1V7.215A1.118,1.118,0,0,1,.338,8.333" transform="translate(0.78 19.221)" fill="#007254"/>
      </g>
      <g id="Grupo_575" data-name="Grupo 575" transform="translate(0 17.521)">
        <path id="Caminho_468" data-name="Caminho 468" d="M6.172,12.152A20.421,20.421,0,0,1-14.236-8.236a20.4,20.4,0,0,1,15.3-19.756,1.122,1.122,0,0,1,1.362.8,1.119,1.119,0,0,1-.8,1.362A18.158,18.158,0,0,0-12-8.236,18.184,18.184,0,0,0,6.172,9.917,18.184,18.184,0,0,0,24.345-8.236a18.112,18.112,0,0,0-13.662-17.59,1.117,1.117,0,0,1-.81-1.358,1.11,1.11,0,0,1,1.358-.809A20.344,20.344,0,0,1,26.58-8.236,20.422,20.422,0,0,1,6.172,12.152" transform="translate(14.236 28.029)" fill="#007254"/>
      </g>
    </g>
    <g id="Grupo_577" data-name="Grupo 577" transform="translate(30.142 3.617)">
      <path id="Caminho_470" data-name="Caminho 470" d="M1.067,0V2.235H6.493L4.644,5.943l1.848,3.7H-.229V8.352H-2.462v3.529H10.106L7.14,5.943,10.1,0Z" transform="translate(2.462)" fill="#007254"/>
    </g>
    <g id="Grupo_578" data-name="Grupo 578" transform="translate(20.408 1.206)">
      <path id="Caminho_471" data-name="Caminho 471" d="M3.62,3.593H-8.35V1.358H1.385V-6.051H-8.35V-8.287H3.62Z" transform="translate(8.35 8.287)" fill="#007254"/>
    </g>
  </g>
</svg>
