<svg xmlns="http://www.w3.org/2000/svg" xmlns:xlink="http://www.w3.org/1999/xlink" width="45.485" height="45.903" viewBox="0 0 45.485 45.903">
  <defs>
    <clipPath id="clip-path">
      <path id="Caminho_102" data-name="Caminho 102" d="M0,0H45.485V-45.9H0Z" fill="#fff"/>
    </clipPath>
  </defs>
  <g id="Grupo_175" data-name="Grupo 175" transform="translate(0 45.903)">
    <g id="Grupo_153" data-name="Grupo 153" clip-path="url(#clip-path)">
      <g id="Grupo_151" data-name="Grupo 151" transform="translate(37.972 -21.095)">
        <path id="Caminho_100" data-name="Caminho 100" d="M0,0V-1.766A3.088,3.088,0,0,0,2.972-4.729V-8.572c0-3.539-3.426-3.92-4.9-3.92H-6.741c-2.345,0-3.011.852-4.469,2.72l-.625.793-1.378-1.107.611-.775c1.541-1.972,2.655-3.4,5.861-3.4h4.814c3.222,0,6.666,1.493,6.666,5.686v3.843A4.858,4.858,0,0,1,0,0" fill="#fff"/>
      </g>
      <g id="Grupo_152" data-name="Grupo 152" transform="translate(31.189 -22.951)">
        <path id="Caminho_101" data-name="Caminho 101" d="M0,0H-1.766V-3.915L-3.4-3.1l-.79-1.579,1.943-.971a.864.864,0,0,1,.395-.094h.972A.883.883,0,0,1,0-4.858Z" fill="#fff"/>
      </g>
    </g>
    <path id="Caminho_103" data-name="Caminho 103" d="M38.822-19.065H37.056V-28.78h1.766Z" fill="#fff"/>
    <g id="Grupo_158" data-name="Grupo 158" clip-path="url(#clip-path)">
      <g id="Grupo_154" data-name="Grupo 154" transform="translate(44.602)">
        <path id="Caminho_104" data-name="Caminho 104" d="M0,0H-43.719a.878.878,0,0,1-.643-.278.884.884,0,0,1-.238-.66,24.9,24.9,0,0,1,3.719-11.708l1.489.952a22.957,22.957,0,0,0-3.369,9.928H-.922A21.3,21.3,0,0,0-21.743-21.374a20.271,20.271,0,0,0-3.887.464l-.347-1.732a21.838,21.838,0,0,1,4.234-.5A23.08,23.08,0,0,1,.883-.9a.881.881,0,0,1-.252.636A.879.879,0,0,1,0,0" fill="#fff"/>
      </g>
      <g id="Grupo_155" data-name="Grupo 155" transform="translate(11.064 -0.883)">
        <path id="Caminho_105" data-name="Caminho 105" d="M0,0H-1.766V-1.923a2.651,2.651,0,0,1,2.79-2.811H7.217a1.712,1.712,0,0,0,1.5-1.521v-.961A3.072,3.072,0,0,1,11.744-10.5c.422,0,.787,0,.787-1.287v-.718c0-1.045-.382-1.045-.787-1.045H7.7v-1.766h4.048c1.622,0,2.553,1.025,2.553,2.811v.718c0,2.656-1.6,3.053-2.553,3.053-1.227,0-1.262,1.366-1.262,1.521v.961A3.451,3.451,0,0,1,7.217-2.968H1.024C.316-2.968,0-2.646,0-1.923Z" fill="#fff"/>
      </g>
      <g id="Grupo_156" data-name="Grupo 156" transform="translate(26.329 -0.881)">
        <path id="Caminho_106" data-name="Caminho 106" d="M0,0H-1.766V-1.445c0-2.342,2.23-4.248,4.971-4.248H7.534c.527,0,1.281-.614,1.281-1.042s-.767-1.04-1.281-1.04H5.851A2.73,2.73,0,0,1,3.045-10.34v-.96a3.187,3.187,0,0,1,2.806-3.048h6.731v1.766H5.851c-.428,0-1.04.754-1.04,1.282v.96c0,.451.559.8,1.04.8H7.534a3.185,3.185,0,0,1,3.047,2.806A3.185,3.185,0,0,1,7.534-3.927H3.2C1.468-3.927,0-2.791,0-1.445Z" fill="#fff"/>
      </g>
      <g id="Grupo_157" data-name="Grupo 157" transform="translate(16.84 -8.656)">
        <path id="Caminho_107" data-name="Caminho 107" d="M0,0H-1.766V-20.079a.883.883,0,0,1,.883-.883H.073a.885.885,0,0,1,.506.159c.1.07,2.441,1.71,3.886,2.918a2.973,2.973,0,0,0,3.332.036c-1.129-1.181-3.3-3.425-4.472-4.427C1.692-23.675,0-24.931-2.8-24.931H-7.582a4.624,4.624,0,0,0-4.856,4.852v3.827a3.245,3.245,0,0,0,2.944,2.941v1.766a4.964,4.964,0,0,1-4.71-4.707v-3.827A6.346,6.346,0,0,1-7.582-26.7H-2.8a10.608,10.608,0,0,1,7.269,3.079c1.692,1.45,5.187,5.165,5.334,5.322a.883.883,0,0,1,.238.659.879.879,0,0,1-.315.624c-1.185.989-4.045,2.363-6.383.5-1.038-.867-2.6-2-3.348-2.53Z" fill="#fff"/>
      </g>
    </g>
    <path id="Caminho_109" data-name="Caminho 109" d="M8.149-8.656H6.383V-29.613H8.149Z" fill="#fff"/>
    <path id="Caminho_110" data-name="Caminho 110" d="M12.035-8.653H10.269V-21.98h1.766Z" fill="#fff"/>
    <g id="Grupo_161" data-name="Grupo 161" clip-path="url(#clip-path)">
      <g id="Grupo_159" data-name="Grupo 159" transform="translate(11.569 -36.502)">
        <path id="Caminho_111" data-name="Caminho 111" d="M0,0A4.069,4.069,0,0,1-4.213-3.984V-5.417A4.069,4.069,0,0,1,0-9.4,4.069,4.069,0,0,1,4.212-5.417v1.433A4.069,4.069,0,0,1,0,0M0-7.635A2.323,2.323,0,0,0-2.447-5.417v1.433A2.324,2.324,0,0,0,0-1.766,2.323,2.323,0,0,0,2.446-3.984V-5.417A2.323,2.323,0,0,0,0-7.635" fill="#fff"/>
      </g>
      <g id="Grupo_160" data-name="Grupo 160" transform="translate(34.609 -36.502)">
        <path id="Caminho_112" data-name="Caminho 112" d="M0,0A4.069,4.069,0,0,1-4.213-3.984V-5.417A4.069,4.069,0,0,1,0-9.4,4.068,4.068,0,0,1,4.212-5.417v1.433A4.068,4.068,0,0,1,0,0M0-7.635A2.323,2.323,0,0,0-2.447-5.417v1.433A2.324,2.324,0,0,0,0-1.766,2.324,2.324,0,0,0,2.446-3.984V-5.417A2.323,2.323,0,0,0,0-7.635" fill="#fff"/>
      </g>
    </g>
  </g>
</svg>
