<svg id="Grupo_461" data-name="Grupo 461" xmlns="http://www.w3.org/2000/svg" width="38.807" height="57.757" viewBox="0 0 38.807 57.757">
  <path id="Caminho_221" data-name="Caminho 221" d="M7.157,6.22H-9.613V2.458h-6.259L-1.141-13.794,13.6,2.458H7.157ZM-7.351,3.958H4.9V.2H8.489l-9.63-10.624L-10.768.2h3.417Z" transform="translate(21.795 13.794)" fill="#007254"/>
  <path id="Caminho_222" data-name="Caminho 222" d="M5.212,1.855H2.95V-1.852H-9.3V1.855h-2.262V-4.114H5.212Z" transform="translate(23.741 46.227)" fill="#007254"/>
  <path id="Caminho_223" data-name="Caminho 223" d="M80.755-313.82H63.985v-7.1h16.77Zm-14.508-2.263H78.493v-2.575H66.247Z" transform="translate(-51.804 353.182)" fill="#007254"/>
  <path id="Caminho_224" data-name="Caminho 224" d="M80.755-320.489H63.985v-7.1h16.77Zm-14.508-2.263H78.493v-2.574H66.247Z" transform="translate(-51.804 350.176)" fill="#007254"/>
  <path id="Caminho_225" data-name="Caminho 225" d="M83.039-312.935H80.777v-9.676h2.262Z" transform="translate(-44.232 352.42)" fill="#007254"/>
  <path id="Caminho_226" data-name="Caminho 226" d="M83.039-311.884H80.777v-2.332h2.262Z" transform="translate(-44.232 356.206)" fill="#007254"/>
  <path id="Caminho_227" data-name="Caminho 227" d="M83.039-309.238H80.777v-2.507h2.262Z" transform="translate(-44.232 357.32)" fill="#007254"/>
  <path id="Caminho_228" data-name="Caminho 228" d="M57.852-306.619H55.59v-10.93h2.262Z" transform="translate(-55.59 354.703)" fill="#007254"/>
  <path id="Caminho_229" data-name="Caminho 229" d="M57.852-305.9H55.59v-2.507h2.262Z" transform="translate(-55.59 358.823)" fill="#007254"/>
  <path id="Caminho_230" data-name="Caminho 230" d="M57.852-302.625H55.59v-2.33h2.262Z" transform="translate(-55.59 360.382)" fill="#007254"/>
  <path id="Caminho_231" data-name="Caminho 231" d="M62.05-318H59.788v-9.675H62.05Z" transform="translate(-53.697 350.138)" fill="#007254"/>
  <path id="Caminho_232" data-name="Caminho 232" d="M76.247-305.9H73.985v-2.507h2.262Z" transform="translate(-47.295 358.823)" fill="#007254"/>
  <path id="Caminho_233" data-name="Caminho 233" d="M72.05-299.952H69.788v-10.93H72.05Z" transform="translate(-49.187 357.71)" fill="#007254"/>
  <path id="Caminho_234" data-name="Caminho 234" d="M62.05-316.77H59.788v-2.507H62.05Z" transform="translate(-53.697 353.924)" fill="#007254"/>
</svg>
