<svg xmlns="http://www.w3.org/2000/svg" xmlns:xlink="http://www.w3.org/1999/xlink" width="46.545" height="43.927" viewBox="0 0 46.545 43.927">
  <defs>
    <clipPath id="clip-path">
      <path id="Caminho_99" data-name="Caminho 99" d="M0,0H46.545V-43.927H0Z" fill="#fff"/>
    </clipPath>
  </defs>
  <g id="Grupo_145" data-name="Grupo 145" transform="translate(0 43.927)">
    <g id="Grupo_150" data-name="Grupo 150" clip-path="url(#clip-path)">
      <g id="Grupo_146" data-name="Grupo 146" transform="translate(8.692 -22.328)">
        <path id="Caminho_95" data-name="Caminho 95" d="M0,0V-1.766A8.205,8.205,0,0,0,7.1-5.279c2.749-4.433,2.775-10.19.161-14.086A25.245,25.245,0,0,1,.385-15.379c-2.919,1.309-5.676,2.545-6.707,4.606C-8.455-5.98-4.508-2.779-2.712-1.626L-3.666-.14C-8.206-3.051-9.8-7.309-7.919-11.526c1.331-2.661,4.367-4.022,7.582-5.464C2.279-18.165,4.986-19.379,6.7-21.3a.932.932,0,0,1,.676-.3.89.89,0,0,1,.665.321C11.757-16.768,11.987-9.8,8.6-4.336A9.921,9.921,0,0,1,0,0" fill="#fff"/>
      </g>
      <g id="Grupo_147" data-name="Grupo 147" transform="translate(25.83)">
        <path id="Caminho_96" data-name="Caminho 96" d="M0,0A20.739,20.739,0,0,1-20.716-20.715a20.837,20.837,0,0,1,7.419-16.1l1.13,1.355a19.083,19.083,0,0,0-6.782,14.747A18.97,18.97,0,0,0,0-1.766,18.97,18.97,0,0,0,18.949-20.715,18.971,18.971,0,0,0,0-39.665a29.273,29.273,0,0,0-4.751.478l-.292-1.742A30.908,30.908,0,0,1,0-41.431,20.739,20.739,0,0,1,20.716-20.715,20.739,20.739,0,0,1,0,0" fill="#fff"/>
      </g>
      <g id="Grupo_148" data-name="Grupo 148" transform="translate(45.663 -18.584)">
        <path id="Caminho_97" data-name="Caminho 97" d="M0,0H-2.948a.883.883,0,0,1-.734-.391l-1.7-2.544H-6.514l-.726.72a.882.882,0,0,1-.622.257h-2.952a.888.888,0,0,1-.624-.257l-4.655-4.636h-6.514a.882.882,0,0,1-.883-.883V-9.691a4.757,4.757,0,0,1,4.814-4.8h1.6l1.706-1.7a.888.888,0,0,1,.624-.257h4.553l1.706-1.7L-7.239-16.9-9.2-14.943a.888.888,0,0,1-.623.257h-4.554l-1.706,1.7a.893.893,0,0,1-.624.257h-1.965a2.975,2.975,0,0,0-3.048,3.037v1.074h6a.893.893,0,0,1,.624.257l4.655,4.636h2.222l.725-.721A.89.89,0,0,1-6.879-4.7h1.965a.883.883,0,0,1,.734.392l1.7,2.544H0Z" fill="#fff"/>
      </g>
      <g id="Grupo_149" data-name="Grupo 149" transform="translate(30.961 -6.933)">
        <path id="Caminho_98" data-name="Caminho 98" d="M0,0H-2.913A.883.883,0,0,1-3.8-.883V-7.3L-5.341-8.737H-8.877A.883.883,0,0,1-9.76-9.62v-2.914a.886.886,0,0,1,.244-.61L-6.6-16.195a.885.885,0,0,1,.639-.273H-.971a.884.884,0,0,1,.633.268l4.854,4.993a.881.881,0,0,1,.25.616v5.824a.883.883,0,0,1-.258.624L.624-.259A.88.88,0,0,1,0,0M-2.03-1.766H-.366L3-5.133v-5.1L-1.344-14.7H-5.586L-7.994-12.18V-10.5h3a.884.884,0,0,1,.6.237l2.079,1.941a.878.878,0,0,1,.281.645Z" fill="#fff"/>
      </g>
    </g>
  </g>
</svg>
