<svg xmlns="http://www.w3.org/2000/svg" width="14.366" height="18.496" viewBox="0 0 14.366 18.496">
  <g id="Grupo_80" data-name="Grupo 80" transform="translate(-9.528 -7.544)">
    <g id="Grupo_11" data-name="Grupo 11" transform="translate(15.262 15.034)">
      <path id="Caminho_9" data-name="Caminho 9" d="M0,0A1.449,1.449,0,0,1,2.9,0V9.556a1.449,1.449,0,1,1-2.9,0Z" fill="#4db748"/>
    </g>
    <g id="Grupo_12" data-name="Grupo 12" transform="translate(20.996 8.993)">
      <path id="Caminho_10" data-name="Caminho 10" d="M0,0A1.449,1.449,0,0,1,2.9,0V15.6a1.449,1.449,0,0,1-2.9,0Z" fill="#4db748"/>
    </g>
    <g id="Grupo_13" data-name="Grupo 13" transform="translate(9.528 19.596)">
      <path id="Caminho_11" data-name="Caminho 11" d="M0,0A1.449,1.449,0,0,1,2.9,0V4.994a1.449,1.449,0,0,1-2.9,0Z" fill="#4db748"/>
    </g>
  </g>
</svg>
