<svg xmlns="http://www.w3.org/2000/svg" xmlns:xlink="http://www.w3.org/1999/xlink" width="58.616" height="58.449" viewBox="0 0 58.616 58.449">
  <defs>
    <clipPath id="clip-path">
      <path id="Caminho_528" data-name="Caminho 528" d="M0,17.707H58.616V-40.742H0Z" transform="translate(0 40.742)" fill="none"/>
    </clipPath>
  </defs>
  <g id="Grupo_614" data-name="Grupo 614" transform="translate(0 0)">
    <g id="Grupo_620" data-name="Grupo 620" transform="translate(0 0)" clip-path="url(#clip-path)">
      <g id="Grupo_614-2" data-name="Grupo 614" transform="translate(12.115 0.001)">
        <path id="Caminho_522" data-name="Caminho 522" d="M3.552,6.449-8.172-1.319l.65-.94c.065-.09,6.443-9.292,7.338-10.8a3.813,3.813,0,0,1,3.42-1.785V-12.6a1.735,1.735,0,0,0-1.458.614c-.8,1.354-5.139,7.648-6.81,10.068L2.92,3.348l4.3-6.515L9.088-1.934Z" transform="translate(8.172 14.84)" fill="#007254"/>
      </g>
      <g id="Grupo_615" data-name="Grupo 615" transform="translate(23.522 0.001)">
        <path id="Caminho_523" data-name="Caminho 523" d="M6.553,7.258-10.219,2.19l3.911-2.6-6.012-10.586c-.222-.326-.472-.733-.717-1.133-.67-1.1-1.432-2.34-2.04-2.34V-16.7H-1.4c2.6,0,3.579.877,4.687,2.716a39.3,39.3,0,0,1,2.027,3.432c.478.861,1,1.8,1.42,2.495l4.122-2.292ZM-5.021,1.425,4.94,4.436,7.467-5.907l-1.407.782L5.474-5.9A39.2,39.2,0,0,1,3.358-9.468C2.616-10.8,1.85-12.182,1.433-12.739.608-14.1.312-14.464-1.4-14.464H-11.87c.255.379.5.778.74,1.171.23.376.463.759.712,1.13L-3.333.3Z" transform="translate(15.078 16.701)" fill="#007254"/>
      </g>
      <g id="Grupo_616" data-name="Grupo 616" transform="translate(7.941 38.47)">
        <path id="Caminho_524" data-name="Caminho 524" d="M5.432,4.456H-6.85A6.228,6.228,0,0,1-12.5,1.03l2-.991A4.027,4.027,0,0,0-6.85,2.219H3.2V-8.015H-4.371v-2.237h9.8Z" transform="translate(12.499 10.252)" fill="#007254"/>
      </g>
      <g id="Grupo_617" data-name="Grupo 617" transform="translate(0.001 19.215)">
        <path id="Caminho_525" data-name="Caminho 525" d="M2.445,9.3a2.727,2.727,0,0,1-.311-.522L-4.487-2.636c-1.6-2.393-.978-3.849.009-5.493.468-.941,2.189-3.982,3.374-5.839l-4.52-2.259,17.558-5.177L16.347-3.779,12.112-6.594,5.859,3.913c-1.681,2.513-1.829,3.51-1.7,3.911l.142.245ZM.456-15.69l1.777.891-.8,1.07c-.862,1.152-3.311,5.4-3.949,6.677-.826,1.384-1.011,1.823-.07,3.235l5.162,8.9a19.968,19.968,0,0,1,1.4-2.361L11.391-9.757l1.383.918L10.329-18.6Z" transform="translate(5.625 21.405)" fill="#007254"/>
      </g>
      <g id="Grupo_618" data-name="Grupo 618" transform="translate(39.404 21.894)">
        <path id="Caminho_526" data-name="Caminho 526" d="M5.629,5.139l-2-1a2.3,2.3,0,0,0,.311-1.8C3.178.821.059-6.058-1.16-8.754L-9.937-4.21l3.506,6.783L-8.419,3.6l-4.532-8.77L-.093-11.825.392-10.75C.44-10.649,5.029-.482,5.937,1.34a4.118,4.118,0,0,1-.308,3.8" transform="translate(12.951 11.825)" fill="#007254"/>
      </g>
      <g id="Grupo_619" data-name="Grupo 619" transform="translate(26.857 33.21)">
        <path id="Caminho_527" data-name="Caminho 527" d="M3.835,7.646-8.824-4.979,3.835-17.593V-12.3H16.414c1.413,0,3.525,0,3.945-.565l.067-.116,1.965,1.066a2.849,2.849,0,0,1-.143.251L15.511-.072C13.9,2.344,12.1,2.344,10.19,2.344H3.835ZM-5.656-4.979,1.6,2.255V.107H10.19c1.776,0,2.512,0,3.424-1.363l5.152-8.869c-.756.062-1.559.062-2.353.062H1.6v-2.143Z" transform="translate(8.824 17.593)" fill="#007254"/>
      </g>
    </g>
  </g>
</svg>
