<svg id="Grupo_542" data-name="Grupo 542" xmlns="http://www.w3.org/2000/svg" xmlns:xlink="http://www.w3.org/1999/xlink" width="59.541" height="58.422" viewBox="0 0 59.541 58.422">
  <defs>
    <clipPath id="clip-path">
      <path id="Caminho_411" data-name="Caminho 411" d="M0,17.845H59.541V-40.577H0Z" transform="translate(0 40.577)" fill="none"/>
    </clipPath>
  </defs>
  <path id="Caminho_407" data-name="Caminho 407" d="M25.1,9.155h2.246V-20.817H25.1Z" transform="translate(11.039 49.267)" fill="#007254"/>
  <g id="Grupo_526" data-name="Grupo 526" transform="translate(31.369 37.693)">
    <path id="Caminho_408" data-name="Caminho 408" d="M1.562,2-3.551-2.936-1.992-4.55,3.121.387Z" transform="translate(3.551 4.55)" fill="#007254"/>
  </g>
  <g id="Grupo_527" data-name="Grupo 527" transform="translate(36.468 37.706)">
    <path id="Caminho_409" data-name="Caminho 409" d="M.485,1.993-1.1.406,3.834-4.532,5.42-2.944Z" transform="translate(1.102 4.532)" fill="#007254"/>
  </g>
  <g id="Grupo_529" data-name="Grupo 529" transform="translate(0 0)" clip-path="url(#clip-path)">
    <g id="Grupo_528" data-name="Grupo 528" transform="translate(0 11.286)">
      <path id="Caminho_410" data-name="Caminho 410" d="M4.139,12.479A13.581,13.581,0,0,1-9.411-1.1c0-7.1,12.091-25.959,12.605-26.76a1.122,1.122,0,0,1,.945-.515,1.122,1.122,0,0,1,.945.515c.514.8,12.6,19.663,12.6,26.76A13.58,13.58,0,0,1,4.139,12.479m0-37.632C.28-18.964-7.166-6.006-7.166-1.1A11.332,11.332,0,0,0,4.139,10.235,11.332,11.332,0,0,0,15.443-1.1c0-4.905-7.445-17.863-11.3-24.052" transform="translate(9.411 28.376)" fill="#007254"/>
    </g>
  </g>
  <path id="Caminho_412" data-name="Caminho 412" d="M8.692,9.532h2.246V-21.674H8.692Z" transform="translate(3.823 48.89)" fill="#007254"/>
  <g id="Grupo_530" data-name="Grupo 530" transform="translate(6.508 36.462)">
    <path id="Caminho_413" data-name="Caminho 413" d="M1.939,2.377-4.408-3.794-2.843-5.4,3.5.767Z" transform="translate(4.408 5.404)" fill="#007254"/>
  </g>
  <g id="Grupo_531" data-name="Grupo 531" transform="translate(12.845 31.534)">
    <path id="Caminho_414" data-name="Caminho 414" d="M.485,1.993-1.1.406,3.834-4.532,5.42-2.944Z" transform="translate(1.102 4.532)" fill="#007254"/>
  </g>
  <g id="Grupo_535" data-name="Grupo 535" transform="translate(0 0)" clip-path="url(#clip-path)">
    <g id="Grupo_532" data-name="Grupo 532" transform="translate(25.979 18.69)">
      <path id="Caminho_415" data-name="Caminho 415" d="M6.764,9.841H-15.38V7.6H6.764a9.3,9.3,0,0,0,9.173-9.184,9.346,9.346,0,0,0-9.173-9.488h-.31a1.124,1.124,0,0,1-1.122-1.052c-.265-4.262-4.7-8-9.485-8a8.962,8.962,0,0,0-8.865,8.07l-2.227-.276A11.182,11.182,0,0,1-4.153-22.376c5.634,0,10.7,4.06,11.6,9.076A11.615,11.615,0,0,1,18.181-1.588,11.576,11.576,0,0,1,6.764,9.841" transform="translate(15.38 22.376)" fill="#007254"/>
    </g>
    <g id="Grupo_533" data-name="Grupo 533" transform="translate(19.684 2.821)">
      <path id="Caminho_416" data-name="Caminho 416" d="M4.738,4.589C2.341-.227-.554-4.941-2.011-7.239-3.47-4.941-6.365-.227-8.764,4.589l-2.01-1A145.972,145.972,0,0,1-2.947-9.932a1.125,1.125,0,0,1,.936-.5,1.122,1.122,0,0,1,.934.5A145.767,145.767,0,0,1,6.748,3.59Z" transform="translate(10.774 10.434)" fill="#007254"/>
    </g>
    <g id="Grupo_534" data-name="Grupo 534" transform="translate(42.31)">
      <path id="Caminho_417" data-name="Caminho 417" d="M2.039,4.132A6.726,6.726,0,0,1-4.637-2.629,6.728,6.728,0,0,1,2.039-9.4,6.728,6.728,0,0,1,8.716-2.629,6.726,6.726,0,0,1,2.039,4.132m0-11.282A4.483,4.483,0,0,0-2.392-2.629,4.48,4.48,0,0,0,2.039,1.887,4.479,4.479,0,0,0,6.47-2.629,4.481,4.481,0,0,0,2.039-7.15" transform="translate(4.637 9.395)" fill="#007254"/>
    </g>
  </g>
</svg>
