<svg xmlns="http://www.w3.org/2000/svg" xmlns:xlink="http://www.w3.org/1999/xlink" width="58.14" height="47.216" viewBox="0 0 58.14 47.216">
  <defs>
    <clipPath id="clip-path">
      <path id="Caminho_341" data-name="Caminho 341" d="M0,14.3H58.14V-32.912H0Z" transform="translate(0 32.912)" fill="none"/>
    </clipPath>
  </defs>
  <g id="Grupo_477" data-name="Grupo 477" transform="translate(0 0)">
    <g id="Grupo_473" data-name="Grupo 473" transform="translate(0 0)" clip-path="url(#clip-path)">
      <g id="Grupo_470" data-name="Grupo 470" transform="translate(0.001 8.513)">
        <path id="Caminho_338" data-name="Caminho 338" d="M15.084,11.725H-32.374a2.308,2.308,0,0,1-2.334-2.333V-24.642a2.31,2.31,0,0,1,2.334-2.336h14.109a2.281,2.281,0,0,1,1.624.667l4.185,4.18,26.324.016A2.309,2.309,0,0,1,16.2-19.782V10.606a1.119,1.119,0,0,1-1.119,1.119M-32.374-24.741l-.1,34.133,46.437.093-.1-29.363H-12.41a2.291,2.291,0,0,1-1.625-.669l-4.183-4.18Z" transform="translate(34.708 26.978)" fill="#007254"/>
      </g>
      <g id="Grupo_471" data-name="Grupo 471" transform="translate(8.514 30.363)">
        <path id="Caminho_339" data-name="Caminho 339" d="M3.6,1.8H1.361a3.7,3.7,0,0,0-3.7-3.7,3.7,3.7,0,0,0-3.7,3.7H-8.278A5.943,5.943,0,0,1-2.34-4.137,5.943,5.943,0,0,1,3.6,1.8" transform="translate(8.278 4.137)" fill="#007254"/>
      </g>
      <g id="Grupo_472" data-name="Grupo 472" transform="translate(9.639 22.97)">
        <path id="Caminho_340" data-name="Caminho 340" d="M1.458,2.917A4.818,4.818,0,0,1-3.355-1.9,4.82,4.82,0,0,1,1.458-6.711,4.819,4.819,0,0,1,6.27-1.9,4.817,4.817,0,0,1,1.458,2.917m0-7.39A2.579,2.579,0,0,0-1.118-1.9,2.58,2.58,0,0,0,1.458.68,2.578,2.578,0,0,0,4.032-1.9,2.577,2.577,0,0,0,1.458-4.473" transform="translate(3.355 6.711)" fill="#007254"/>
      </g>
    </g>
    <path id="Caminho_342" data-name="Caminho 342" d="M33.592-13.766h-15.9V-16h15.9Z" transform="translate(7.687 40.261)" fill="#007254"/>
    <path id="Caminho_343" data-name="Caminho 343" d="M33.592-10.407h-15.9v-2.237h15.9Z" transform="translate(7.687 41.721)" fill="#007254"/>
    <path id="Caminho_344" data-name="Caminho 344" d="M28.611-6.937H17.688V-9.174H28.611Z" transform="translate(7.687 43.229)" fill="#007254"/>
    <g id="Grupo_476" data-name="Grupo 476" transform="translate(0 0)" clip-path="url(#clip-path)">
      <g id="Grupo_474" data-name="Grupo 474" transform="translate(4.82 0.001)">
        <path id="Caminho_345" data-name="Caminho 345" d="M12.454,3.258H10.218V-5.259H-26.42v3.7h-2.237V-6.378A1.116,1.116,0,0,1-27.539-7.5H11.335a1.117,1.117,0,0,1,1.119,1.118Z" transform="translate(28.657 7.496)" fill="#007254"/>
      </g>
      <g id="Grupo_475" data-name="Grupo 475" transform="translate(49.793 18.151)">
        <path id="Caminho_346" data-name="Caminho 346" d="M.73,8.805H-1.679V6.568H-.206L4.211-18.022H.73V-20.26H5.549a1.111,1.111,0,0,1,.858.4,1.12,1.12,0,0,1,.244.915L1.831,7.885a1.121,1.121,0,0,1-1.1.92" transform="translate(1.679 20.26)" fill="#007254"/>
      </g>
    </g>
  </g>
</svg>
