<svg xmlns="http://www.w3.org/2000/svg" width="97.666" height="88.2" viewBox="0 0 97.666 88.2">
  <g id="Grupo_325" data-name="Grupo 325" transform="translate(0 60)">
    <path id="Caminho_209" data-name="Caminho 209" d="M.812,1.218H4.746V-2.6H.812Z" transform="translate(0.381 26.977)" fill="#fff"/>
    <path id="Caminho_210" data-name="Caminho 210" d="M63.56,1.218h4.234V-2.6H63.56Z" transform="translate(29.872 26.977)" fill="#fff"/>
    <path id="Caminho_211" data-name="Caminho 211" d="M42.718,15.042H63.171V-32.021H42.718Zm0-47.063M46.536-28.2H59.351V11.222H46.536Z" transform="translate(20.077 13.15)" fill="#fff"/>
    <path id="Caminho_212" data-name="Caminho 212" d="M9.183,5.859H29.638V-12.476H9.183Zm0-18.335M13-8.657H25.817V2.04H13Z" transform="translate(4.316 22.336)" fill="#fff"/>
    <path id="Caminho_213" data-name="Caminho 213" d="M26.053,9.151H46.205V-19.471H26.053Zm0-28.622,3.821,3.819H42.386V5.332H29.874Z" transform="translate(12.244 19.048)" fill="#fff"/>
    <path id="Caminho_214" data-name="Caminho 214" d="M6.368,1.218H86.509V-2.6H6.368Z" transform="translate(2.993 26.977)" fill="#fff"/>
    <g id="Grupo_324" data-name="Grupo 324" transform="translate(0 -60)">
      <path id="Caminho_215" data-name="Caminho 215" d="M18.246,0,24.69,6.446,3.167,27.971l-12.7-12.092L-38.822,45.154l11.769,11.76L-10.442,40.6,2.27,53.616l35.1-35.1,7.05,7.065V0ZM30.093,6.446,27.466,3.819H40.6V16.345l-3.227-3.23L2.3,48.186-10.386,35.2l-16.645,16.34-6.387-6.383L-9.471,21.212,3.233,33.3Z" transform="translate(38.822)" fill="#fff"/>
    </g>
  </g>
</svg>
