<svg xmlns="http://www.w3.org/2000/svg" xmlns:xlink="http://www.w3.org/1999/xlink" width="226.967" height="227.219" viewBox="0 0 226.967 227.219">
  <defs>
    <clipPath id="clip-path">
      <path id="Caminho_171" data-name="Caminho 171" d="M0,85.58H226.967V-141.639H0Z" transform="translate(0 141.639)" fill="none"/>
    </clipPath>
    <clipPath id="clip-path-2">
      <rect id="Ret창ngulo_52" data-name="Ret창ngulo 52" width="241.927" height="117.793" fill="none"/>
    </clipPath>
    <clipPath id="clip-path-3">
      <rect id="Ret창ngulo_53" data-name="Ret창ngulo 53" width="255.843" height="176.77" fill="none"/>
    </clipPath>
  </defs>
  <g id="Grupo_261" data-name="Grupo 261" transform="translate(0 141.639)">
    <g id="Grupo_260" data-name="Grupo 260" transform="translate(0 -141.639)" clip-path="url(#clip-path)">
      <g id="Grupo_253" data-name="Grupo 253" transform="translate(-8.997 111.03)" opacity="0.5">
        <g id="Grupo_252" data-name="Grupo 252">
          <g id="Grupo_251" data-name="Grupo 251" clip-path="url(#clip-path-2)">
            <g id="Grupo_250" data-name="Grupo 250" transform="translate(14.437 11.229)">
              <path id="Caminho_167" data-name="Caminho 167" d="M60.569,0A41.01,41.01,0,0,0,48.185,1.994C34.334,6.362,22.35,17.17,9.929,26.465-1.23,34.816-12.745,41.929-26.323,41.929A93.771,93.771,0,0,1-69.775,31.447c-.3-.13-.6-.257-.906-.382l-.826-.337-.04-.014c-8.6-3.467-15.824-4.938-22.48-4.963h-.217a46.478,46.478,0,0,0-4.991.278c-.175.019-.35.04-.528.063-.16.019-.321.04-.483.061A113.5,113.5,0,0,0,7.8,104.959,113.468,113.468,0,0,0,112.807,34.434a177,177,0,0,0-22.69-23.077A75.077,75.077,0,0,0,76.29,3.52,40.717,40.717,0,0,0,60.569,0" transform="translate(100.245)" fill="#007354"/>
            </g>
          </g>
        </g>
      </g>
      <g id="Grupo_257" data-name="Grupo 257" transform="translate(-14.438 -11.229)" opacity="0.3">
        <g id="Grupo_256" data-name="Grupo 256">
          <g id="Grupo_255" data-name="Grupo 255" clip-path="url(#clip-path-3)">
            <g id="Grupo_254" data-name="Grupo 254" transform="translate(14.438 11.228)">
              <path id="Caminho_168" data-name="Caminho 168" d="M12.136,27.731s51.98-.561,52.076-.2c.014.066.034.132.05.2H12.136ZM93.394-45.9a113.451,113.451,0,0,0-108.04,148.16l.483-.061c.178-.022.353-.043.528-.063a46.507,46.507,0,0,1,4.991-.278h.217c6.657.026,13.875,1.5,22.48,4.963l.04.014q.409.166.826.339c.3.124.6.25.906.38a93.771,93.771,0,0,0,43.452,10.482c13.578,0,25.093-7.113,36.252-15.465l-6.9-8.955c-6.5-7.282-12.827-15.577-19.361-22.576h0c-8.279-8.874-16.888-15.67-26.574-15.67-10.4,0-18.2,5.218-26.871,13.91l-27.75,31.378,27.75-31.378c8.666-8.692,16.47-13.91,26.871-13.91,9.686,0,18.294,6.8,26.574,15.67,6.534,7,12.864,15.295,19.361,22.576l6.9,8.955c12.421-9.295,24.4-20.1,38.256-24.471v0a37.953,37.953,0,0,1,28.106,1.526V62.292l-.1,0a14.028,14.028,0,0,1-9.574-4.325L151.027,38.03c0-9.542-17.011-41.634-17.011-41.634s15.46,28.715,17.13,39.9l5.421-12.019a94.833,94.833,0,0,1,5.222-10.368,94.833,94.833,0,0,0-5.222,10.368l-5.421,12.019a11.6,11.6,0,0,1,.148,1.736c0,5,.921,19.939.921,19.939a14.028,14.028,0,0,0,9.574,4.325l.1,0v0a13.7,13.7,0,0,0,13.823-13.828,13.7,13.7,0,0,1-13.823,13.828v17.34a75.078,75.078,0,0,1,13.827,7.838,177,177,0,0,1,22.69,23.077A113.423,113.423,0,0,0,93.394-45.9" transform="translate(20.086 45.896)" fill="#d7e895"/>
            </g>
          </g>
        </g>
      </g>
      <g id="Grupo_258" data-name="Grupo 258" transform="translate(5.44 148.01)">
        <path id="Caminho_169" data-name="Caminho 169" d="M11.135,2l.9.38-.9-.38m-.866-.353a.3.3,0,0,1,.04.016.3.3,0,0,0-.04-.016M-17.946-2.974c-.162.019-.321.04-.483.061.162-.021.321-.042.483-.061m5.518-.338a45.662,45.662,0,0,0-4.991.278,46.043,46.043,0,0,1,4.991-.278m.05,0h0l.167,0-.167,0" transform="translate(18.429 3.314)" fill="#2d8c72"/>
      </g>
      <g id="Grupo_259" data-name="Grupo 259" transform="translate(55.699 49.641)">
        <path id="Caminho_170" data-name="Caminho 170" d="M62.449,36.7c-8.806-6.412-19.374-11.91-29.949-11.91-33.467,0-54.611,43.971-88.078,43.971A92.5,92.5,0,0,1-99.619,57.767m73.8-14.613C-40.754,25.835-54.815,3.044-72.381,3.044c-10.543,0-18.45,5.472-27.238,14.587M2.668,24.793C-5.26,16.637-13.189,10.3-22,10.3c-5.287,0-9.689,1.81-14.1,4.527M37.7-15.146C37.7-5.14,29.813,3.049,20.183,3.049S2.668-5.14,2.668-15.146s17.515-43.66,17.515-43.66S37.7-25.151,37.7-15.146ZM19.947,3.046v25.61M43.04-29.571a100.774,100.774,0,0,1,5.294-10.872S62.446-12.358,62.446-4.2A14.126,14.126,0,0,1,48.334,10.3a14,14,0,0,1-9.7-4.535M48.438,10.3V28.657m-67.255-54.6h-31.7c-1.757-7.3-7.044-10.039-13.209-8.215-2.641-4.562-7.922-8.217-13.209-8.217-8.806,0-15.85,5.477-15.85,16.432h-10.569M-4.806-44.309H-15.361c-1.763-7.3-7.914-9.123-13.195-8.214-2.636-4.564-7.917-8.217-13.2-8.217-8.791,0-15.829,5.477-15.829,16.43" transform="translate(103.357 60.739)" fill="none" stroke="#b3d77e" stroke-width="3"/>
      </g>
    </g>
  </g>
</svg>
