<svg xmlns="http://www.w3.org/2000/svg" width="45.162" height="40.784" viewBox="0 0 45.162 40.784">
  <g id="Grupo_164" data-name="Grupo 164" transform="translate(0 40.784)">
    <path id="Caminho_114" data-name="Caminho 114" d="M.552,0H2.371V-1.768H.552Z" fill="#fff"/>
    <path id="Caminho_115" data-name="Caminho 115" d="M43.2,0h1.958V-1.768H43.2Z" fill="#fff"/>
    <path id="Caminho_116" data-name="Caminho 116" d="M29.037,0h9.458V-21.766H29.037Zm0-21.762M30.8-20h5.926V-1.77H30.8Z" fill="#fff"/>
    <path id="Caminho_117" data-name="Caminho 117" d="M6.242,0H15.7V-8.481H6.242Zm0-8.479M8.008-6.714h5.926v4.946H8.008Z" fill="#fff"/>
    <path id="Caminho_118" data-name="Caminho 118" d="M17.709,0h9.319V-13.235H17.709Zm0-13.235,1.766,1.765h5.787v9.7H19.475Z" fill="#fff"/>
    <path id="Caminho_119" data-name="Caminho 119" d="M4.329,0H41.386V-1.768H4.329Z" fill="#fff"/>
    <g id="Grupo_163" data-name="Grupo 163" transform="translate(26.389 -40.784)">
      <path id="Caminho_120" data-name="Caminho 120" d="M0,0,2.98,2.981l-9.953,9.953-5.873-5.592L-26.389,20.88l5.442,5.438,7.681-7.542,5.879,6.017L8.844,8.562l3.26,3.267V0ZM5.477,2.981,4.263,1.767h6.075V7.558L8.846,6.064-7.371,22.281l-5.869-6.006-7.7,7.555-2.953-2.95L-12.816,9.808-6.942,15.4Z" fill="#fff"/>
    </g>
  </g>
</svg>
