<svg xmlns="http://www.w3.org/2000/svg" xmlns:xlink="http://www.w3.org/1999/xlink" width="46.976" height="48.31" viewBox="0 0 46.976 48.31">
  <defs>
    <clipPath id="clip-path">
      <path id="Caminho_81" data-name="Caminho 81" d="M0,2.407H46.976V-45.9H0Z" transform="translate(0 45.903)" fill="#fff"/>
    </clipPath>
  </defs>
  <g id="Grupo_125" data-name="Grupo 125" transform="translate(0 45.903)">
    <g id="Grupo_129" data-name="Grupo 129" transform="translate(0 -45.903)" clip-path="url(#clip-path)">
      <g id="Grupo_126" data-name="Grupo 126" transform="translate(15.356 23.119)">
        <path id="Caminho_78" data-name="Caminho 78" d="M.066.942-1.25-.372-1.127-.5A3.15,3.15,0,0,1,1.427-1.655H16.3c.921-.31,6.162-5.385,7.393-6.762a59.264,59.264,0,0,0,4.612-7.246,3.615,3.615,0,0,0-2.693-.326c-1.36.31-2.223,1.209-3.431,3.564a.943.943,0,0,1-.4.4L17.394-9.75,16.539-11.4l4.129-2.138c1.195-2.273,2.4-3.774,4.526-4.259a4.88,4.88,0,0,1,4.988,1.357.926.926,0,0,1,.112.93A55.833,55.833,0,0,1,25.084-7.18C25.016-7.1,18.147.2,16.3.2H1.427A1.356,1.356,0,0,0,.234.765Z" transform="translate(1.25 17.971)" fill="#fff"/>
      </g>
      <g id="Grupo_127" data-name="Grupo 127" transform="translate(7.231 26.296)">
        <path id="Caminho_79" data-name="Caminho 79" d="M1.18.445H-7.925a.929.929,0,0,1-.929-.929.929.929,0,0,1,.929-.929H1.18c1.454,0,2.106-.8,2.106-1.6s-.651-1.6-2.106-1.6H-4.89A3.713,3.713,0,0,1-6.94-5.643a4.34,4.34,0,0,0-1.712-.985h-5.059a6.244,6.244,0,0,0-3.412,1.769c-1.5,1.5-4.106,3.975-4.106,3.975l-1.28-1.346s2.582-2.454,4.094-3.965a7.9,7.9,0,0,1,4.7-2.292h5.059A5.075,5.075,0,0,1-5.812-7.121a5.32,5.32,0,0,0,.981.659L1.18-6.467c2.6,0,3.966,1.74,3.966,3.456S3.783.445,1.18.445" transform="translate(22.509 8.487)" fill="#fff"/>
      </g>
      <g id="Grupo_128" data-name="Grupo 128" transform="translate(0 30.3)">
        <path id="Caminho_80" data-name="Caminho 80" d="M.6.9A.923.923,0,0,1-.058.625l-11.08-11.079a.929.929,0,0,1-.008-1.305l4.941-5.072a.99.99,0,0,1,.665-.282.929.929,0,0,1,.657.273L6.328-5.628a.925.925,0,0,1,.273.662.935.935,0,0,1-.282.661L1.247.634A.927.927,0,0,1,.6.9M-9.176-11.12.608-1.337,4.348-4.98l-9.88-9.879Z" transform="translate(11.41 17.113)" fill="#fff"/>
      </g>
    </g>
    <g id="Grupo_130" data-name="Grupo 130" transform="translate(5.234 -10.28)">
      <path id="Caminho_82" data-name="Caminho 82" d="M.106.167l-2.135-2,1.27-1.358,2.135,2Z" transform="translate(2.029 3.192)" fill="#fff"/>
    </g>
    <g id="Grupo_134" data-name="Grupo 134" transform="translate(0 -45.903)" clip-path="url(#clip-path)">
      <g id="Grupo_131" data-name="Grupo 131" transform="translate(20.824 18.153)">
        <path id="Caminho_83" data-name="Caminho 83" d="M.758.345A.929.929,0,0,1-.171-.584V-1.6c0-2.34-4.266-3.128-6.212-3.128S-12.6-3.938-12.6-1.6V-.584a.929.929,0,0,1-.929.929.929.929,0,0,1-.929-.929V-1.6c0-3.657,4.827-4.986,8.071-4.986S1.687-5.256,1.687-1.6V-.584A.929.929,0,0,1,.758.345" transform="translate(14.454 6.585)" fill="#fff"/>
      </g>
      <g id="Grupo_132" data-name="Grupo 132" transform="translate(23.895 6.007)">
        <path id="Caminho_84" data-name="Caminho 84" d="M.249.552a5.066,5.066,0,0,1-5-5.119V-5.4a5.065,5.065,0,0,1,5-5.118,5.065,5.065,0,0,1,5,5.118v.831a5.066,5.066,0,0,1-5,5.119m0-9.21A3.206,3.206,0,0,0-2.892-5.4v.831A3.206,3.206,0,0,0,.249-1.307a3.206,3.206,0,0,0,3.142-3.26V-5.4A3.206,3.206,0,0,0,.249-8.658" transform="translate(4.751 10.517)" fill="#fff"/>
      </g>
      <g id="Grupo_133" data-name="Grupo 133" transform="translate(12.815 0)">
        <path id="Caminho_85" data-name="Caminho 85" d="M.149,1.23A.93.93,0,0,1-.658.765,16.272,16.272,0,0,1-2.833-7.351a16.11,16.11,0,0,1,16.079-16.1,16.11,16.11,0,0,1,16.079,16.1,16.191,16.191,0,0,1-.735,4.8.925.925,0,0,1-1.164.611.929.929,0,0,1-.611-1.163,14.337,14.337,0,0,0,.651-4.245A14.249,14.249,0,0,0,13.246-21.6,14.249,14.249,0,0,0-.974-7.351,14.409,14.409,0,0,0,.953-.164.931.931,0,0,1,.612,1.107a.937.937,0,0,1-.463.123" transform="translate(2.833 23.454)" fill="#fff"/>
      </g>
    </g>
  </g>
</svg>
