<svg id="Grupo_555" data-name="Grupo 555" xmlns="http://www.w3.org/2000/svg" xmlns:xlink="http://www.w3.org/1999/xlink" width="108.806" height="48.318" viewBox="0 0 108.806 48.318">
  <defs>
    <clipPath id="clip-path">
      <path id="Caminho_447" data-name="Caminho 447" d="M0,14.759H108.806V-33.559H0Z" transform="translate(0 33.559)" fill="none"/>
    </clipPath>
  </defs>
  <path id="Caminho_442" data-name="Caminho 442" d="M0,14.758H48.806V-33.558H0Z" transform="translate(0 33.559)" fill="#f79b28"/>
  <g id="Grupo_559" data-name="Grupo 559" transform="translate(0 0)" clip-path="url(#clip-path)">
    <g id="Grupo_555-2" data-name="Grupo 555" transform="translate(3.497 4.05)">
      <path id="Caminho_443" data-name="Caminho 443" d="M0,.54V2.249H.014l1.16-1.192h.014V8.515H2.845V-1.228H1.523Zm3.774,0V2.249h.014L4.95,1.057h.013V8.515H6.619V-1.228H5.3ZM4.9,31.507h7.341a.18.18,0,0,0,.18-.179.172.172,0,0,0-.048-.118l-.01-.012L8.711,26.521l-.035-.039a.189.189,0,0,0-.134-.059.191.191,0,0,0-.118.046L8.4,26.5l-.035.037L4.8,31.163l-.055.065a.178.178,0,0,0,.15.279m7.32.659H4.862a.18.18,0,0,0-.18.179v5.7a.179.179,0,0,0,.18.179H7.231V34.637a.178.178,0,0,1,.177-.179h2.2a.179.179,0,0,1,.18.179v3.585h2.432a.179.179,0,0,0,.18-.179v-5.7a.18.18,0,0,0-.18-.179m25.424-1.492H30.362a.175.175,0,0,0-.179.171v7.278a.176.176,0,0,0,.179.171h7.281a.175.175,0,0,0,.179-.171V30.846a.174.174,0,0,0-.179-.171m-3.984,4.751a.176.176,0,0,1-.179.173H31.307a.177.177,0,0,1-.18-.173V34.117a.176.176,0,0,1,.18-.171h2.174a.174.174,0,0,1,.179.171Zm0-2.419a.176.176,0,0,1-.179.173H31.307a.177.177,0,0,1-.18-.173V31.7a.176.176,0,0,1,.18-.171h2.174a.174.174,0,0,1,.179.171Zm3.324,2.419a.176.176,0,0,1-.179.173H34.631a.176.176,0,0,1-.179-.173V34.117a.174.174,0,0,1,.179-.171h2.174a.174.174,0,0,1,.179.171Zm0-2.419a.176.176,0,0,1-.179.173H34.631a.176.176,0,0,1-.179-.173V31.7a.174.174,0,0,1,.179-.171h2.174a.174.174,0,0,1,.179.171ZM20.719,13.78H13.593a.175.175,0,0,0-.174.174v24.1a.175.175,0,0,0,.174.173h7.126a.175.175,0,0,0,.174-.173v-24.1a.175.175,0,0,0-.174-.174M16.48,35.487a.094.094,0,0,1-.094.092H14.755a.093.093,0,0,1-.094-.092v-1.8a.092.092,0,0,1,.094-.091h1.631a.093.093,0,0,1,.094.091Zm0-4.134a.093.093,0,0,1-.094.092H14.755a.092.092,0,0,1-.094-.092v-1.8a.093.093,0,0,1,.094-.094h1.631a.094.094,0,0,1,.094.094Zm0-4.134a.094.094,0,0,1-.094.094H14.755a.093.093,0,0,1-.094-.094v-1.8a.092.092,0,0,1,.094-.092h1.631a.093.093,0,0,1,.094.092Zm0-4.134a.094.094,0,0,1-.094.094H14.755a.093.093,0,0,1-.094-.094v-1.8a.093.093,0,0,1,.094-.092h1.631a.094.094,0,0,1,.094.092Zm0-4.132a.094.094,0,0,1-.094.092H14.755a.093.093,0,0,1-.094-.092v-1.8a.093.093,0,0,1,.092-.094h1.633a.094.094,0,0,1,.094.094Zm3.2,16.533a.093.093,0,0,1-.094.092H17.954a.093.093,0,0,1-.094-.092h0v-1.8a.092.092,0,0,1,.094-.091h1.631a.092.092,0,0,1,.094.091Zm0-4.134a.092.092,0,0,1-.094.092H17.954a.092.092,0,0,1-.094-.092v-1.8a.093.093,0,0,1,.094-.094h1.631a.093.093,0,0,1,.094.094Zm0-4.134a.093.093,0,0,1-.094.094H17.954a.093.093,0,0,1-.094-.094h0v-1.8a.092.092,0,0,1,.094-.092h1.631a.092.092,0,0,1,.094.092Zm0-4.134a.093.093,0,0,1-.094.094H17.954a.093.093,0,0,1-.094-.092h0v-1.8a.093.093,0,0,1,.094-.092h1.631a.093.093,0,0,1,.094.092Zm0-4.132a.093.093,0,0,1-.094.092H17.954a.093.093,0,0,1-.094-.092v-1.8a.093.093,0,0,1,.094-.094h1.631a.093.093,0,0,1,.094.094ZM37.813,29.942a.145.145,0,0,1-.145.145H30.339a.145.145,0,0,1-.147-.144h0v-1.45a.145.145,0,0,1,.147-.145h7.327a.145.145,0,0,1,.147.145ZM29.324,18.333a.184.184,0,0,0-.179-.134.18.18,0,0,0-.1.033.068.068,0,0,0-.013.009l-.06.075-7,8.794-.032.043a.2.2,0,0,0-.06.137V38.1a.174.174,0,0,0,.174.173h7.118a.172.172,0,0,0,.174-.171h0V18.4a.16.16,0,0,0-.017-.072m-2.947,4.776.049-.062c.479-.609,1.287-1.592,1.68-2.07l.052-.062a.211.211,0,0,1,.157-.073.2.2,0,0,1,.194.161v2.226a.2.2,0,0,1-.193.2H26.531a.2.2,0,0,1-.194-.2.2.2,0,0,1,.04-.12M25.268,35.425a.173.173,0,0,1-.174.173H22.97a.172.172,0,0,1-.174-.171h0V34.109a.172.172,0,0,1,.174-.171h2.124a.172.172,0,0,1,.174.171Zm0-2.43a.172.172,0,0,1-.173.171H22.97a.172.172,0,0,1-.174-.171h0V31.677a.172.172,0,0,1,.174-.171h2.124a.172.172,0,0,1,.174.171Zm0-2.432a.172.172,0,0,1-.174.171H22.97a.172.172,0,0,1-.174-.171h0V29.245a.172.172,0,0,1,.174-.171h2.124a.172.172,0,0,1,.174.171Zm.006-5.329v2.9a.174.174,0,0,1-.174.173H22.976a.171.171,0,0,1-.174-.171h0v-.364a.173.173,0,0,1,.013-.065.13.13,0,0,1,.01-.02l.016-.023.02-.027c.271-.384,1.5-1.879,2.01-2.5l.052-.062a.2.2,0,0,1,.157-.073.2.2,0,0,1,.194.161Zm3.241,10.191a.174.174,0,0,1-.174.173H26.217a.174.174,0,0,1-.176-.171h0V34.109a.174.174,0,0,1,.176-.171h2.124a.173.173,0,0,1,.174.171Zm0-2.43a.174.174,0,0,1-.174.171H26.217a.173.173,0,0,1-.176-.171h0V31.677a.174.174,0,0,1,.176-.171h2.124a.173.173,0,0,1,.174.171Zm0-2.432a.174.174,0,0,1-.174.171H26.217a.174.174,0,0,1-.176-.171V29.245a.174.174,0,0,1,.176-.171h2.124a.173.173,0,0,1,.174.171Zm0-2.432a.174.174,0,0,1-.174.171H26.217a.173.173,0,0,1-.176-.171V26.815a.174.174,0,0,1,.176-.173h2.124a.174.174,0,0,1,.174.173Zm0-2.432a.174.174,0,0,1-.174.171H26.217a.173.173,0,0,1-.176-.171h0V24.383a.173.173,0,0,1,.176-.173h2.124a.174.174,0,0,1,.174.173Z" transform="translate(0 1.228)" fill="#fff"/>
    </g>
    <g id="Grupo_556" data-name="Grupo 556" transform="translate(13.359 3.388)">
      <path id="Caminho_444" data-name="Caminho 444" d="M0,.909V-1A.935.935,0,0,1,1-2.067c.741,0,.947.407.947.991v.465H1.336V-1.13c0-.245-.084-.384-.324-.384s-.341.17-.341.407V1.014c0,.239.1.407.341.407s.324-.151.324-.384V.309h.612V.991c0,.564-.236.983-.947.983A.937.937,0,0,1,0,.909m2.248-2.93h.671V1.928H2.248Zm3,1.061V.869c0,.6-.253,1.06-.97,1.06H3.242V-2.021H4.278c.717,0,.97.449.97,1.061M4.2,1.387c.276,0,.382-.164.382-.4V-1.082a.348.348,0,0,0-.382-.4H3.912V1.387Zm1.264.541.753-3.949h.766l.759,3.949H7.049l-.124-.723H6.213L6.1,1.928ZM6.3.676h.536L6.573-.908H6.567ZM9.955-.96V.869c0,.6-.252,1.06-.97,1.06H7.949V-2.021H8.984c.718,0,.97.449.97,1.061M8.9,1.387a.35.35,0,0,0,.383-.4V-1.082a.349.349,0,0,0-.383-.4H8.62V1.387Zm1.371-3.408h1.6v.543h-.93V-.349h.665V.186h-.665v1.2h.93v.541h-1.6Zm1.853,3.1V.548h.625v.541c0,.222.1.35.328.35.213,0,.307-.14.307-.35V.938a.71.71,0,0,0-.3-.559l-.395-.39a1.326,1.326,0,0,1-.559-1.054V-1.2a.828.828,0,0,1,.94-.868c.671,0,.936.327.936.9v.32H13.4v-.343c0-.227-.105-.338-.318-.338a.293.293,0,0,0-.317.327v.081c0,.222.124.35.317.537l.43.419A1.323,1.323,0,0,1,14.051.857v.191a.86.86,0,0,1-.978.926.827.827,0,0,1-.947-.9m2.76-3.1h1.6v.543h-.93V-.349h.665V.186h-.665v1.2h.93v.541h-1.6Z" transform="translate(0 2.067)" fill="#fff"/>
    </g>
    <g id="Grupo_557" data-name="Grupo 557" transform="translate(13.441 8.286)">
      <path id="Caminho_445" data-name="Caminho 445" d="M0,.909V-1A.935.935,0,0,1,1-2.067c.741,0,.947.407.947.991v.465H1.336V-1.13c0-.245-.084-.384-.324-.384s-.341.17-.341.407V1.014c0,.239.1.407.341.407s.324-.151.324-.384V.309h.612V.991c0,.564-.236.983-.947.983A.937.937,0,0,1,0,.909m2.371,0V-1A.943.943,0,0,1,3.384-2.067.945.945,0,0,1,4.4-1V.909A.948.948,0,0,1,3.384,1.974.946.946,0,0,1,2.371.909m1.359.105V-1.107c0-.239-.107-.407-.347-.407s-.341.168-.341.407V1.014c0,.239.105.407.341.407s.347-.168.347-.407M6.689-.634H6.672L6.218,1.928H5.907l-.5-2.563H5.395V1.928H4.842V-2.021h.783L6.06.2h.006l.389-2.226H7.3V1.928H6.689Zm3-1.387V.967c0,.612-.265,1.008-.947,1.008a.9.9,0,0,1-1-1.008V-2.021h.671V1.031c0,.233.094.39.33.39s.328-.157.328-.39V-2.021Zm1,1.469V1.928h-.564V-2.021h.659L11.514.245V-2.021h.56V1.928h-.589Zm1.818-1.469h.671V1.928h-.671ZM15.633-.96V.869c0,.6-.253,1.06-.97,1.06H13.628V-2.021h1.035c.717,0,.97.449.97,1.061M14.581,1.387c.276,0,.382-.164.382-.4V-1.082a.348.348,0,0,0-.382-.4H14.3V1.387Zm1.388.541.753-3.949h.765l.76,3.949h-.69l-.122-.723h-.713l-.118.723ZM16.81.676h.536L17.08-.908h-.006ZM20.588-.96V.869c0,.6-.253,1.06-.97,1.06H18.58V-2.021h1.037c.717,0,.97.449.97,1.061M19.534,1.387a.35.35,0,0,0,.383-.4V-1.082a.349.349,0,0,0-.383-.4h-.282V1.387Zm1.5-3.408h1.6v.541H21.7v1.13h.665V.186H21.7v1.2h.93v.541h-1.6Zm1.983,3.1V.548h.623v.541c0,.222.1.35.33.35.212,0,.305-.14.305-.35V.938a.708.708,0,0,0-.3-.559l-.395-.39a1.326,1.326,0,0,1-.559-1.054V-1.2a.828.828,0,0,1,.942-.868c.67,0,.934.327.934.9v.32h-.612v-.343c0-.227-.105-.338-.317-.338a.293.293,0,0,0-.318.327v.081c0,.222.124.35.318.536l.429.42A1.323,1.323,0,0,1,24.936.857v.191a.859.859,0,0,1-.976.926.827.827,0,0,1-.947-.9" transform="translate(0 2.067)" fill="#fff"/>
    </g>
    <g id="Grupo_558" data-name="Grupo 558" transform="translate(13.405 12.998)">
      <path id="Caminho_446" data-name="Caminho 446" d="M0,1.172V.643H.623v.541c0,.222.1.35.33.35.212,0,.307-.14.307-.35V1.033a.71.71,0,0,0-.3-.559L.564.084A1.331,1.331,0,0,1,.006-.971v-.134a.828.828,0,0,1,.942-.867c.671,0,.936.325.936.9v.32H1.271V-1.1c0-.226-.107-.337-.318-.337a.293.293,0,0,0-.318.325v.082c0,.222.124.35.318.536l.429.419A1.321,1.321,0,0,1,1.924.951v.193a.859.859,0,0,1-.976.926A.827.827,0,0,1,0,1.172m4.278-3.1V1.062c0,.612-.265,1.008-.947,1.008a.9.9,0,0,1-1-1.008V-1.926H3V1.126c0,.232.1.39.33.39s.33-.158.33-.39V-1.926Zm.406,3.1V.643h.623v.541c0,.222.1.35.33.35.212,0,.307-.14.307-.35V1.033a.71.71,0,0,0-.3-.559L5.248.084A1.331,1.331,0,0,1,4.689-.971v-.134a.828.828,0,0,1,.942-.867c.671,0,.936.325.936.9v.32H5.955V-1.1c0-.226-.107-.337-.318-.337a.293.293,0,0,0-.318.325v.082c0,.222.124.35.318.536l.429.419A1.321,1.321,0,0,1,6.607.951v.193a.859.859,0,0,1-.976.926.827.827,0,0,1-.947-.9m2.253-3.1H8.719v.541H8.166V2.023H7.49V-1.385H6.937Zm2.154,0h1.6v.541H9.762v1.13h.664V.281H9.762v1.2h.929v.543h-1.6ZM11.668-.459V2.023H11.1V-1.926h.658L12.486.34V-1.926h.559V2.023h-.589Zm1.741-1.467h1.784v.541h-.554V2.023h-.675V-1.385h-.554Zm2.049,3.949.753-3.949h.765l.759,3.949h-.688L16.922,1.3h-.711l-.118.723Zm1.682-4.229-1.052.134v-.373l1.052-.222ZM16.3.771h.536L16.569-.813h-.006Zm3.918-2.7-.759,3.949h-.729L17.97-1.926h.682L19.11.828h.006l.471-2.754Zm.337,0h1.6v.541h-.93v1.13h.665V.281h-.665v1.2h.93v.543h-1.6Zm2.011,0h.671V2.023h-.671Zm1.083,3.1V.643h.623v.541c0,.222.1.35.33.35.212,0,.307-.14.307-.35V1.033a.71.71,0,0,0-.3-.559l-.395-.39a1.331,1.331,0,0,1-.559-1.055v-.134a.828.828,0,0,1,.942-.867c.671,0,.936.325.936.9v.32h-.612V-1.1c0-.226-.107-.337-.318-.337a.293.293,0,0,0-.318.325v.082c0,.222.124.35.318.536l.429.419A1.321,1.321,0,0,1,25.571.951v.193a.859.859,0,0,1-.976.926.827.827,0,0,1-.947-.9" transform="translate(0 2.666)" fill="#fff"/>
    </g>
  </g>
  <path id="Caminho_448" data-name="Caminho 448" d="M42.014,14.758H90.329V-33.558H42.014Z" transform="translate(18.477 33.559)" fill="#00689e"/>
  <g id="Grupo_564" data-name="Grupo 564" transform="translate(0 0)" clip-path="url(#clip-path)">
    <g id="Grupo_560" data-name="Grupo 560" transform="translate(64.208 3.939)">
      <path id="Caminho_449" data-name="Caminho 449" d="M0,.575V2.284H.014L1.163,1.092h.016V8.548H2.816V-1.193H1.509ZM8.549,6.207V4.77c0-1.6-.632-2.4-1.81-2.4a1.4,1.4,0,0,0-1.351.79H5.375v-2.1c0-.589.186-1,.776-1s.762.344.762.947v.648H8.405V1.135c0-1.437-.472-2.442-2.284-2.442C4.4-1.307,3.751-.2,3.751,1.322V6.063c0,1.509.661,2.6,2.386,2.6A2.151,2.151,0,0,0,8.549,6.207m-1.624.144c0,.618-.229.976-.789.976s-.762-.373-.762-.976V4.569c.029-.546.258-.89.776-.89.559,0,.775.344.775.976ZM30.1,11.229a2.061,2.061,0,0,0-.4,1.46,2.066,2.066,0,0,0,.985,1.149,2.058,2.058,0,0,0,.395-1.46,2.049,2.049,0,0,0-.983-1.149m-.907,4.223a2.062,2.062,0,0,0,.393-1.461,2.055,2.055,0,0,0-.983-1.148,2.059,2.059,0,0,0-.4,1.459,2.066,2.066,0,0,0,.986,1.15m2.288-.792a1.83,1.83,0,0,0,1.258.533,1.911,1.911,0,0,0,1.166-.749,1.833,1.833,0,0,0-1.258-.533,1.911,1.911,0,0,0-1.166.749m.963-3.169a2.219,2.219,0,0,0-.468,1.532,2.117,2.117,0,0,0,1.507-.469,2.213,2.213,0,0,0,.468-1.53,2.119,2.119,0,0,0-1.507.468m-1.2,5.368a1.908,1.908,0,0,0,1.294-.494,1.83,1.83,0,0,0-1.12-.78,1.919,1.919,0,0,0-1.3.5,1.836,1.836,0,0,0,1.122.779m.6,11.593H26.849a.705.705,0,1,0,0,1.411h4.987a.705.705,0,1,0,0-1.411m0,7.778H26.849a.705.705,0,1,0,0,1.411h4.987a.705.705,0,0,0,0-1.411h0M9.4,26.739a3.3,3.3,0,0,0-.346-.089s.127.04.346.089" transform="translate(0 1.307)" fill="#fff"/>
    </g>
    <g id="Grupo_561" data-name="Grupo 561" transform="translate(71.104 18.484)">
      <path id="Caminho_450" data-name="Caminho 450" d="M7.562,5.229H2.94a.4.4,0,0,0-.4.4v1.4l-3.018.331-4.407-.1V4.568a12.17,12.17,0,0,0,1.754-.356A6.734,6.734,0,0,0,1.943-2.921c-.092-2.472.7-3.431,1.836-3.859a5.147,5.147,0,0,1,.942-.249,7.612,7.612,0,0,0,.407,2.154c.1-.006.2-.014.3-.024a7.136,7.136,0,0,1-.415-2.173,5.3,5.3,0,0,1,1-.03,6.429,6.429,0,0,1-.957-.682,4.788,4.788,0,0,1,1.607-2.623,8.69,8.69,0,0,0,1.124-1.32l-.251-.161a8.386,8.386,0,0,1-1.087,1.273A5.183,5.183,0,0,0,4.806-8a9.661,9.661,0,0,1-.726-.731C3.034-9.909,1.688-9.047-.233-7.259s-4.34,1.849-6.7-.566c-3.114-3.188-5.83-3.17-7.693-2.989,1.274.543,1.721,1.734,2.366,4.76.675,3.175,2.38,4.612,4.711,4.81-1.3.458-1.361,1.191-3.1,2.39a5.417,5.417,0,0,1-4.04.465c1.421.443,3.1,1.934,4.61,2.452a11.117,11.117,0,0,0,2.747.563V7.205l-7.9-.181v1.8L-.479,8.485l3.018.333v1.4a.4.4,0,0,0,.4.4H7.562a.4.4,0,0,0,.4-.4V5.63a.4.4,0,0,0-.4-.4M-6.6,4.664q.492.009.989-.026V7.244L-6.6,7.221Zm-9.055,3.862a.645.645,0,0,1-.59.687H-16.6a.646.646,0,0,1-.592-.687V7.282A.645.645,0,0,1-16.6,6.6h.356a.643.643,0,0,1,.59.685Z" transform="translate(17.195 11.889)" fill="#fff"/>
    </g>
    <g id="Grupo_562" data-name="Grupo 562" transform="translate(75.917 3.099)">
      <path id="Caminho_451" data-name="Caminho 451" d="M0,.014H.985c.67,0,.914.333.914.885v.832c0,.554-.245.891-.914.891H.664v1.34H0ZM.664.555V2.11H.909a.285.285,0,0,0,.327-.325V.877c0-.216-.1-.321-.327-.321Zm1.41,3.408L2.819.014h.757l.752,3.949H3.646l-.122-.723h-.7L2.7,3.963Zm.834-1.253h.53L3.175,1.127H3.169Zm2.282.71H6.2v.543H4.5V3.421L5.539.555H4.6V.014H6.237V.555ZM7.2,3.38l-.338.891H6.495l.081-.943H7.2ZM9.838.014V3.066a.822.822,0,0,1-.916.943c-.687,0-.873-.379-.873-.88V2.344h.629v.8c0,.2.069.315.243.315s.251-.117.251-.321V.014Zm2.242,0V3c0,.612-.262,1.008-.937,1.008A.891.891,0,0,1,10.152,3V.014h.664V3.066c0,.232.094.39.327.39s.325-.158.325-.39V.014Zm.279,3.1v-.53h.618v.541c0,.222.1.35.327.35.209,0,.3-.14.3-.35V2.973a.713.713,0,0,0-.3-.559l-.39-.39A1.334,1.334,0,0,1,12.365.969V.835A.824.824,0,0,1,13.3-.032c.664,0,.926.325.926.9v.32h-.606V.841C13.618.614,13.512.5,13.3.5a.291.291,0,0,0-.315.325V.911c0,.222.122.35.315.536l.425.419a1.326,1.326,0,0,1,.536,1.025v.193a.855.855,0,0,1-.966.926.823.823,0,0,1-.939-.9M14.48.014h1.765V.555H15.7V3.963h-.67V.555H14.48Zm2.016,0h.664V3.963H16.5Zm1.689,4.351c.186-.006.215-.048.215-.094s-.035-.065-.092-.065h-.03V3.992c-.564-.071-.8-.5-.8-1.048V1.033A.931.931,0,0,1,18.47-.032c.734,0,.937.407.937.989v.466h-.6V.905c0-.245-.082-.384-.321-.384s-.338.168-.338.407V3.048c0,.239.1.409.338.409s.321-.153.321-.384V2.344h.6v.681c0,.554-.222.962-.88.985v.052c.158.023.245.082.245.21,0,.18-.168.279-.587.279Zm1.421-.4L20.35.014h.757l.752,3.949h-.681l-.122-.723H20.35l-.115.723Zm.832-1.253h.53l-.262-1.584H20.7Zm2.19-2.7h1.585V.555h-.921v1.13h.658v.536h-.658v1.2h.921v.543H22.628Z" transform="translate(0 0.032)" fill="#fff"/>
    </g>
    <path id="Caminho_452" data-name="Caminho 452" d="M52.744-27.571h.664v3.949h-.664ZM54.4-26.1v2.482h-.559v-3.949H54.5l.716,2.266v-2.266h.554v3.949h-.583Zm1.759,1.631V-25h.618v.541c0,.222.1.35.325.35.21,0,.3-.14.3-.35v-.151a.709.709,0,0,0-.3-.559l-.39-.39a1.332,1.332,0,0,1-.553-1.055v-.134a.823.823,0,0,1,.932-.867c.664,0,.926.325.926.9v.32H57.42v-.344c0-.226-.1-.337-.314-.337a.291.291,0,0,0-.314.325v.082c0,.222.122.35.314.536l.425.419a1.326,1.326,0,0,1,.536,1.025v.193a.855.855,0,0,1-.966.926.822.822,0,0,1-.937-.9m2.23-3.1h1.765v.541h-.547v3.408h-.671v-3.408h-.547Zm2.127,0h.664v3.949H60.52Zm1.025,0h1.764v.541h-.547v3.408h-.67v-3.408h-.547Zm4.053,0v2.988c0,.612-.262,1.008-.937,1.008a.891.891,0,0,1-.991-1.008v-2.988h.664v3.052c0,.232.094.39.327.39s.325-.158.325-.39v-3.052Zm.426,0h.664v3.949h-.664Zm1.8,4.351c.186-.006.215-.048.215-.094s-.035-.063-.092-.063h-.03v-.216c-.564-.071-.8-.5-.8-1.048v-1.911a.931.931,0,0,1,.991-1.065c.734,0,.937.407.937.989v.466h-.606v-.518c0-.245-.081-.384-.32-.384s-.338.168-.338.407v2.121c0,.238.1.407.338.407s.32-.151.32-.384v-.729h.606v.681c0,.554-.222.962-.88.985v.052c.158.024.245.082.245.21,0,.18-.168.279-.587.279Zm1.636-1.421v-1.911a.94.94,0,0,1,1-1.065.941.941,0,0,1,1.008,1.065v1.911a.944.944,0,0,1-1.008,1.065.943.943,0,0,1-1-1.065m.4-3.087c.012-.274.117-.5.409-.5.168,0,.308.1.4.1a.078.078,0,0,0,.081-.088h.327c-.012.274-.117.5-.407.5-.17,0-.31-.1-.4-.1a.078.078,0,0,0-.082.088Zm.95,3.192v-2.121c0-.239-.105-.407-.344-.407s-.338.168-.338.407v2.121c0,.238.105.407.338.407s.344-.17.344-.407M71.9-27.571h1.585v.541h-.92v1.13h.658v.536h-.658v1.2h.92v.543H71.9Zm1.958,3.1V-25h.616v.541c0,.222.1.35.327.35.209,0,.3-.14.3-.35v-.151a.709.709,0,0,0-.3-.559l-.39-.39a1.332,1.332,0,0,1-.553-1.055v-.134a.823.823,0,0,1,.932-.867c.664,0,.926.325.926.9v.32h-.606v-.344c0-.226-.1-.337-.314-.337a.29.29,0,0,0-.314.325v.082c0,.222.121.35.314.536l.425.419a1.326,1.326,0,0,1,.536,1.025v.193a.855.855,0,0,1-.966.926.822.822,0,0,1-.937-.9" transform="translate(23.196 35.906)" fill="#fff"/>
    <g id="Grupo_563" data-name="Grupo 563" transform="translate(75.94 13.694)">
      <path id="Caminho_453" data-name="Caminho 453" d="M0,.014H1.584V.555H.664v1.13h.658v.536H.664v1.2h.92v.543H0Zm1.985,0H3.54V.555h-.89v1.13h.664v.536H2.651V3.963H1.987V.014Zm1.9,0h.664V3.963H3.885Zm1.1,2.93V1.033A.931.931,0,0,1,5.975-.032c.734,0,.939.407.939.989v.466H6.308V.905c0-.245-.082-.384-.32-.384S5.65.689,5.65.928V3.048c0,.239.1.409.338.409s.32-.153.32-.384V2.344h.606v.681c0,.566-.233.985-.939.985A.934.934,0,0,1,4.986,2.944ZM7.222,3.963,7.968.014h.757l.752,3.949H8.794l-.122-.723h-.7l-.117.723Zm.834-1.253h.53L8.323,1.127H8.318Zm2.393.71h1.008v.543h-1.7V3.421L10.8.555H9.861V.014H11.5V.555ZM11.894.014h1.584V.555h-.92v1.13h.658v.536h-.658v1.2h.92v.543H11.894Zm1.957,3.1v-.53h.618v.541c0,.222.1.35.325.35.21,0,.3-.14.3-.35V2.973a.711.711,0,0,0-.3-.559l-.39-.39A1.332,1.332,0,0,1,13.857.969V.835a.823.823,0,0,1,.932-.867c.664,0,.926.325.926.9v.32h-.6V.841C15.109.614,15,.5,14.794.5a.291.291,0,0,0-.314.325V.911c0,.222.122.35.314.536l.426.419a1.331,1.331,0,0,1,.536,1.025v.193a.856.856,0,0,1-.968.926.822.822,0,0,1-.937-.9" transform="translate(0 0.032)" fill="#fff"/>
    </g>
  </g>
</svg>
