<svg id="Grupo_579" data-name="Grupo 579" xmlns="http://www.w3.org/2000/svg" xmlns:xlink="http://www.w3.org/1999/xlink" width="168.681" height="49.665" viewBox="0 0 168.681 49.665">
  <defs>
    <clipPath id="clip-path">
      <path id="Caminho_476" data-name="Caminho 476" d="M0,15.02H168.681V-34.645H0Z" transform="translate(0 34.645)" fill="none"/>
    </clipPath>
  </defs>
  <path id="Caminho_472" data-name="Caminho 472" d="M0,13.546H48.106V-34.561H0Z" transform="translate(0 34.681)" fill="#5bba47"/>
  <g id="Grupo_582" data-name="Grupo 582" transform="translate(0 0)" clip-path="url(#clip-path)">
    <g id="Grupo_579-2" data-name="Grupo 579" transform="translate(3.523 4.145)">
      <path id="Caminho_473" data-name="Caminho 473" d="M0,.532v1.7H.014L1.158,1.047h.014V8.473H2.8v-9.7H1.5ZM6.68,1.848a1.473,1.473,0,0,0-1.373.672H5.293V.1H8.1V-1.227H3.806V4.238H5.293V4.023c0-.572.258-.887.715-.887.5,0,.7.344.7.873V6.355c0,.515-.185.872-.687.872-.558,0-.757-.371-.757-.943V5.068H3.776v1.1c0,1.474.588,2.418,2.246,2.418A2.018,2.018,0,0,0,8.34,6.37V3.994c0-1.531-.787-2.146-1.66-2.146M16.4,27.272a.106.106,0,0,1,.106.106v3.5a.106.106,0,0,1-.106.106H14.981a.106.106,0,0,1-.106-.106h0v-3.5a.106.106,0,0,1,.106-.106Zm15.567,5.22H8.606a.11.11,0,0,0-.108.11V34.03a.107.107,0,0,0,.108.1h23.36a.106.106,0,0,0,.106-.1V32.6a.11.11,0,0,0-.106-.11m0,2.838H8.606a.107.107,0,0,0-.108.1v1.432a.108.108,0,0,0,.108.106h23.36a.108.108,0,0,0,.106-.106V35.435a.106.106,0,0,0-.106-.1M27.52,23.395a3.46,3.46,0,0,0-2.02-.761,2.7,2.7,0,0,0-1.877.8.2.2,0,0,0-.063.146V23.7a.2.2,0,0,0,.067.159.184.184,0,0,0,.163.039.156.156,0,0,0,.044-.011.313.313,0,0,0,.118-.073,1.873,1.873,0,0,1,.935-.195,3.53,3.53,0,0,1,2.407,1.008l.022.02a.288.288,0,0,0,.2.085.269.269,0,0,0,.2-.083l.019-.019a3.543,3.543,0,0,1,2.411-1.011,1.878,1.878,0,0,1,.938.195.358.358,0,0,0,.129.079.292.292,0,0,0,.138,0,.2.2,0,0,0,.146-.192V23.6a.205.205,0,0,0-.062-.145,2.713,2.713,0,0,0-1.9-.819,3.425,3.425,0,0,0-2.017.763m-1.449-9.309a.186.186,0,0,0-.1.122l-.024.079a.2.2,0,0,0,.032.175.193.193,0,0,0,.145.079.066.066,0,0,0,.029,0,.249.249,0,0,0,.112-.029A.6.6,0,0,1,26.4,14.5a2.029,2.029,0,0,1,1.67,1.089l.007.016a.243.243,0,0,0,.151.119.289.289,0,0,0,.073.011.25.25,0,0,0,.118-.029l.016-.007a2.327,2.327,0,0,1,1.042-.258,1.582,1.582,0,0,1,1.065.341.282.282,0,0,0,.079.086.414.414,0,0,0,.076.037.133.133,0,0,0,.034,0,.1.1,0,0,0,.02,0,.2.2,0,0,0,.192-.142l.02-.069a.191.191,0,0,0,.007-.057.2.2,0,0,0-.026-.1,1.756,1.756,0,0,0-1.586-.952,2.465,2.465,0,0,0-.84.158,2.044,2.044,0,0,0-1.575-.883,1.94,1.94,0,0,0-.876.222m-4.936,3.592.006.106a.2.2,0,0,0,.095.158.194.194,0,0,0,.156.023l.034-.01a.26.26,0,0,0,.1-.075,1.714,1.714,0,0,1,.892-.2,2.883,2.883,0,0,1,1.846.7l.017.017a.278.278,0,0,0,.179.067h.017a.271.271,0,0,0,.183-.089l.016-.017a2.809,2.809,0,0,1,2.049-.946,1.405,1.405,0,0,1,.609.11.3.3,0,0,0,.12.065.289.289,0,0,0,.086,0,.186.186,0,0,0,.049-.011.2.2,0,0,0,.133-.2l-.006-.092a.2.2,0,0,0-.07-.139,2.3,2.3,0,0,0-1.494-.588,2.78,2.78,0,0,0-1.749.724,2.916,2.916,0,0,0-1.558-.518,2.226,2.226,0,0,0-1.657.766.205.205,0,0,0-.054.149M9.312,19.554a2.534,2.534,0,0,1,2.533-2.533c.054,0,.109,0,.162.009A3.425,3.425,0,1,1,18.5,18.783a3.828,3.828,0,0,1-.83,7.565l-5.111-.03a2.708,2.708,0,0,1-1.973-4.567,2.531,2.531,0,0,1-1.276-2.2" transform="translate(0 1.228)" fill="#fff"/>
    </g>
    <g id="Grupo_580" data-name="Grupo 580" transform="translate(15.282 4.147)">
      <path id="Caminho_474" data-name="Caminho 474" d="M.67,0-.078,3.932H-.8L-1.545,0h.672L-.42,2.742h.006L.049,0ZM1,0h.661V3.932H1ZM4.08,1.055V2.876c0,.6-.249,1.057-.958,1.057H2.1V0H3.123c.708,0,.958.446.958,1.055M3.042,3.392c.272,0,.376-.162.376-.4V.933c0-.232-.1-.394-.376-.394h-.28V3.392Zm1.368.54L5.153,0h.754l.748,3.932h-.68l-.12-.72h-.7l-.116.72Zm.83-1.247h.528L5.507,1.108H5.5Z" transform="translate(1.545)" fill="#fff"/>
    </g>
    <g id="Grupo_581" data-name="Grupo 581" transform="translate(15.299 9.877)">
      <path id="Caminho_475" data-name="Caminho 475" d="M0,.014H1.758V.553H1.211V3.946H.545V.553H0Zm2.053,0H3.63V.553H2.714V1.678h.655v.533H2.714V3.406H3.63v.54H2.053Zm2.58,2.129v1.8H3.972V.014h.963c.667,0,.91.331.91.882v.5c0,.423-.152.672-.528.76l.631,1.786h-.7Zm0-1.59V1.777h.221a.286.286,0,0,0,.324-.325V.873c0-.215-.1-.32-.324-.32Zm2.216,1.59v1.8H6.187V.014h.963c.667,0,.91.331.91.882v.5c0,.423-.151.672-.528.76l.632,1.786h-.7Zm0-1.59V1.777h.219a.287.287,0,0,0,.325-.325V.873c0-.215-.1-.32-.325-.32ZM8.409.014H9.986V.553H9.07V1.678h.655v.533H9.07V3.406h.916v.54H8.409ZM10.294,3.1V2.571h.614V3.11c0,.221.1.348.325.348.208,0,.3-.139.3-.348V2.96a.706.706,0,0,0-.3-.556l-.388-.388A1.326,1.326,0,0,1,10.3.964V.831a.82.82,0,0,1,.928-.863c.661,0,.922.324.922.893v.318h-.6V.837c0-.225-.1-.335-.313-.335a.29.29,0,0,0-.314.324V.907c0,.221.122.348.314.533l.423.417a1.321,1.321,0,0,1,.533,1.021V3.07a.851.851,0,0,1-.962.922.819.819,0,0,1-.933-.893M12.445.014H14.2V.553h-.545V3.946h-.667V.553h-.546ZM15.16,2.143v1.8H14.5V.014h.963c.667,0,.91.331.91.882v.5c0,.423-.151.672-.528.76l.632,1.786h-.7Zm0-1.59V1.777h.219a.287.287,0,0,0,.325-.325V.873c0-.215-.1-.32-.325-.32ZM16.714.014h1.577V.553h-.916V1.678h.655v.533h-.655V3.406h.916v.54H16.714Z" transform="translate(0 0.032)" fill="#fff"/>
    </g>
  </g>
  <path id="Caminho_477" data-name="Caminho 477" d="M42.69,14.984H92.281V-34.562H42.69Z" transform="translate(18.508 34.681)" fill="#19476b"/>
  <g id="Grupo_586" data-name="Grupo 586" transform="translate(0 0)" clip-path="url(#clip-path)">
    <g id="Grupo_583" data-name="Grupo 583" transform="translate(65.728 4.271)">
      <path id="Caminho_478" data-name="Caminho 478" d="M.874,0V9.989H-.808V2.342H-.822L-2,3.565h-.014V1.812L-.468,0Zm.767,0H5.858V1.547l-2.2,8.442H1.994L4.236,1.37H1.641ZM30.854,25.9a6.463,6.463,0,0,0-6.223-6.448,6.46,6.46,0,0,0-12.179,0A6.447,6.447,0,0,0,8.723,30.983a6.455,6.455,0,0,0,9.85,7.113,6.453,6.453,0,0,0,9.8-7.12A6.443,6.443,0,0,0,30.854,25.9M23.7,21.6a5.158,5.158,0,0,1-4.4,5.091,5.1,5.1,0,0,1,4.331-5.883,5.143,5.143,0,0,1,.067.793M18.565,36.424a5.134,5.134,0,0,1-.047-7.341,5.137,5.137,0,0,1,.047,7.341M13.451,20.805a5.1,5.1,0,0,1,4.331,5.883,5.105,5.105,0,0,1-4.331-5.883M17.3,28.2a5.14,5.14,0,0,1-6.977,2.266A5.14,5.14,0,0,1,17.3,28.2m2.473-.036a5.144,5.144,0,0,1,7.011,2.3,5.144,5.144,0,0,1-7.011-2.3M18.541,16.444a5.166,5.166,0,0,1,4.729,3.1,6.483,6.483,0,0,0-4.729,3.627,6.474,6.474,0,0,0-4.728-3.627,5.166,5.166,0,0,1,4.728-3.1M7.531,25.9a5.164,5.164,0,0,1,4.6-5.125,6.618,6.618,0,0,0-.053.826,6.44,6.44,0,0,0,2.109,4.767A6.471,6.471,0,0,0,9.24,29.717,5.133,5.133,0,0,1,7.531,25.9m2.238,6.878a5.155,5.155,0,0,1,.112-1.069,6.45,6.45,0,0,0,5.928-.161,6.341,6.341,0,0,0-.112,1.187,6.425,6.425,0,0,0,1.826,4.487,5.148,5.148,0,0,1-7.754-4.444m17.547-.043a5.151,5.151,0,0,1-7.7,4.476,6.428,6.428,0,0,0,1.773-4.433,6.5,6.5,0,0,0-.12-1.236,6.446,6.446,0,0,0,5.945.162,5.174,5.174,0,0,1,.1,1.031m-4.385-6.407A6.431,6.431,0,0,0,25,21.6a6.548,6.548,0,0,0-.053-.826,5.144,5.144,0,0,1,2.91,8.931,6.474,6.474,0,0,0-4.927-3.377" transform="translate(2.016)" fill="#fff"/>
    </g>
    <g id="Grupo_584" data-name="Grupo 584" transform="translate(75.789 4.212)">
      <path id="Caminho_479" data-name="Caminho 479" d="M0,.014H1.011c.687,0,.938.34.938.907v.854c0,.568-.251.913-.938.913H.681V4.063H0ZM.681.569v1.6H.932a.293.293,0,0,0,.335-.335V.9c0-.222-.1-.33-.335-.33ZM2.044,4.064,2.81.014h.777l.771,4.05h-.7l-.125-.741H2.81l-.119.741ZM2.9,2.78h.543l-.27-1.624H3.168Zm2.271-.573V4.063H4.49V.014h.992c.688,0,.939.34.939.907v.52c0,.436-.156.692-.545.781l.652,1.841H5.81Zm0-1.637v1.26H5.4A.294.294,0,0,0,5.733,1.5V.9c0-.222-.1-.33-.334-.33ZM6.642,3.018V1.059A.955.955,0,0,1,7.658-.033c.753,0,.962.417.962,1.015v.477H8V.927c0-.251-.085-.394-.33-.394s-.345.173-.345.419V3.125c0,.245.1.419.345.419S8,3.389,8,3.149V2.4H8.62v.7c0,.579-.238,1.009-.962,1.009A.959.959,0,0,1,6.642,3.018m2.2-3h1.626V.569H9.523v1.16H10.2v.549H9.523v1.23h.945v.556H8.842Zm2.523,2.192V4.063h-.682V.014h.993c.687,0,.938.34.938.907v.52c0,.436-.155.692-.543.781l.651,1.841H12Zm0-1.637v1.26h.227a.3.3,0,0,0,.335-.334V.9c0-.222-.1-.33-.335-.33ZM12.83.014h.681v4.05H12.83Zm.819,4.05.766-4.05h.777l.771,4.05h-.7l-.126-.741h-.723l-.12.741ZM14.5,2.78h.545l-.27-1.624h-.006Zm1.555.411V2.648h.634V3.2c0,.227.1.358.334.358.215,0,.311-.143.311-.358V3.048a.734.734,0,0,0-.305-.573l-.4-.4A1.363,1.363,0,0,1,16.064.993V.856a.844.844,0,0,1,.956-.889c.681,0,.95.334.95.919v.328h-.622V.863c0-.234-.108-.347-.323-.347A.3.3,0,0,0,16.7.85V.935c0,.227.126.358.323.549l.437.43a1.36,1.36,0,0,1,.549,1.051v.2a.877.877,0,0,1-.992.949.843.843,0,0,1-.962-.92M18.7.014h1.626V.569h-.945v1.16h.675v.549h-.675v1.23h.945v.556H18.7Zm4.19,1.421h-.017l-.462,2.628H22.1l-.509-2.628h-.011V4.063h-.562V.014h.794L22.252,2.3h.006L22.651.014h.862v4.05h-.622ZM23.752.014h1.626V.569h-.945v1.16h.675v.549h-.675v1.23h.945v.556H23.752Zm1.841,0h.681v4.05h-.681Zm.922,3V1.059a1.032,1.032,0,1,1,2.061,0V3.018a1.033,1.033,0,1,1-2.061,0m1.381.108V.952c0-.245-.108-.419-.353-.419S27.2.707,27.2.952V3.125c0,.245.108.419.347.419s.353-.173.353-.419m.885.066V2.648h.634V3.2c0,.227.1.358.335.358.215,0,.31-.143.31-.358V3.048a.732.732,0,0,0-.3-.573l-.4-.4A1.363,1.363,0,0,1,28.786.993V.856a.845.845,0,0,1,.956-.889c.682,0,.95.334.95.919v.328h-.621V.863c0-.234-.108-.347-.323-.347a.3.3,0,0,0-.324.334V.935c0,.227.126.358.324.549l.436.43a1.358,1.358,0,0,1,.55,1.051v.2a.878.878,0,0,1-.993.949.844.844,0,0,1-.962-.92" transform="translate(0 0.033)" fill="#fff"/>
    </g>
    <g id="Grupo_585" data-name="Grupo 585" transform="translate(75.793 9.463)">
      <path id="Caminho_480" data-name="Caminho 480" d="M.626.539V2.445c0,.631-.261,1.1-1,1.1H-1.444V-.564H-.376c.741,0,1,.467,1,1.1M-.461,2.984c.285,0,.394-.169.394-.419V.412A.361.361,0,0,0-.461,0H-.752V2.984ZM.954-.564H2.6V0H1.645V1.176h.687v.559H1.645V2.984H2.6v.565H.954Zm2.519,0h.692V3.548H3.473ZM6.406.879H6.387L5.92,3.548H5.6L5.082.879H5.07V3.548H4.5V-.564h.807l.449,2.317h.007l.4-2.317h.874V3.548H6.4V.879ZM7.365-.564H8.39c.7,0,.953.345.953.922v.867c0,.576-.255.929-.953.929H8.056V3.548H7.365ZM8.056,0v1.62h.255a.3.3,0,0,0,.34-.34V.333c0-.224-.1-.334-.34-.334ZM9.629-.564h.692V2.984h.826v.565H9.629Zm1.766,0h1.651V0h-.959V1.176h.687v.559h-.687V2.984h.959v.565H11.395ZM15.251.879h-.019l-.467,2.669h-.323L13.927.879h-.011V3.548h-.571V-.564h.807l.45,2.317h.006l.4-2.317h.874V3.548h-.631ZM16.21-.564h1.651V0H16.9V1.176h.687v.559H16.9V2.984h.96v.565H16.21ZM18.742.964V3.548h-.583V-.564h.68l.747,2.36V-.564h.578V3.548h-.608ZM20.41-.564H22.25V0h-.571V3.548h-.7V0H20.41ZM22.4,3.548l.777-4.113h.79l.783,4.113h-.711L23.908,2.8h-.735l-.122.753Zm.869-1.3h.552L23.543.594h-.006ZM25.7,3.967c.194-.007.224-.049.224-.1s-.036-.067-.1-.067h-.032V3.578c-.588-.073-.831-.516-.831-1.092V.5A.971.971,0,0,1,26-.613c.766,0,.978.424.978,1.031V.9h-.631V.363c0-.254-.086-.4-.334-.4s-.353.176-.353.424V2.6c0,.249.1.424.353.424s.334-.158.334-.4V1.861h.631v.71c0,.576-.231,1-.916,1.025V3.65c.163.024.254.086.254.219,0,.188-.175.291-.612.291Zm1.475-.419.777-4.113h.788l.784,4.113h-.711L28.685,2.8h-.734l-.122.753Zm.54-4.276c.011-.285.12-.516.424-.516.176,0,.323.1.413.1a.081.081,0,0,0,.085-.09h.341c-.013.284-.122.515-.426.515-.176,0-.321-.1-.413-.1a.081.081,0,0,0-.085.092Zm.327,2.972h.553L28.321.594h-.006Zm1.7.242V.5a1.049,1.049,0,1,1,2.094,0v1.99a1.049,1.049,0,1,1-2.094,0m1.4.109V.387c0-.248-.109-.424-.357-.424s-.353.176-.353.424V2.6c0,.249.109.426.353.426s.357-.176.357-.426" transform="translate(1.444 1.244)" fill="#fff"/>
    </g>
  </g>
  <path id="Caminho_482" data-name="Caminho 482" d="M84.028,13.582h48.223V-34.644H84.028Z" transform="translate(36.43 34.645)" fill="#3f7f44"/>
  <g id="Grupo_591" data-name="Grupo 591" transform="translate(0 0)" clip-path="url(#clip-path)">
    <g id="Grupo_587" data-name="Grupo 587" transform="translate(123.735 3.931)">
      <path id="Caminho_483" data-name="Caminho 483" d="M.85.035V9.754H-.784V2.314H-.8L-1.946,3.5H-1.96V1.8L-.455.035ZM6.24,2.142v.846A1.554,1.554,0,0,1,5.122,4.565a1.494,1.494,0,0,1,1.2,1.649V7.647A2.055,2.055,0,0,1,3.961,9.869c-1.663,0-2.252-.946-2.252-2.423V6.17H3.2V7.561c0,.573.2.946.76.946.5,0,.73-.358.73-.874V6.027c0-.516-.229-.788-.8-.788H3.2V3.991h.616c.53,0,.873-.272.873-.788V2.156c0-.53-.185-.874-.7-.874s-.7.344-.7.946v.989H1.794v-.86C1.794.923,2.384-.08,4.074-.08A1.956,1.956,0,0,1,6.24,2.142m30.7,24.039a22.058,22.058,0,0,0-35.4,0c-.054.076-.1.142-.139.2.039.057.085.123.139.2a22.058,22.058,0,0,0,35.4,0c.049-.066.095-.132.139-.2-.044-.067-.09-.133-.139-.2m-23.659-4.4c.1-.142.416-.545.454-.6a.565.565,0,0,1,.361-.148c.113-.022.264.042.282.128a1.007,1.007,0,0,1-.1.473,1.23,1.23,0,0,1-.79.356c-.173-.026-.241-.161-.208-.212m-.383.758c.017-.02.033-.036.039-.044a1,1,0,0,1,.588-.215c.185-.032.431.062.462.185s-.464.347-.555.431c-.258.237-.659.72-.895.771a.28.28,0,0,1-.192-.02,7.468,7.468,0,0,1,.553-1.108m4,8.2a2.105,2.105,0,0,1-.459.953,1.53,1.53,0,0,1-1.014.388c-.34-.026-.386-.929-.386-1.393,0-.161-.228.315-.345-.651-.076-.619-.473.065-.5-.348s-.226-.33-.436-.588-.466.026-.757.155-.169.2-.581.067c-.01,0-.016-.007-.026-.01a7.411,7.411,0,0,1-.585-2.9c0-.251.014-.5.037-.743a.479.479,0,0,1,.046-.069c.394-.466.384-.575.384-.575l.436-.151a7.212,7.212,0,0,1,1.22.3c.431.162,1.111.528,1.505.367.285-.119.509-.274.483-.512-.033-.3-.268-.37-.552-.169-.1.075-.328-.45-.5-.423s.216.616.069.641-.449-.615-.5-.718-.282-.36-.49-.163c-.439.417-1.151.391-1.294.5-.436.325-.55-.108-.54-.371.017-.06.034-.122.054-.181a.887.887,0,0,1,.829-.092c.192.128.33-.033.406-.112s.049-.2,0-.3.1-.179.195-.2a5.338,5.338,0,0,0,.565-.337,1.845,1.845,0,0,1,1.13-.006.6.6,0,0,0,.744-.151,1.981,1.981,0,0,1,.539-.45c.108-.05-.265-.4-.572-.019s-.464.413-.609.413-1-.214-1.11-.486.268-.475.585-.628a7.835,7.835,0,0,1,1.408-.2c.45-.1,1.026-.325,1.317-.128s-1.213.536-.72.8c.176.1.971-.457,1.243-.6.639-.33-.622-.439-.457-1.11.185-.758-1.547-.464-2.41-.4a7.439,7.439,0,0,1,11.245,4.53,1.207,1.207,0,0,1-.037.344.487.487,0,0,1-.872.067c-.075-.109-.394-.41-.383.1s.5.569.024.879a1.818,1.818,0,0,1-.781.313,1.01,1.01,0,0,0-.38.893c.053.285.733,1.061.228,1.028A2.908,2.908,0,0,1,23.13,27.3c-.155-.411-.324-.813-.443-1.124a.445.445,0,0,0-.7-.206c-.265.182.073.363-.118.751s-.325.733-.6.413c-.727-.833-1.782-.421-1.948-1.349-.089-.5-.522-.453-.883-.738s-.566-.436-.626-.231c-.054.179,1.137,1.124,1.221,1.365.128.36-.356.677-.71.763s-.507-.2-.854-.559-.5-.619-.523-.335a1.631,1.631,0,0,0,.684,1.236c.3.191.638.277.54.586s0,.135-.338.469a.909.909,0,0,0-.378.906c.024.466-.1.492-.169.879s-.239.052-.386.618m7.983-2.967c.249-.02.626.327.479.46a.665.665,0,0,1-.71-.065c-.188-.146.118-.387.231-.4m-.317-.229c-.08-.03-.151-.106-.212-.288a.168.168,0,0,1,.244-.214c.152.077.351.305.351.427s-.3.108-.383.075m-3.284-.011a.673.673,0,0,1-.711-.065c-.188-.146.118-.387.229-.4.251-.023.628.327.482.46m-3.039,1.477c-.1.168-.383,1.419-.571,1.274s.076-1.452.13-1.551c.294-.539.929-.513.44.277m1.012,4.851a7.44,7.44,0,0,1-2.093-.3.31.31,0,0,1-.09-.364,1.658,1.658,0,0,1,1.458-.887c1.207-.118,2.793.784,3.045.638s.764-.809,1.512-.78a1.164,1.164,0,0,1,.678.169,7.41,7.41,0,0,1-4.51,1.524M24.5,31.7a1.424,1.424,0,0,1-.234-.086c-.406-.208-.357.123-.558.05s.226-.538-.374-.146-.436-.06-.7-.723a1.35,1.35,0,0,1,.77-1.59,9.246,9.246,0,0,1,1.352-.357c.893-.224,1.082-.754,1.244-.431.03.062.06.119.087.172a1.191,1.191,0,0,1,.115.486A7.444,7.444,0,0,1,24.5,31.7m2.039-3.757c-.2-.054-1.035-1.21-.374-1.971.109-.125-.222-.492-.13-.5a.6.6,0,0,1,.648.519c.007.142.013.287.013.431a7.474,7.474,0,0,1-.156,1.52" transform="translate(1.96 0.08)" fill="#fff"/>
    </g>
    <g id="Grupo_588" data-name="Grupo 588" transform="translate(135.731 3.36)">
      <path id="Caminho_484" data-name="Caminho 484" d="M0,1.418.76-2.6h.771L2.3,1.418H1.6L1.478.682H.76l-.119.735ZM.849.142h.54L1.121-1.472H1.115Zm2.51,1.686c.189-.007.219-.049.219-.1s-.036-.065-.1-.065H3.453V1.448c-.576-.072-.813-.5-.813-1.068V-1.567A.948.948,0,0,1,3.648-2.652c.748,0,.956.414.956,1.008v.475H3.987V-1.7c0-.249-.083-.391-.325-.391s-.344.172-.344.416V.486c0,.244.1.416.344.416S3.987.747,3.987.51V-.232H4.6v.7c0,.563-.227.979-.9,1v.053c.161.024.249.083.249.214,0,.185-.172.285-.6.285Zm1.571-.41L5.69-2.6h.771l.766,4.023H6.533L6.408.682H5.69l-.119.735Zm.529-4.183c.011-.278.119-.5.416-.5.172,0,.314.1.4.1a.08.08,0,0,0,.083-.089h.333c-.013.278-.119.5-.416.5-.172,0-.314-.1-.4-.1a.079.079,0,0,0-.083.089ZM5.779.142h.54L6.052-1.472H6.047ZM7.571.38V-1.567A.957.957,0,0,1,8.591-2.652.958.958,0,0,1,9.618-1.567V.38A.961.961,0,0,1,8.591,1.465.96.96,0,0,1,7.571.38m1.37.106V-1.673c0-.244-.106-.416-.35-.416s-.344.172-.344.416V.486c0,.244.108.416.344.416s.35-.172.35-.416M10.752.38V-1.567a.948.948,0,0,1,1.008-1.085c.748,0,.956.414.956,1.008v.475H12.1V-1.7c0-.249-.083-.391-.325-.391s-.344.172-.344.416V.486c0,.244.1.416.344.416S12.1.747,12.1.51V-.232h.618v.7c0,.575-.238,1-.956,1A.951.951,0,0,1,10.752.38m2.4,0V-1.567a.957.957,0,0,1,1.021-1.085A.958.958,0,0,1,15.2-1.567V.38a.961.961,0,0,1-1.026,1.085A.96.96,0,0,1,13.149.38m1.37.106V-1.673c0-.244-.106-.416-.35-.416s-.344.172-.344.416V.486c0,.244.106.416.344.416s.35-.172.35-.416m1.7-1.6V1.418h-.571V-2.6h.665L17.041-.3V-2.6H17.6V1.418H17.01Zm1.762-1.5h1.8v.552h-.558V1.418h-.682V-2.053h-.558ZM20.832-.427V1.418h-.677V-2.6h.985c.682,0,.932.338.932.9v.516c0,.433-.155.688-.54.777l.647,1.828h-.711Zm0-1.626V-.8h.225a.293.293,0,0,0,.333-.333v-.593c0-.219-.1-.325-.333-.325ZM22.4,1.418,23.158-2.6h.771l.766,4.023H24L23.876.682h-.718l-.118.735ZM23.246.142h.54L23.52-1.472h-.006ZM25.62,1.418,26.38-2.6h.771l.766,4.023h-.7L27.1.682H26.38l-.119.735ZM26.469.142h.54l-.268-1.614h-.006Z" transform="translate(0 3.27)" fill="#fff"/>
    </g>
    <g id="Grupo_589" data-name="Grupo 589" transform="translate(135.826 9.686)">
      <path id="Caminho_485" data-name="Caminho 485" d="M.564.441H.546L.089,3.052H-.226l-.5-2.61H-.741v2.61H-1.3V-.971h.79L-.071,1.3h.006L.327-.971H1.18V3.052H.564ZM3.441-.971V2.073c0,.624-.267,1.026-.955,1.026A.908.908,0,0,1,1.477,2.073V-.971h.677V2.139c0,.237.1.4.333.4s.333-.161.333-.4V-.971ZM5.762.109V1.972c0,.616-.255,1.079-.979,1.079H3.737V-.971H4.783c.724,0,.979.457.979,1.079M4.7,2.5c.278,0,.386-.166.386-.409V-.016a.353.353,0,0,0-.386-.4H4.414V2.5Zm1.251.552.76-4.023h.771l.766,4.023H7.554l-.125-.735H6.711l-.119.735ZM6.8,1.776h.54L7.073.162H7.066ZM9.007.524V3.052H8.438V-.971H9.1l.73,2.308V-.971h.563V3.052H9.8Zm2.4,2.937c.191-.007.219-.047.219-.1s-.036-.065-.095-.065H11.5V3.082c-.575-.072-.813-.5-.813-1.068V.067A.949.949,0,0,1,11.7-1.018c.747,0,.955.416.955,1.008V.466h-.616V-.063c0-.249-.083-.391-.327-.391s-.344.172-.344.416V2.12c0,.244.1.416.344.416s.327-.155.327-.391V1.4h.616v.7c0,.563-.225.979-.9,1v.053c.161.024.249.083.249.214,0,.185-.172.285-.6.285Zm1.418-.41.76-4.023h.771l.766,4.023H14.43l-.125-.735h-.718l-.119.735Zm.849-1.276h.54L13.95.162h-.006ZM16.869.9h.96V3.052h-.486V2.613A.609.609,0,0,1,16.7,3.1c-.582,0-.849-.463-.849-1.085V.067a.953.953,0,0,1,1.015-1.085c.747,0,.966.416.966,1.008V.347h-.616v-.41c0-.249-.095-.391-.338-.391s-.35.172-.35.416V2.12c0,.244.1.416.333.416s.331-.125.331-.386V1.438h-.32ZM18.126-.971H18.8V2.5h.807v.552H18.126Zm1.7,2.985V.067A.957.957,0,0,1,20.85-1.018.959.959,0,0,1,21.876.067V2.014a1.025,1.025,0,1,1-2.047,0m1.37.106V-.039c0-.244-.106-.416-.35-.416s-.344.172-.344.416V2.12c0,.244.108.416.344.416s.35-.172.35-.416m.973-3.091h.979c.677,0,.9.314.9.884V.322a.586.586,0,0,1-.4.641.611.611,0,0,1,.5.671v.535c0,.569-.255.883-.932.883H22.173Zm.677,1.7h.238A.285.285,0,0,0,23.407.4V-.093a.284.284,0,0,0-.327-.325H22.85Zm0,.516V2.5h.3a.292.292,0,0,0,.333-.327v-.6c0-.214-.1-.325-.338-.325ZM24.3,3.052l.76-4.023h.771l.766,4.023h-.7l-.125-.735h-.717l-.119.735Zm.849-1.276h.539L25.418.162h-.006ZM26.783-.971h.677V2.5h.807v.552H26.783Z" transform="translate(1.3 1.018)" fill="#fff"/>
    </g>
    <g id="Grupo_590" data-name="Grupo 590" transform="translate(135.827 15.08)">
      <path id="Caminho_486" data-name="Caminho 486" d="M.612.341V2.2c0,.616-.255,1.079-.979,1.079H-1.411V-.739H-.367c.724,0,.979.456.979,1.079M-.451,2.732c.28,0,.386-.166.386-.41V.216a.351.351,0,0,0-.386-.4H-.734V2.732ZM.908,2.246V.3A.957.957,0,0,1,1.929-.786.958.958,0,0,1,2.956.3V2.246A.961.961,0,0,1,1.929,3.331.96.96,0,0,1,.908,2.246m1.37.106V.192c0-.242-.106-.414-.35-.414s-.344.172-.344.414v2.16c0,.244.106.416.344.416s.35-.172.35-.416m1.507-.106V.3A.948.948,0,0,1,4.795-.786c.748,0,.955.414.955,1.008V.7H5.133V.169c0-.249-.083-.391-.327-.391s-.344.172-.344.414v2.16c0,.244.1.416.344.416s.327-.155.327-.391V1.634H5.75v.694c0,.576-.237,1-.955,1A.951.951,0,0,1,3.786,2.246M6.029-.739h.677V2.732h.807v.552H6.029Zm1.7,0h.677V3.284H7.732ZM10.573.673h-.017L10.1,3.284H9.785L9.28.673H9.269v2.61H8.711V-.739H9.5l.44,2.266h.006l.391-2.266h.854V3.284h-.618Zm.807,2.61.76-4.023h.771l.766,4.023h-.694l-.125-.735H12.14l-.119.735Zm.849-1.276h.54L12.5.394H12.5Z" transform="translate(1.411 0.786)" fill="#fff"/>
    </g>
  </g>
</svg>
