<svg id="Grupo_541" data-name="Grupo 541" xmlns="http://www.w3.org/2000/svg" xmlns:xlink="http://www.w3.org/1999/xlink" width="48.316" height="48.318" viewBox="0 0 48.316 48.318">
  <defs>
    <clipPath id="clip-path">
      <path id="Caminho_425" data-name="Caminho 425" d="M0,14.759H48.316V-33.559H0Z" transform="translate(0 33.559)" fill="none"/>
    </clipPath>
  </defs>
  <path id="Caminho_419" data-name="Caminho 419" d="M0,14.758H48.315V-33.558H0Z" transform="translate(0 33.559)" fill="#f26b2b"/>
  <g id="Grupo_540" data-name="Grupo 540" transform="translate(0 0)" clip-path="url(#clip-path)">
    <g id="Grupo_537" data-name="Grupo 537" transform="translate(4.054 3.903)">
      <path id="Caminho_420" data-name="Caminho 420" d="M1.465.794c0-1.509-.661-2.6-2.384-2.6A2.149,2.149,0,0,0-3.331.65V2.087c0,1.594.631,2.4,1.808,2.4A1.4,1.4,0,0,0-.172,3.695h.014v2.1c0,.589-.23,1-.819,1s-.8-.344-.8-.947V5.2H-3.275v.517c0,1.437.517,2.442,2.327,2.442,1.723,0,2.413-1.106,2.413-2.629ZM-.159,2.287c-.029.546-.258.89-.775.89-.559,0-.776-.344-.776-.976V.506c0-.618.23-.976.79-.976s.76.373.76.976ZM29.116,26.051l-5.743-3.314V16.1a.394.394,0,0,0-.2-.34l-5.938-3.428a.4.4,0,0,0-.393,0l-5.938,3.428a.391.391,0,0,0-.2.34v6.632L4.969,26.051a.394.394,0,0,0-.2.34v6.858a.392.392,0,0,0,.2.34l5.939,3.428a.4.4,0,0,0,.392,0L17.042,33.7l5.743,3.314a.4.4,0,0,0,.392,0l5.939-3.428a.392.392,0,0,0,.2-.34V26.39a.394.394,0,0,0-.2-.34M16.65,32.57l-4.763-2.75,4.763-2.751ZM22.2,22.962l-4.763,2.75v-5.5Zm-5.546,2.75-4.763-2.75,4.763-2.75Zm1.176.678,5.154-2.976,5.156,2.976-5.156,2.976Zm4.763-4.106-4.763-2.751,4.763-2.749Zm-6.331-2.751L11.5,22.284v-5.5ZM10.713,36,5.557,33.022V27.069l5.156,2.977Zm.783,0V30.5l4.763,2.75Zm17.033-2.976L23.373,36V30.046l5.156-2.977Z" transform="translate(3.331 1.805)" fill="#fff"/>
    </g>
    <path id="Caminho_421" data-name="Caminho 421" d="M7.919-30.478h.634v3.766H7.919Zm1.45,1.4v2.367H8.836v-3.766h.622l.682,2.161v-2.161h.528v3.766h-.556Zm3.471-.389v1.744c0,.579-.239,1.012-.916,1.012h-.978v-3.766h.978c.677,0,.916.428.916,1.011m-.993,2.239c.261,0,.36-.155.36-.383v-1.973a.329.329,0,0,0-.36-.377h-.268v2.733Zm3.11-3.25v2.849c0,.583-.251.962-.894.962a.85.85,0,0,1-.945-.962v-2.849h.634v2.91c0,.223.088.373.311.373s.311-.15.311-.373v-2.91Zm-.389-.266-.995.127v-.356l.995-.21Z" transform="translate(3.483 34.604)" fill="#fff"/>
    <g id="Grupo_538" data-name="Grupo 538" transform="translate(18.684 4.081)">
      <path id="Caminho_422" data-name="Caminho 422" d="M0,.917V.411H.589V.928c0,.21.1.333.311.333.2,0,.289-.132.289-.333V.783A.68.68,0,0,0,.906.25L.533-.123a1.269,1.269,0,0,1-.527-1v-.128a.786.786,0,0,1,.888-.828c.634,0,.883.312.883.857v.305H1.2V-1.25c0-.216-.1-.323-.3-.323a.279.279,0,0,0-.3.312v.078c0,.21.117.333.3.511l.4.4A1.262,1.262,0,0,1,1.816.7V.889a.815.815,0,0,1-.921.883A.785.785,0,0,1,0,.917M1.856-2.039H3.538v.517H3.016v3.25H2.377v-3.25H1.856ZM4.383,0V1.727H3.749V-2.039h.921c.639,0,.873.317.873.845V-.71c0,.4-.144.644-.505.727l.6,1.71H4.977Zm0-1.522V-.35h.21A.274.274,0,0,0,4.9-.661v-.556c0-.2-.094-.305-.311-.305Z" transform="translate(0 2.084)" fill="#fff"/>
    </g>
    <path id="Caminho_423" data-name="Caminho 423" d="M16.912-30.5h.634v3.766h-.634Zm.816,3.766L18.44-30.5h.721l.717,3.766h-.651l-.117-.69H18.44l-.112.69Zm.795-1.2h.505l-.251-1.51h-.006Zm2.183.639-.323.849h-.356l.078-.9h.6Zm.777-3.211h.634v3.766h-.634Zm1.45,1.4v2.367H22.4V-30.5h.622l.684,2.161V-30.5h.527v3.766h-.556ZM24.51-27.71v-1.821a.9.9,0,0,1,.956-1.016.9.9,0,0,1,.96,1.016v1.821a.9.9,0,0,1-.96,1.018.9.9,0,0,1-.956-1.018m1.283.1v-2.023c0-.227-.1-.389-.327-.389s-.323.161-.323.389v2.023c0,.227.1.389.323.389s.327-.161.327-.389M28.731-30.5l-.717,3.766h-.688L26.609-30.5h.645l.433,2.628h0l.445-2.628Zm.078,3.766L29.52-30.5h.721l.717,3.766h-.651l-.117-.69H29.52l-.112.69Zm.795-1.2h.505l-.251-1.51h-.006Zm2.2,1.578c.177-.006.206-.045.206-.089s-.033-.06-.089-.06H31.9v-.206c-.538-.066-.762-.472-.762-1v-1.821a.888.888,0,0,1,.944-1.016c.7,0,.894.389.894.945v.443H32.4v-.494c0-.233-.078-.367-.305-.367s-.323.161-.323.389v2.023c0,.227.1.389.323.389s.305-.144.305-.367v-.694h.577v.649c0,.528-.21.917-.838.94v.049c.15.023.233.078.233.2,0,.173-.161.266-.562.266Zm1.327-.383.711-3.766h.721l.717,3.766h-.649l-.117-.69h-.672l-.111.69Zm.494-3.916c.012-.262.112-.472.389-.472.161,0,.3.094.379.094a.074.074,0,0,0,.078-.084h.311c-.012.262-.111.472-.389.472-.161,0-.3-.094-.379-.094a.075.075,0,0,0-.078.084Zm.3,2.721h.505l-.251-1.51h-.006Zm1.532.222v-1.821a.9.9,0,0,1,.956-1.016.9.9,0,0,1,.96,1.016v1.821a.9.9,0,0,1-.96,1.018.9.9,0,0,1-.956-1.018m1.283.1v-2.023c0-.227-.1-.389-.327-.389s-.323.161-.323.389v2.023c0,.227.1.389.323.389s.327-.161.327-.389" transform="translate(7.438 34.629)" fill="#fff"/>
    <g id="Grupo_539" data-name="Grupo 539" transform="translate(11.402 9.886)">
      <path id="Caminho_424" data-name="Caminho 424" d="M0,.014H1.51V.531H.634V1.607h.628v.511H.634V3.263H1.51V3.78H0Zm2.371,0H3V3.78H2.371Zm1.506,1.4V3.78H3.343V.014h.622l.684,2.161V.014h.527V3.78H4.622ZM5.51.014H6.993V.531H6.144V1.607h.632v.511H6.144V3.78H5.51ZM7.876,2.052V3.78H7.242V.014h.923c.638,0,.871.317.871.844v.484c0,.406-.144.645-.505.729l.606,1.71H8.47Zm0-1.522V1.7h.212A.274.274,0,0,0,8.4,1.392V.836C8.4.63,8.3.531,8.087.531ZM9.248,3.78,9.959.014h.721L11.4,3.78h-.649l-.117-.69H9.959l-.111.69Zm.795-1.2h.505L10.3,1.075h-.006ZM11.631.014h1.51V.531h-.877V1.607h.628v.511h-.628V3.263h.877V3.78h-1.51ZM13.413,2.97V2.463H14V2.98c0,.212.1.334.311.334.2,0,.289-.134.289-.334V2.836a.68.68,0,0,0-.284-.533l-.371-.373a1.269,1.269,0,0,1-.528-1V.8a.786.786,0,0,1,.888-.828c.634,0,.884.311.884.855v.305h-.579V.8c0-.217-.1-.323-.3-.323a.278.278,0,0,0-.3.311V.869c0,.212.117.334.3.511l.406.4a1.266,1.266,0,0,1,.511.978v.183a.816.816,0,0,1-.923.884.785.785,0,0,1-.894-.855M15.458.014h1.683V.531h-.523V3.78H15.98V.531h-.523Zm2.583,2.039V3.78h-.634V.014h.921c.639,0,.873.317.873.844v.484c0,.406-.144.645-.505.729l.6,1.71h-.667Zm0-1.522V1.7h.21a.274.274,0,0,0,.311-.311V.836c0-.206-.094-.305-.311-.305Zm3.31-.517V2.863c0,.583-.251.962-.894.962a.85.85,0,0,1-.944-.962V.014h.634V2.925c0,.222.089.371.311.371s.311-.15.311-.371V.014Zm.256,0h1.682V.531h-.521V3.78h-.639V.531h-.521Zm3.787,0V2.863c0,.583-.249.962-.894.962a.849.849,0,0,1-.943-.962V.014h.632V2.925c0,.222.089.371.311.371s.311-.15.311-.371V.014Zm.962,2.039V3.78h-.634V.014h.921c.639,0,.873.317.873.844v.484c0,.406-.144.645-.505.729l.606,1.71H26.95Zm0-1.522V1.7h.21a.274.274,0,0,0,.311-.311V.836c0-.206-.094-.305-.311-.305Zm1.378,3.25.71-3.766h.723l.716,3.766h-.649l-.117-.69h-.672l-.111.69Zm.793-1.2h.505l-.249-1.51h-.006Z" transform="translate(0 0.031)" fill="#fff"/>
    </g>
  </g>
</svg>
