<svg id="Grupo_596" data-name="Grupo 596" xmlns="http://www.w3.org/2000/svg" xmlns:xlink="http://www.w3.org/1999/xlink" width="228.273" height="48.144" viewBox="0 0 228.273 48.144">
  <defs>
    <clipPath id="clip-path">
      <path id="Caminho_501" data-name="Caminho 501" d="M0,14.585H228.271V-33.559H0Z" transform="translate(0 33.559)" fill="none"/>
    </clipPath>
  </defs>
  <path id="Caminho_496" data-name="Caminho 496" d="M41.74,14.584H90.372V-33.558H41.74Z" transform="translate(18.14 33.559)" fill="#f79b28"/>
  <g id="Grupo_600" data-name="Grupo 600" transform="translate(0 0)" clip-path="url(#clip-path)">
    <g id="Grupo_596-2" data-name="Grupo 596" transform="translate(63.366 4.035)">
      <path id="Caminho_497" data-name="Caminho 497" d="M0,.534v1.7H.014L1.171,1.049h.016V8.48H2.835V-1.228H1.518Zm3.76,0v1.7h.014L4.932,1.049h.013V8.48h1.65V-1.228H5.279ZM4.882,31.389H12.2a.179.179,0,0,0,.179-.178.171.171,0,0,0-.047-.118l-.01-.011-3.64-4.661-.034-.039a.188.188,0,0,0-.133-.059.19.19,0,0,0-.118.046l-.022.026-.034.037L4.787,31.046l-.055.065a.177.177,0,0,0,.149.278m7.294.657H4.845a.179.179,0,0,0-.179.178V37.9a.179.179,0,0,0,.179.179H7.2V34.508a.178.178,0,0,1,.176-.178H9.573a.178.178,0,0,1,.179.178V38.08h2.423a.178.178,0,0,0,.179-.178V32.224a.179.179,0,0,0-.179-.178M37.508,30.56H30.253a.175.175,0,0,0-.178.171v7.252a.176.176,0,0,0,.178.171h7.255a.175.175,0,0,0,.178-.171V30.731a.174.174,0,0,0-.178-.171m-3.97,4.734a.175.175,0,0,1-.178.172H31.194a.176.176,0,0,1-.179-.172v-1.3a.175.175,0,0,1,.179-.171H33.36a.174.174,0,0,1,.178.171Zm0-2.41a.175.175,0,0,1-.178.172H31.194a.176.176,0,0,1-.179-.172v-1.3a.175.175,0,0,1,.179-.171H33.36a.174.174,0,0,1,.178.171Zm3.312,2.41a.175.175,0,0,1-.178.172H34.506a.175.175,0,0,1-.178-.172v-1.3a.174.174,0,0,1,.178-.171h2.166a.174.174,0,0,1,.178.171Zm0-2.41a.175.175,0,0,1-.178.172H34.506a.175.175,0,0,1-.178-.172v-1.3a.174.174,0,0,1,.178-.171h2.166a.174.174,0,0,1,.178.171ZM20.644,13.726h-7.1a.174.174,0,0,0-.174.174V37.918a.174.174,0,0,0,.174.172h7.1a.174.174,0,0,0,.174-.172V13.9a.174.174,0,0,0-.174-.174M16.42,35.354a.094.094,0,0,1-.093.092H14.7a.093.093,0,0,1-.093-.092V33.56a.092.092,0,0,1,.093-.09h1.625a.092.092,0,0,1,.093.09Zm0-4.119a.093.093,0,0,1-.093.092H14.7a.092.092,0,0,1-.093-.092V29.442a.093.093,0,0,1,.093-.093h1.625a.094.094,0,0,1,.093.093Zm0-4.119a.094.094,0,0,1-.093.093H14.7a.093.093,0,0,1-.093-.093V25.324a.092.092,0,0,1,.093-.092h1.625a.093.093,0,0,1,.093.092Zm0-4.119a.094.094,0,0,1-.093.093H14.7A.093.093,0,0,1,14.609,23V21.2a.093.093,0,0,1,.093-.092h1.625a.094.094,0,0,1,.093.092Zm0-4.117a.094.094,0,0,1-.093.092H14.7a.093.093,0,0,1-.093-.092V17.088a.093.093,0,0,1,.092-.093h1.627a.094.094,0,0,1,.093.093Zm3.188,16.474a.093.093,0,0,1-.093.092H17.889a.093.093,0,0,1-.093-.092h0V33.56a.092.092,0,0,1,.093-.09h1.625a.092.092,0,0,1,.093.09Zm0-4.119a.092.092,0,0,1-.093.092H17.889a.092.092,0,0,1-.093-.092V29.442a.093.093,0,0,1,.093-.093h1.625a.093.093,0,0,1,.093.093Zm0-4.119a.093.093,0,0,1-.093.093H17.889a.093.093,0,0,1-.093-.093h0V25.324a.092.092,0,0,1,.093-.092h1.625a.092.092,0,0,1,.093.092Zm0-4.119a.093.093,0,0,1-.093.093H17.889A.093.093,0,0,1,17.8,23h0V21.2a.093.093,0,0,1,.093-.092h1.625a.093.093,0,0,1,.093.092Zm0-4.117a.093.093,0,0,1-.093.092H17.889a.093.093,0,0,1-.093-.092V17.088a.093.093,0,0,1,.093-.093h1.625a.093.093,0,0,1,.093.093ZM37.677,29.83a.144.144,0,0,1-.145.145h-7.3a.145.145,0,0,1-.146-.143h0V28.385a.145.145,0,0,1,.146-.145h7.3a.145.145,0,0,1,.146.145ZM29.219,18.263a.184.184,0,0,0-.178-.133.18.18,0,0,0-.1.033.067.067,0,0,0-.013.009l-.06.075-6.978,8.763-.032.043a.2.2,0,0,0-.06.136V37.954a.173.173,0,0,0,.174.172h7.093a.172.172,0,0,0,.174-.171h0V18.334a.16.16,0,0,0-.017-.072m-2.937,4.759.049-.062c.478-.607,1.283-1.587,1.674-2.063l.052-.062a.21.21,0,0,1,.156-.073.2.2,0,0,1,.194.162V23.14a.2.2,0,0,1-.192.2H26.435a.2.2,0,0,1-.194-.2.2.2,0,0,1,.04-.119m-1.1,12.272a.172.172,0,0,1-.174.172H22.888a.172.172,0,0,1-.174-.171h0V33.981a.172.172,0,0,1,.174-.171H25a.172.172,0,0,1,.174.171Zm0-2.422a.171.171,0,0,1-.172.171H22.888a.172.172,0,0,1-.174-.171h0V31.558a.172.172,0,0,1,.174-.171H25a.172.172,0,0,1,.174.171Zm0-2.423a.172.172,0,0,1-.174.171H22.888a.172.172,0,0,1-.174-.171h0V29.135a.172.172,0,0,1,.174-.171H25a.172.172,0,0,1,.174.171Zm.006-5.309v2.888a.173.173,0,0,1-.174.172H22.893a.171.171,0,0,1-.174-.171h0v-.363a.173.173,0,0,1,.013-.065.129.129,0,0,1,.01-.02l.016-.023.02-.027c.27-.383,1.491-1.872,2-2.493l.052-.062a.2.2,0,0,1,.156-.073.2.2,0,0,1,.194.161Zm3.229,10.154a.173.173,0,0,1-.174.172H26.123a.173.173,0,0,1-.175-.171h0V33.981a.173.173,0,0,1,.175-.171h2.116a.173.173,0,0,1,.174.171Zm0-2.422a.174.174,0,0,1-.174.171H26.123a.172.172,0,0,1-.175-.171h0V31.558a.173.173,0,0,1,.175-.171h2.116a.173.173,0,0,1,.174.171Zm0-2.423a.174.174,0,0,1-.174.171H26.123a.173.173,0,0,1-.175-.171V29.135a.173.173,0,0,1,.175-.171h2.116a.173.173,0,0,1,.174.171Zm0-2.423a.174.174,0,0,1-.174.171H26.123a.173.173,0,0,1-.175-.171V26.714a.173.173,0,0,1,.175-.172h2.116a.173.173,0,0,1,.174.172Zm0-2.423a.174.174,0,0,1-.174.171H26.123a.172.172,0,0,1-.175-.171h0V24.291a.172.172,0,0,1,.175-.172h2.116a.173.173,0,0,1,.174.172Z" transform="translate(0 1.228)" fill="#fff"/>
    </g>
    <g id="Grupo_597" data-name="Grupo 597" transform="translate(73.191 3.376)">
      <path id="Caminho_498" data-name="Caminho 498" d="M0,.9v-1.9A.931.931,0,0,1,1-2.067c.739,0,.944.406.944.987v.463h-.61v-.516c0-.244-.083-.383-.323-.383s-.34.169-.34.406V1c0,.238.1.406.34.406s.323-.151.323-.383V.3h.61V.98c0,.562-.235.98-.944.98A.934.934,0,0,1,0,.9M2.239-2.021h.669V1.914H2.239ZM5.229-.964V.858c0,.6-.252,1.056-.967,1.056H3.231V-2.021H4.262c.714,0,.967.448.967,1.057M4.18,1.375c.275,0,.38-.164.38-.4v-2.06a.347.347,0,0,0-.38-.4H3.9V1.375Zm1.26.539.75-3.935h.763L7.71,1.914H7.024L6.9,1.194H6.19l-.116.72ZM6.279.666h.534L6.549-.912H6.543Zm3.64-1.63V.858c0,.6-.251,1.056-.967,1.056H7.92V-2.021H8.952c.716,0,.967.448.967,1.057M8.87,1.375a.349.349,0,0,0,.382-.4v-2.06a.348.348,0,0,0-.382-.4H8.589V1.375Zm1.366-3.4h1.6v.541H10.9V-.356h.663V.178H10.9v1.2h.927v.539h-1.6Zm1.846,3.087V.538H12.7v.539c0,.221.1.349.327.349.212,0,.306-.139.306-.349V.927a.708.708,0,0,0-.3-.557l-.393-.389a1.321,1.321,0,0,1-.557-1.05V-1.2a.825.825,0,0,1,.937-.865c.669,0,.932.326.932.894v.318h-.61V-1.2c0-.227-.1-.337-.317-.337a.292.292,0,0,0-.316.326v.08c0,.221.123.349.316.535l.429.417A1.318,1.318,0,0,1,14,.847v.191a.857.857,0,0,1-.974.922.824.824,0,0,1-.944-.894m2.75-3.087h1.6v.541H15.5V-.356h.663V.178H15.5v1.2h.927v.539h-1.6Z" transform="translate(0 2.067)" fill="#fff"/>
    </g>
    <g id="Grupo_598" data-name="Grupo 598" transform="translate(73.273 8.257)">
      <path id="Caminho_499" data-name="Caminho 499" d="M0,.9v-1.9A.931.931,0,0,1,1-2.067c.739,0,.944.406.944.987v.463h-.61v-.516c0-.244-.083-.383-.323-.383s-.34.169-.34.406V1c0,.238.1.406.34.406s.323-.151.323-.383V.3h.61V.98c0,.562-.235.98-.944.98A.934.934,0,0,1,0,.9M2.363.9v-1.9A.94.94,0,0,1,3.371-2.067.942.942,0,0,1,4.386-1.005V.9A.944.944,0,0,1,3.371,1.96.942.942,0,0,1,2.363.9M3.717,1V-1.11c0-.237-.106-.406-.346-.406s-.34.168-.34.406V1c0,.238.1.406.34.406s.346-.168.346-.406M6.665-.64H6.648L6.2,1.914h-.31L5.388-.64H5.375V1.914H4.825V-2.021H5.6L6.038.2h.006l.387-2.218h.844V1.914h-.61Zm2.99-1.382V.956c0,.61-.263,1-.943,1a.892.892,0,0,1-1-1V-2.021h.669V1.02c0,.232.093.389.329.389s.327-.156.327-.389V-2.021Zm1,1.463V1.914H10.1V-2.021h.657l.72,2.258V-2.021h.558V1.914h-.587ZM12.47-2.021h.669V1.914H12.47ZM15.577-.964V.858c0,.6-.252,1.056-.967,1.056H13.579V-2.021H14.61c.714,0,.967.448.967,1.057M14.528,1.375c.275,0,.38-.164.38-.4v-2.06a.347.347,0,0,0-.38-.4h-.283V1.375Zm1.383.539.75-3.935h.762l.756,3.935h-.686l-.122-.72h-.71l-.118.72ZM16.749.666h.534L17.019-.912h-.006Zm3.764-1.63V.858c0,.6-.252,1.056-.967,1.056H18.514V-2.021h1.033c.714,0,.967.448.967,1.057m-1.05,2.338a.349.349,0,0,0,.382-.4v-2.06a.348.348,0,0,0-.382-.4h-.281V1.375Zm1.489-3.4h1.6v.539h-.927V-.356h.663V.178h-.663v1.2h.927v.539h-1.6Zm1.977,3.087V.538h.621v.539c0,.221.1.349.329.349.211,0,.3-.139.3-.349V.927a.706.706,0,0,0-.3-.557l-.393-.389a1.321,1.321,0,0,1-.557-1.05V-1.2a.825.825,0,0,1,.938-.865c.667,0,.931.326.931.894v.318h-.61V-1.2c0-.227-.1-.337-.316-.337a.292.292,0,0,0-.317.326v.08c0,.221.123.349.317.534l.428.419A1.318,1.318,0,0,1,24.846.847v.191a.856.856,0,0,1-.973.922.824.824,0,0,1-.944-.894" transform="translate(0 2.067)" fill="#fff"/>
    </g>
    <g id="Grupo_599" data-name="Grupo 599" transform="translate(73.238 12.951)">
      <path id="Caminho_500" data-name="Caminho 500" d="M0,1.159V.631H.621V1.17c0,.221.1.349.329.349.211,0,.306-.139.306-.349V1.019a.708.708,0,0,0-.3-.557L.562.074A1.326,1.326,0,0,1,.006-.977v-.133a.825.825,0,0,1,.938-.864c.669,0,.932.324.932.894v.318h-.61v-.343c0-.225-.106-.336-.317-.336a.292.292,0,0,0-.317.324v.082c0,.221.123.349.317.534l.428.417A1.316,1.316,0,0,1,1.917.938V1.13a.856.856,0,0,1-.973.922A.824.824,0,0,1,0,1.159M4.262-1.929V1.048c0,.61-.264,1-.944,1a.893.893,0,0,1-1-1V-1.929H2.99V1.113c0,.231.095.389.329.389s.329-.158.329-.389V-1.929Zm.4,3.087V.631h.621V1.17c0,.221.1.349.329.349.211,0,.306-.139.306-.349V1.019a.708.708,0,0,0-.3-.557L5.229.074A1.326,1.326,0,0,1,4.673-.977v-.133a.825.825,0,0,1,.938-.864c.669,0,.932.324.932.894v.318h-.61v-.343c0-.225-.106-.336-.317-.336a.292.292,0,0,0-.317.324v.082c0,.221.123.349.317.534l.428.417A1.316,1.316,0,0,1,6.583.938V1.13a.856.856,0,0,1-.973.922.824.824,0,0,1-.944-.894M6.912-1.929H8.688v.539H8.137v3.4H7.463v-3.4H6.912Zm2.146,0h1.594v.539H9.727V-.263h.661V.271H9.727v1.2h.925v.541H9.058ZM11.626-.467V2.007h-.564V-1.929h.657L12.441.329V-1.929H13V2.007h-.587ZM13.36-1.929h1.777v.539h-.552v3.4h-.673v-3.4H13.36ZM15.4,2.007l.75-3.935h.762l.756,3.935h-.686l-.123-.72h-.709l-.118.72Zm1.676-4.213-1.049.133v-.372l1.049-.221ZM16.24.758h.534L16.509-.82H16.5Zm3.9-2.687-.756,3.935h-.726L17.9-1.929h.68L19.041.816h.006l.469-2.744Zm.336,0h1.594v.539h-.927V-.263h.663V.271h-.663v1.2h.927v.541H20.479Zm2,0h.669V2.007h-.669Zm1.079,3.087V.631h.621V1.17c0,.221.1.349.329.349.211,0,.306-.139.306-.349V1.019a.708.708,0,0,0-.3-.557L24.124.074a1.326,1.326,0,0,1-.557-1.052v-.133a.825.825,0,0,1,.938-.864c.669,0,.932.324.932.894v.318h-.61v-.343c0-.225-.106-.336-.317-.336a.292.292,0,0,0-.317.324v.082c0,.221.123.349.317.534l.428.417A1.316,1.316,0,0,1,25.479.938V1.13a.856.856,0,0,1-.973.922.824.824,0,0,1-.944-.894" transform="translate(0 2.666)" fill="#fff"/>
    </g>
  </g>
  <path id="Caminho_502" data-name="Caminho 502" d="M125.562,14.584H173.7V-33.558H125.562Z" transform="translate(54.57 33.559)" fill="#ed3f2b"/>
  <g id="Grupo_604" data-name="Grupo 604" transform="translate(0 0)" clip-path="url(#clip-path)">
    <g id="Grupo_601" data-name="Grupo 601" transform="translate(184.9 4.03)">
      <path id="Caminho_503" data-name="Caminho 503" d="M.881.933a1.475,1.475,0,0,0-1.374.673H-.508V-.813H2.3V-2.146H-2v5.47H-.508V3.108c0-.572.258-.887.716-.887.5,0,.7.344.7.874V5.443c0,.515-.186.872-.687.872-.558,0-.759-.372-.759-.944V4.155H-2.026v1.1c0,1.475.587,2.42,2.248,2.42a2.02,2.02,0,0,0,2.32-2.219V3.08C2.54,1.548,1.754.933.881.933M28.27,12.041H22.286a.078.078,0,0,0-.076.077v1.987a.078.078,0,0,0,.076.077h2.383l-2.645,2.645a7.834,7.834,0,1,0-5.843,13.933v2.291H13.819a.073.073,0,0,0-.076.073h0v2.132a.076.076,0,0,0,.076.076h2.361V37.59a.076.076,0,0,0,.076.076h2.129a.077.077,0,0,0,.077-.076V35.334h2.36a.077.077,0,0,0,.076-.076h0V33.127a.075.075,0,0,0-.076-.075h-2.36V30.724A7.83,7.83,0,0,0,23.6,18.484L26.2,15.875V18.1a.077.077,0,0,0,.077.076H28.27a.077.077,0,0,0,.077-.076V12.118a.079.079,0,0,0-.077-.077h0M17.192,28.76a5.769,5.769,0,1,1,5.769-5.769,5.775,5.775,0,0,1-5.769,5.769" transform="translate(2.026 2.146)" fill="#fff"/>
    </g>
    <g id="Grupo_602" data-name="Grupo 602" transform="translate(200.569 26.8)">
      <path id="Caminho_504" data-name="Caminho 504" d="M2.143,0h-7A.073.073,0,0,0-4.93.069V1.762a.073.073,0,0,0,.076.07h7a.073.073,0,0,0,.077-.07V.069A.074.074,0,0,0,2.143,0m0,3.024h-7a.075.075,0,0,0-.076.07V4.789a.073.073,0,0,0,.076.069h7a.074.074,0,0,0,.077-.069V3.094a.075.075,0,0,0-.077-.07" transform="translate(4.93)" fill="#fff"/>
    </g>
    <g id="Grupo_603" data-name="Grupo 603" transform="translate(193.883 9.031)">
      <path id="Caminho_505" data-name="Caminho 505" d="M.6.554V2.376c0,.6-.25,1.056-.957,1.056H-1.379V-.5H-.358C.35-.5.6-.056.6.554M-.439,2.892c.273,0,.377-.162.377-.4V.432A.345.345,0,0,0-.439.037H-.718V2.892ZM1.023-.5H2.6V.037H1.685V1.163h.656V1.7H1.685v1.2H2.6v.539H1.023ZM4.656,1.331H5.6v2.1H5.12V3a.6.6,0,0,1-.633.476c-.568,0-.829-.453-.829-1.063V.514A.933.933,0,0,1,4.651-.55c.73,0,.945.407.945.987V.786h-.6v-.4C4.992.142,4.9,0,4.662,0s-.343.168-.343.406V2.521c0,.238.1.406.326.406s.324-.122.324-.377v-.7H4.656ZM6.019-.5H7.6V.037H6.682V1.163h.656V1.7H6.682v1.2H7.6v.539H6.019Zm.274-.145v-.32l.417-.307H7l.417.307v.32L6.861-.816ZM8.556.96V3.431H8V-.5h.65l.714,2.257V-.5h.551V3.431H9.333ZM10.337-.5h1.578V.037H11V1.163h.656V1.7H11v1.2h.917v.539H10.337Zm2.641,2.129v1.8h-.661V-.5h.963c.667,0,.911.33.911.882v.5c0,.423-.151.673-.528.759L14.3,3.431h-.7Zm0-1.59V1.261H13.2a.286.286,0,0,0,.324-.324V.357c0-.215-.1-.32-.324-.32Zm1.612,2.379V.514a1,1,0,1,1,2,0v1.9a1,1,0,1,1-2,0m1.341.1V.409c0-.238-.1-.406-.343-.406s-.336.168-.336.406V2.521c0,.238.1.406.336.406s.343-.168.343-.406" transform="translate(1.379 1.274)" fill="#fff"/>
    </g>
    <path id="Caminho_506" data-name="Caminho 506" d="M135.147-30.733h.661V-26.8h-.661Zm2.1,1.833h.941v2.1h-.476v-.429a.6.6,0,0,1-.633.475c-.57,0-.831-.452-.831-1.062v-1.9a.933.933,0,0,1,.993-1.062c.732,0,.945.406.945.987v.347h-.6v-.4c0-.244-.093-.383-.331-.383s-.341.169-.341.407v2.112c0,.238.1.406.324.406s.326-.122.326-.377v-.7h-.314Zm3.3-1.833v2.977c0,.608-.261,1-.934,1a.887.887,0,0,1-.987-1v-2.977h.661v3.04c0,.232.093.389.326.389s.324-.156.324-.389v-3.04Zm.331,3.934.742-3.935h.755l.749,3.935h-.679l-.122-.72h-.7l-.116.72Zm.829-1.248h.528l-.261-1.578h-.006Zm1.747-2.686h.661v3.394h.789v.539h-1.45Zm3.789,1.056v1.822c0,.6-.25,1.056-.957,1.056h-1.021v-3.934h1.021c.707,0,.957.446.957,1.056M146.2-27.338c.273,0,.377-.162.377-.4V-29.8a.345.345,0,0,0-.377-.395h-.278v2.855Zm1.37.539.743-3.935h.755l.749,3.935h-.68l-.122-.72h-.7l-.116.72Zm.829-1.248h.529l-.261-1.578h-.007Zm3.727-1.63v1.822c0,.6-.25,1.056-.958,1.056h-1.021v-3.934h1.021c.709,0,.958.446.958,1.056m-1.04,2.338c.274,0,.377-.162.377-.4V-29.8a.344.344,0,0,0-.377-.395h-.278v2.855Zm1.475-3.394h1.578v.539h-.917v1.125h.656v.535h-.656v1.2h.917v.539h-1.578Z" transform="translate(58.735 34.767)" fill="#fff"/>
  </g>
  <path id="Caminho_508" data-name="Caminho 508" d="M0,14.584H48.141V-33.558H0Z" transform="translate(0 33.559)" fill="#f26b2b"/>
  <g id="Grupo_608" data-name="Grupo 608" transform="translate(0 0)" clip-path="url(#clip-path)">
    <g id="Grupo_605" data-name="Grupo 605" transform="translate(4.039 3.888)">
      <path id="Caminho_509" data-name="Caminho 509" d="M1.448.784c0-1.5-.658-2.589-2.376-2.589A2.141,2.141,0,0,0-3.331.641V2.073c0,1.588.628,2.389,1.8,2.389A1.4,1.4,0,0,0-.183,3.675h.014V5.764c0,.587-.23,1-.816,1s-.8-.343-.8-.944V5.177H-3.275v.515c0,1.432.515,2.433,2.318,2.433,1.717,0,2.4-1.1,2.4-2.62ZM-.171,2.272c-.029.544-.257.887-.772.887-.557,0-.773-.343-.773-.973V.5c0-.615.23-.973.788-.973S-.171-.1-.171.5ZM29,25.95l-5.723-3.3V16.04a.393.393,0,0,0-.2-.339l-5.916-3.416a.4.4,0,0,0-.392,0L10.857,15.7a.39.39,0,0,0-.2.339v6.608l-5.723,3.3a.393.393,0,0,0-.2.339v6.833a.391.391,0,0,0,.2.339l5.918,3.416a.394.394,0,0,0,.39,0l5.721-3.3,5.723,3.3a.394.394,0,0,0,.39,0L29,33.46a.391.391,0,0,0,.2-.339V26.289a.393.393,0,0,0-.2-.339m-12.421,6.5-4.746-2.74,4.746-2.742ZM22.1,22.873l-4.746,2.74v-5.48Zm-5.526,2.74-4.746-2.74,4.746-2.74Zm1.172.676,5.136-2.965,5.137,2.965-5.137,2.965ZM22.5,22.2,17.75,19.456,22.5,16.717Zm-6.308-2.742L11.443,22.2V16.716ZM10.662,35.862,5.525,32.9V26.965l5.137,2.967Zm.78,0v-5.48l4.746,2.74ZM28.414,32.9l-5.137,2.965V29.931l5.137-2.967Z" transform="translate(3.331 1.805)" fill="#fff"/>
    </g>
    <path id="Caminho_510" data-name="Caminho 510" d="M7.919-30.48H8.55v3.753H7.919Zm1.445,1.394v2.358H8.833V-30.48h.62l.68,2.153V-30.48h.527v3.753h-.554Zm3.459-.387v1.737c0,.577-.238,1.009-.912,1.009h-.974V-30.48h.974c.674,0,.912.426.912,1.007m-.991,2.231c.261,0,.36-.155.36-.382v-1.965a.328.328,0,0,0-.36-.376h-.265v2.723Zm3.1-3.238v2.839c0,.581-.25.958-.891.958a.847.847,0,0,1-.941-.958V-30.48h.631v2.9c0,.222.088.372.31.372s.31-.149.31-.372v-2.9Zm-.387-.265-.991.126v-.354l.991-.209Z" transform="translate(3.442 34.592)" fill="#fff"/>
    <g id="Grupo_606" data-name="Grupo 606" transform="translate(18.617 4.066)">
      <path id="Caminho_511" data-name="Caminho 511" d="M0,.906V.4H.587V.917c0,.209.095.331.31.331.2,0,.288-.132.288-.331V.772A.678.678,0,0,0,.9.241L.531-.13a1.265,1.265,0,0,1-.525-1v-.128a.783.783,0,0,1,.885-.825c.631,0,.879.311.879.854v.3H1.2v-.327c0-.215-.1-.321-.3-.321a.278.278,0,0,0-.3.311v.077c0,.209.116.331.3.509l.4.4a1.258,1.258,0,0,1,.509.974V.878a.812.812,0,0,1-.918.879A.782.782,0,0,1,0,.906M1.849-2.04H3.525v.515H3.005V1.713H2.369V-1.525H1.849ZM4.367-.008V1.713H3.736V-2.04h.918c.637,0,.869.316.869.842v.482c0,.4-.143.641-.5.724l.6,1.7H4.959Zm0-1.516V-.357h.209a.273.273,0,0,0,.31-.31V-1.22c0-.2-.093-.3-.31-.3Z" transform="translate(0 2.084)" fill="#fff"/>
    </g>
    <path id="Caminho_512" data-name="Caminho 512" d="M16.912-30.505h.631v3.753h-.631Zm.813,3.753.709-3.753h.719l.714,3.753h-.648L19.1-27.44h-.669l-.112.687Zm.79-1.191h.5l-.25-1.5h-.006Zm2.175.637-.32.846h-.354l.077-.9h.6Zm.776-3.2H22.1v3.753h-.631Zm1.443,1.394v2.358h-.531v-3.753H23l.681,2.153v-2.153h.525v3.753h-.554Zm1.572,1.389v-1.815a.893.893,0,0,1,.951-1.013.9.9,0,0,1,.958,1.013v1.815a.9.9,0,0,1-.958,1.014.9.9,0,0,1-.951-1.014m1.278.1v-2.016c0-.227-.1-.387-.326-.387s-.321.161-.321.387v2.016c0,.227.1.387.321.387s.326-.161.326-.387m2.928-2.884-.714,3.753h-.686l-.714-3.753h.643l.432,2.618h0l.443-2.618Zm.077,3.753.709-3.753h.719l.714,3.753H30.26l-.116-.687h-.669l-.112.687Zm.792-1.191h.5l-.248-1.5h-.006Zm2.2,1.572c.176-.006.205-.044.205-.089s-.033-.06-.089-.06h-.027v-.205c-.537-.066-.759-.471-.759-1v-1.815a.885.885,0,0,1,.941-1.013c.7,0,.891.387.891.941v.442h-.575v-.492c0-.232-.077-.366-.3-.366s-.321.161-.321.387v2.016c0,.227.095.387.321.387s.3-.143.3-.366v-.691h.575v.647c0,.526-.209.914-.835.937v.049c.149.023.232.077.232.2,0,.172-.161.265-.559.265Zm1.323-.382.709-3.753H34.5l.714,3.753h-.647l-.116-.687h-.67l-.11.687Zm.492-3.9c.011-.261.11-.471.387-.471.161,0,.294.093.377.093a.075.075,0,0,0,.077-.083h.31c-.011.261-.11.471-.387.471-.161,0-.294-.093-.377-.093a.074.074,0,0,0-.077.083Zm.3,2.711h.5l-.25-1.5h-.006Zm1.526.221v-1.815a.893.893,0,0,1,.953-1.013.894.894,0,0,1,.957,1.013v1.815a.9.9,0,0,1-.957,1.014.9.9,0,0,1-.953-1.014m1.278.1v-2.016c0-.227-.1-.387-.326-.387s-.321.161-.321.387v2.016c0,.227.1.387.321.387s.326-.161.326-.387" transform="translate(7.35 34.617)" fill="#fff"/>
    <g id="Grupo_607" data-name="Grupo 607" transform="translate(11.361 9.85)">
      <path id="Caminho_513" data-name="Caminho 513" d="M0,.013H1.5V.528H.631V1.6h.625v.509H.631V3.251H1.5v.515H0Zm2.363,0h.631V3.766H2.363Zm1.5,1.394V3.766H3.331V.013h.62l.681,2.153V.013h.525V3.766H4.605ZM5.49.013H6.968V.528H6.121V1.6h.63v.509h-.63V3.766H5.49ZM7.847,2.045V3.766H7.216V.013h.92C8.771.013,9,.329,9,.854v.482c0,.4-.143.643-.5.726l.6,1.7H8.44Zm0-1.516V1.7h.211a.273.273,0,0,0,.31-.31V.833c0-.205-.095-.3-.31-.3ZM9.214,3.766,9.923.013h.719l.714,3.753h-.647l-.116-.687h-.67l-.11.687Zm.792-1.191h.5l-.25-1.5h-.006ZM11.589.013h1.5V.528H12.22V1.6h.625v.509H12.22V3.251h.874v.515h-1.5Zm1.776,2.945v-.5h.587v.515c0,.211.095.333.31.333.2,0,.288-.133.288-.333V2.825a.678.678,0,0,0-.283-.531l-.37-.372a1.264,1.264,0,0,1-.526-1V.794a.783.783,0,0,1,.885-.825c.631,0,.881.31.881.852v.3H14.56V.8c0-.217-.1-.321-.3-.321a.277.277,0,0,0-.3.31V.866c0,.211.116.333.3.509l.4.4a1.262,1.262,0,0,1,.509.974V2.93a.813.813,0,0,1-.92.881.782.782,0,0,1-.891-.852M15.4.013h1.677V.528h-.521V3.766h-.636V.528H15.4Zm2.574,2.031V3.766h-.631V.013h.918c.637,0,.869.316.869.841v.482c0,.4-.143.643-.5.726l.6,1.7h-.664Zm0-1.516V1.7h.209a.273.273,0,0,0,.31-.31V.833c0-.205-.093-.3-.31-.3Zm3.3-.515V2.853c0,.581-.25.958-.891.958a.847.847,0,0,1-.941-.958V.013h.631v2.9c0,.221.089.37.31.37s.31-.149.31-.37V.013Zm.255,0H23.2V.528h-.519V3.766h-.637V.528h-.519Zm3.773,0V2.853c0,.581-.248.958-.891.958a.846.846,0,0,1-.94-.958V.013h.63v2.9c0,.221.089.37.31.37s.31-.149.31-.37V.013Zm.958,2.031V3.766h-.631V.013h.918c.637,0,.869.316.869.841v.482c0,.4-.143.643-.5.726l.6,1.7h-.664Zm0-1.516V1.7h.209a.273.273,0,0,0,.31-.31V.833c0-.205-.093-.3-.31-.3Zm1.373,3.238L28.341.013h.72l.713,3.753h-.647l-.116-.687h-.67l-.11.687Zm.79-1.191h.5l-.248-1.5h-.006Z" transform="translate(0 0.031)" fill="#fff"/>
    </g>
  </g>
  <path id="Caminho_515" data-name="Caminho 515" d="M83.822,14.584h48.141V-33.558H83.822Z" transform="translate(36.429 33.559)" fill="#00689e"/>
  <g id="Grupo_613" data-name="Grupo 613" transform="translate(0 0)" clip-path="url(#clip-path)">
    <g id="Grupo_609" data-name="Grupo 609" transform="translate(123.955 3.925)">
      <path id="Caminho_516" data-name="Caminho 516" d="M0,.568v1.7H.014L1.159,1.083h.016v7.43H2.806V-1.194H1.5ZM8.519,6.18V4.748c0-1.59-.63-2.391-1.8-2.391a1.394,1.394,0,0,0-1.346.788H5.355V1.054c0-.587.185-1,.773-1S6.888.4,6.888,1v.646H8.375V1.126C8.375-.306,7.9-1.307,6.1-1.307c-1.719,0-2.363,1.1-2.363,2.62V6.037c0,1.5.658,2.592,2.377,2.592a2.143,2.143,0,0,0,2.4-2.449M6.9,6.324c0,.615-.228.973-.786.973s-.759-.372-.759-.973V4.548c.029-.544.257-.887.773-.887.557,0,.772.343.772.973Zm23.09,4.86a2.053,2.053,0,0,0-.395,1.455,2.059,2.059,0,0,0,.981,1.145,2.051,2.051,0,0,0,.393-1.455,2.042,2.042,0,0,0-.98-1.145m-.9,4.208a2.053,2.053,0,0,0,.392-1.455,2.047,2.047,0,0,0-.98-1.145,2.052,2.052,0,0,0-.395,1.453,2.058,2.058,0,0,0,.983,1.146m2.28-.789a1.824,1.824,0,0,0,1.254.531,1.9,1.9,0,0,0,1.162-.745,1.825,1.825,0,0,0-1.254-.532,1.9,1.9,0,0,0-1.162.746m.96-3.158a2.211,2.211,0,0,0-.466,1.526,2.109,2.109,0,0,0,1.5-.468,2.205,2.205,0,0,0,.466-1.525,2.112,2.112,0,0,0-1.5.466m-1.2,5.348a1.9,1.9,0,0,0,1.29-.492,1.824,1.824,0,0,0-1.116-.778,1.912,1.912,0,0,0-1.291.494,1.829,1.829,0,0,0,1.118.776m.594,11.551H26.752a.7.7,0,1,0,0,1.406h4.969a.7.7,0,0,0,0-1.406m0,7.75H26.752a.7.7,0,1,0,0,1.406h4.969a.7.7,0,0,0,0-1.406h0M9.371,26.638a3.29,3.29,0,0,0-.344-.089s.126.04.344.089" transform="translate(0 1.307)" fill="#fff"/>
    </g>
    <g id="Grupo_610" data-name="Grupo 610" transform="translate(130.827 18.417)">
      <path id="Caminho_517" data-name="Caminho 517" d="M7.473,5.167H2.868a.4.4,0,0,0-.4.4V6.962l-3.007.33-4.391-.1V4.509a12.127,12.127,0,0,0,1.747-.354A6.71,6.71,0,0,0,1.874-2.953C1.782-5.416,2.571-6.372,3.7-6.8a5.128,5.128,0,0,1,.938-.248A7.585,7.585,0,0,0,5.047-4.9c.1-.006.2-.014.3-.024a7.11,7.11,0,0,1-.413-2.165,5.285,5.285,0,0,1,1-.03,6.406,6.406,0,0,1-.954-.68,4.77,4.77,0,0,1,1.6-2.614A8.658,8.658,0,0,0,7.7-11.728l-.25-.161A8.355,8.355,0,0,1,6.37-10.621a5.165,5.165,0,0,0-1.643,2.6A9.626,9.626,0,0,1,4-8.747c-1.043-1.169-2.384-.31-4.3,1.472s-4.324,1.842-6.675-.564c-3.1-3.176-5.809-3.159-7.665-2.978,1.27.541,1.714,1.727,2.357,4.743.673,3.163,2.371,4.6,4.694,4.793C-8.874-.825-8.939-.1-10.67,1.1a5.4,5.4,0,0,1-4.025.463C-13.28,2.005-11.6,3.49-10.1,4.006a11.077,11.077,0,0,0,2.737.561V7.137l-7.867-.181V8.748L-.539,8.412l3.007.331v1.393a.4.4,0,0,0,.4.4H7.473a.4.4,0,0,0,.4-.4V5.567a.4.4,0,0,0-.4-.4M-6.641,4.6c.327.006.656,0,.986-.026v2.6l-.986-.023Zm-9.022,3.848a.643.643,0,0,1-.588.684h-.354a.644.644,0,0,1-.59-.684V7.213a.642.642,0,0,1,.59-.683h.354a.641.641,0,0,1,.588.683Z" transform="translate(17.195 11.889)" fill="#fff"/>
    </g>
    <g id="Grupo_611" data-name="Grupo 611" transform="translate(135.622 3.088)">
      <path id="Caminho_518" data-name="Caminho 518" d="M0,.014H.981c.667,0,.911.331.911.882v.829c0,.552-.244.888-.911.888H.661V3.949H0ZM.661.553V2.1H.905a.284.284,0,0,0,.326-.324V.873c0-.215-.1-.32-.326-.32Zm1.4,3.4L2.809.014h.755l.749,3.935h-.68l-.122-.72h-.7l-.116.72ZM2.9,2.7h.528L3.163,1.123H3.158Zm2.274.707h1v.541H4.48V3.408L5.519.553H4.585V.014h1.63V.553Zm2.008-.04-.337.888h-.37l.08-.94h.627ZM9.8.014V3.055a.819.819,0,0,1-.912.94c-.684,0-.869-.377-.869-.877V2.335h.627V3.13c0,.2.069.314.242.314s.25-.116.25-.32V.014Zm2.234,0V2.991c0,.61-.261,1-.934,1a.888.888,0,0,1-.987-1V.014h.661V3.055c0,.231.093.389.326.389s.324-.158.324-.389V.014ZM12.315,3.1V2.573h.615v.539c0,.221.1.349.326.349.208,0,.3-.139.3-.349V2.962a.71.71,0,0,0-.3-.557l-.389-.389A1.329,1.329,0,0,1,12.32.965V.832a.821.821,0,0,1,.93-.864c.661,0,.922.324.922.894V1.18h-.6V.837c0-.225-.1-.336-.313-.336a.29.29,0,0,0-.314.324V.908c0,.221.122.349.314.534l.423.417a1.322,1.322,0,0,1,.534,1.021v.192a.852.852,0,0,1-.963.922.82.82,0,0,1-.935-.894M14.428.014h1.757V.553H15.64v3.4h-.667V.553h-.545Zm2.007,0H17.1V3.949h-.661Zm1.684,4.335c.185-.006.214-.047.214-.093s-.034-.065-.092-.065h-.03V3.978c-.562-.07-.795-.494-.795-1.044V1.03A.928.928,0,0,1,18.4-.032c.732,0,.934.406.934.986v.465h-.6V.9c0-.244-.082-.383-.32-.383s-.337.168-.337.406V3.037c0,.238.1.407.337.407s.32-.152.32-.383V2.335h.6v.679c0,.552-.221.958-.877.981v.052c.158.023.244.082.244.209,0,.179-.168.278-.585.278Zm1.416-.4L20.277.014h.755l.749,3.935H21.1l-.122-.72h-.7l-.115.72ZM20.364,2.7h.528l-.261-1.578h-.006ZM22.546.014h1.579V.553h-.918V1.679h.656v.534h-.656v1.2h.918v.541H22.546Z" transform="translate(0 0.032)" fill="#fff"/>
    </g>
    <path id="Caminho_519" data-name="Caminho 519" d="M94.552-27.573h.661v3.935h-.661Zm1.654,1.462v2.473h-.557v-3.935h.65l.714,2.258v-2.258h.551v3.935h-.581Zm1.753,1.625v-.528h.615v.539c0,.221.1.349.324.349.209,0,.3-.139.3-.349v-.151a.708.708,0,0,0-.3-.557l-.389-.389a1.327,1.327,0,0,1-.551-1.052v-.133a.82.82,0,0,1,.928-.864c.661,0,.922.324.922.894v.318h-.6v-.343c0-.225-.1-.336-.314-.336a.29.29,0,0,0-.313.324v.082c0,.221.122.349.313.534l.425.417a1.326,1.326,0,0,1,.534,1.021v.192a.853.853,0,0,1-.964.922.819.819,0,0,1-.934-.894m2.222-3.087h1.759v.539H101.4v3.4h-.667v-3.4h-.547Zm2.119,0h.661v3.935H102.3Zm1.021,0h1.759v.539h-.547v3.4h-.667v-3.4h-.545Zm4.038,0V-24.6c0,.61-.261,1-.934,1a.888.888,0,0,1-.987-1v-2.977h.663v3.041c0,.231.092.389.324.389s.326-.158.326-.389v-3.041Zm.425,0h.661v3.935h-.661Zm1.793,4.335c.185-.006.214-.047.214-.093s-.034-.063-.092-.063h-.029v-.215a.916.916,0,0,1-.8-1.044v-1.9a.928.928,0,0,1,.987-1.062c.732,0,.934.406.934.986v.465h-.6v-.516c0-.244-.082-.383-.32-.383s-.336.168-.336.406v2.113c0,.237.1.406.336.406s.32-.151.32-.383v-.726h.6v.679c0,.552-.219.958-.875.981v.052c.156.024.242.082.242.209,0,.179-.168.278-.585.278Zm1.631-1.416v-1.9a.935.935,0,0,1,1-1.062.937.937,0,0,1,1,1.062v1.9a.94.94,0,0,1-1,1.062.938.938,0,0,1-1-1.062m.395-3.076c.011-.273.116-.494.406-.494.168,0,.307.1.395.1a.077.077,0,0,0,.08-.088h.326c-.011.273-.116.494-.406.494-.168,0-.307-.1-.395-.1a.078.078,0,0,0-.082.088Zm.945,3.181v-2.113c0-.238-.1-.406-.343-.406s-.336.168-.336.406v2.113c0,.237.1.406.336.406s.343-.169.343-.406m1.092-3.024h1.578v.539H114.3v1.126h.656v.534H114.3v1.2h.917v.541h-1.578Zm1.95,3.087v-.528h.615v.539c0,.221.1.349.324.349.209,0,.3-.139.3-.349v-.151a.708.708,0,0,0-.3-.557l-.389-.389a1.327,1.327,0,0,1-.551-1.052v-.133a.82.82,0,0,1,.928-.864c.661,0,.922.324.922.894v.318h-.6v-.343c0-.225-.1-.336-.314-.336a.29.29,0,0,0-.313.324v.082c0,.221.122.349.313.534l.423.417a1.323,1.323,0,0,1,.535,1.021v.192a.853.853,0,0,1-.964.922.819.819,0,0,1-.934-.894" transform="translate(41.093 35.878)" fill="#fff"/>
    <g id="Grupo_612" data-name="Grupo 612" transform="translate(135.645 13.645)">
      <path id="Caminho_520" data-name="Caminho 520" d="M0,.014H1.578V.553H.661V1.679h.656v.534H.661v1.2h.917v.541H0Zm1.978,0H3.528V.553H2.641V1.679H3.3v.534H2.641V3.949H1.98V.014Zm1.892,0h.661V3.949H3.871Zm1.1,2.919V1.03A.927.927,0,0,1,5.954-.032c.732,0,.935.406.935.986v.465h-.6V.9c0-.244-.082-.383-.318-.383s-.337.168-.337.406V3.037c0,.238.1.407.337.407s.318-.152.318-.383V2.335h.6v.679c0,.564-.232.981-.935.981A.93.93,0,0,1,4.968,2.933ZM7.2,3.949,7.939.014h.755l.749,3.935h-.68l-.122-.72h-.7l-.116.72ZM8.027,2.7h.528L8.293,1.123H8.288Zm2.384.707h1v.541H9.721V3.408L10.76.553H9.826V.014h1.63V.553ZM11.851.014h1.578V.553h-.917V1.679h.656v.534h-.656v1.2h.917v.541H11.851ZM13.8,3.1V2.573h.615v.539c0,.221.1.349.324.349.209,0,.3-.139.3-.349V2.962a.708.708,0,0,0-.3-.557l-.389-.389A1.327,1.327,0,0,1,13.807.965V.832a.82.82,0,0,1,.928-.864c.661,0,.922.324.922.894V1.18h-.6V.837c0-.225-.1-.336-.314-.336a.29.29,0,0,0-.313.324V.908c0,.221.122.349.313.534l.425.417A1.326,1.326,0,0,1,15.7,2.88v.192a.853.853,0,0,1-.964.922A.819.819,0,0,1,13.8,3.1" transform="translate(0 0.032)" fill="#fff"/>
    </g>
  </g>
</svg>
