<svg id="Grupo_493" data-name="Grupo 493" xmlns="http://www.w3.org/2000/svg" xmlns:xlink="http://www.w3.org/1999/xlink" width="169.656" height="48.633" viewBox="0 0 169.656 48.633">
  <defs>
    <clipPath id="clip-path">
      <path id="Caminho_352" data-name="Caminho 352" d="M0,14.733H169.656V-33.9H0Z" transform="translate(0 33.9)" fill="none"/>
    </clipPath>
  </defs>
  <path id="Caminho_348" data-name="Caminho 348" d="M42,14.334H90.141V-33.808H42Z" transform="translate(18.253 33.94)" fill="#1993d3"/>
  <g id="Grupo_481" data-name="Grupo 481" transform="translate(0 0)" clip-path="url(#clip-path)">
    <g id="Grupo_478" data-name="Grupo 478" transform="translate(63.721 4.179)">
      <path id="Caminho_349" data-name="Caminho 349" d="M.85,0V9.7H-.781V2.276H-.8L-1.941,3.464h-.014v-1.7L-.453,0ZM5.818,9.706V8.131h.658V6.857H5.818V0h-1.6l-2.82,7.13v1H4.271V9.706ZM2.825,6.857l1.46-4H4.3v4ZM31.54,31.076c-.605-.818-4.519-5.807-10.006-5.807-4.764,0-9.861,4.321-9.861,4.321s-1.915-3.919-5.832-4.3c-.023,0-.047-.006-.073-.006H5.743a.159.159,0,0,0-.149.155.419.419,0,0,0,.06.143,11.981,11.981,0,0,1,1.793,5.6,12.02,12.02,0,0,1-1.8,5.615l-.033.053a.149.149,0,0,0-.024.083.155.155,0,0,0,.143.154l.043,0a.128.128,0,0,0,.04,0c3.929-.366,5.852-4.3,5.852-4.3s5.1,4.322,9.861,4.322c5.487,0,9.4-4.991,10.006-5.807.016-.022.03-.042.042-.056a.161.161,0,0,0,.013-.06.148.148,0,0,0-.013-.059c-.011-.017-.026-.037-.042-.057m-6.956.746a1.6,1.6,0,1,1,1.6-1.6,1.6,1.6,0,0,1-1.6,1.6M5.717,15.889a.3.3,0,0,0-.03-.007.16.16,0,0,0-.158.159h0v1.093a.157.157,0,0,0,.046.113c2.648,2.3,5.156.145,5.737-.426a.154.154,0,0,1,.042-.044.165.165,0,0,1,.086-.027.157.157,0,0,1,.108.042s0,0,.007.007c2.993,2.855,6.129.542,6.781,0l.065-.059a.142.142,0,0,1,.06-.013.149.149,0,0,1,.062.013l.065.059c.653.542,3.789,2.855,6.781,0,0,0,0,0,.006-.007a.153.153,0,0,1,.106-.042.161.161,0,0,1,.086.027.164.164,0,0,1,.044.044c.58.571,3.086,2.727,5.736.426a.155.155,0,0,0,.046-.113V16.041a.157.157,0,0,0-.155-.159.294.294,0,0,0-.034.007c-.024.014-.05.027-.079.042a4.821,4.821,0,0,1-5.635-.79c-.022-.02-.044-.042-.066-.065a.183.183,0,0,0-.067-.014.251.251,0,0,0-.047.007.178.178,0,0,0-.079.063c-.684.521-3.822,2.644-6.615.037l-.042-.039a.173.173,0,0,0-.112-.047.169.169,0,0,0-.11.047l-.043.039c-2.792,2.607-5.934.483-6.615-.037a.174.174,0,0,0-.077-.063.3.3,0,0,0-.05-.007.176.176,0,0,0-.066.014.717.717,0,0,1-.067.065,4.819,4.819,0,0,1-5.634.79c-.029-.014-.056-.027-.08-.042M11.312,20.8a.164.164,0,0,1,.128-.073.153.153,0,0,1,.108.044s0,0,.007.007c2.991,2.851,6.129.539,6.781,0l.065-.062a.164.164,0,0,1,.059-.01.177.177,0,0,1,.063.01l.065.062c.653.539,3.789,2.851,6.781,0,0,0,0,0,.006-.007a.146.146,0,0,1,.106-.044.179.179,0,0,1,.131.073c.58.571,3.084,2.727,5.737.425a.159.159,0,0,0,.046-.11v-1.1a.157.157,0,0,0-.156-.156h0a.147.147,0,0,0-.034.007l-.079.039a4.824,4.824,0,0,1-5.635-.79l-.066-.063a.133.133,0,0,0-.067-.014.093.093,0,0,0-.047.011.127.127,0,0,0-.079.059c-.684.521-3.822,2.644-6.615.039l-.042-.042a.163.163,0,0,0-.113-.043.158.158,0,0,0-.109.043l-.043.042c-2.792,2.605-5.934.482-6.615-.039a.132.132,0,0,0-.077-.059.1.1,0,0,0-.05-.011.134.134,0,0,0-.066.014c-.022.023-.044.043-.067.063A4.821,4.821,0,0,1,5.8,19.9l-.08-.039a.15.15,0,0,0-.03-.007.157.157,0,0,0-.158.156v1.1a.153.153,0,0,0,.046.11c2.648,2.3,5.157.146,5.737-.425" transform="translate(1.955 0.002)" fill="#fff"/>
    </g>
    <g id="Grupo_479" data-name="Grupo 479" transform="translate(75.515 4.162)">
      <path id="Caminho_350" data-name="Caminho 350" d="M.671,0-.077,3.935H-.8L-1.545,0h.673l.453,2.744h.006L.05,0ZM.95,0h.661V3.935H.95ZM3.98,1.056V2.878c0,.6-.25,1.057-.958,1.057H2V0H3.021c.709,0,.958.446.958,1.056M2.941,3.394c.273,0,.377-.162.377-.4V.934A.345.345,0,0,0,2.941.539H2.663V3.394Zm1.317.541L5,0h.755L6.5,3.935h-.68L5.7,3.215H5l-.116.72Zm.831-1.248h.528L5.355,1.109H5.35ZM7.955,1.462V3.935H7.4V0h.65l.713,2.258V0h.552V3.935H8.732ZM9.592,3.935,10.335,0h.753l.749,3.935h-.679l-.122-.72h-.7l-.116.72Zm.829-1.248h.528l-.261-1.578h-.006Z" transform="translate(1.545)" fill="#fff"/>
    </g>
    <g id="Grupo_480" data-name="Grupo 480" transform="translate(75.503 9.2)">
      <path id="Caminho_351" data-name="Caminho 351" d="M0,1.415.743-2.52H1.5l.747,3.935H1.567L1.445.695h-.7l-.116.72ZM1.66-2.8.621-2.665v-.372L1.66-3.256ZM.829.167h.529L1.1-1.411H1.092ZM3.255-.685H4.2v2.1H3.72V.986a.6.6,0,0,1-.633.475c-.568,0-.829-.452-.829-1.062V-1.5a.932.932,0,0,1,.991-1.062c.732,0,.947.406.947.987v.349h-.6v-.4c0-.242-.093-.383-.331-.383s-.341.169-.341.407V.5c0,.238.1.406.324.406s.326-.122.326-.377v-.7H3.255ZM6.233-2.52V.458c0,.608-.261,1-.935,1a.887.887,0,0,1-.986-1V-2.52h.661V.521c0,.232.093.389.324.389s.326-.156.326-.389V-2.52Zm.011,3.935L6.988-2.52h.753L8.49,1.415H7.811L7.689.695h-.7l-.115.72ZM7.074.167H7.6L7.341-1.411H7.335Z" transform="translate(0 3.256)" fill="#fff"/>
    </g>
  </g>
  <path id="Caminho_353" data-name="Caminho 353" d="M84.361,14.733h48.632V-33.9H84.361Z" transform="translate(36.663 33.9)" fill="#f9c114"/>
  <g id="Grupo_483" data-name="Grupo 483" transform="translate(0 0)" clip-path="url(#clip-path)">
    <g id="Grupo_482" data-name="Grupo 482" transform="translate(126.013 4.076)">
      <path id="Caminho_354" data-name="Caminho 354" d="M0,.408H2.546l-2.2,8.46H1.983L4.137.581V-.938H0ZM19.346,18.55a7.128,7.128,0,1,0,7.127,7.127,7.127,7.127,0,0,0-7.127-7.127m-.528,2.815a.53.53,0,0,1,1.059,0v2.447a.531.531,0,0,1-1.059,0Zm.529,7.965a3.708,3.708,0,0,1-1.1-7.248v1.38a2.427,2.427,0,1,0,2.2,0v-1.38a3.708,3.708,0,0,1-1.095,7.25m-8.183-3.714a.6.6,0,0,0-.548-.585H7.494a.587.587,0,0,0,0,1.172h3.122a.6.6,0,0,0,.548-.587m20.588,0a.6.6,0,0,0-.548-.585H28.082a.587.587,0,0,0,0,1.172H31.2a.6.6,0,0,0,.548-.587m-12.4-8.183a.6.6,0,0,0,.584-.547V13.762a.587.587,0,0,0-1.172,0v3.123a.6.6,0,0,0,.588.547m0,20.588a.6.6,0,0,0,.584-.548V34.35a.587.587,0,0,0-1.172,0v3.122a.6.6,0,0,0,.588.548m-7.1-16.471a.6.6,0,0,0-.185-.779L9.351,19.22a.587.587,0,0,0-.581,1.017l2.709,1.551a.6.6,0,0,0,.768-.238M30.114,31.775A.6.6,0,0,0,29.929,31L27.22,29.445a.587.587,0,0,0-.582,1.017l2.709,1.551a.6.6,0,0,0,.768-.238m-6.7-13.261a.6.6,0,0,0,.78-.185l1.549-2.709a.587.587,0,0,0-1.017-.582l-1.551,2.709a.6.6,0,0,0,.238.768M13.187,36.382a.6.6,0,0,0,.779-.185l1.551-2.709a.587.587,0,0,0-1.017-.582l-1.551,2.709a.6.6,0,0,0,.238.768m2.082-17.861a.6.6,0,0,0,.234-.766l-1.555-2.707a.587.587,0,0,0-1.016.585l1.555,2.706a.6.6,0,0,0,.782.182M25.532,36.367a.6.6,0,0,0,.234-.766L24.21,32.9a.587.587,0,0,0-1.016.585l1.555,2.706a.6.6,0,0,0,.782.181m.911-14.831a.6.6,0,0,0,.766.234l2.7-1.555a.587.587,0,0,0-.584-1.016l-2.706,1.555a.6.6,0,0,0-.181.782M8.595,31.8a.6.6,0,0,0,.766.234l2.706-1.555a.588.588,0,0,0-.584-1.017L8.777,31.018a.6.6,0,0,0-.182.782" transform="translate(0 0.938)" fill="#fff"/>
    </g>
  </g>
  <g id="Grupo_484" data-name="Grupo 484" transform="translate(134.911 4.059)">
    <path id="Caminho_356" data-name="Caminho 356" d="M0,0H1.594V.545H.669V1.683h.663v.539H.669V3.43h.925v.545H0ZM2.48,1.478v2.5H1.917V0h.657L3.3,2.281V0h.557V3.975H3.265ZM4.2,0H5.8V.545H4.872V1.683h.663v.539H4.872V3.43H5.8v.545H4.2Z" fill="#fff"/>
  </g>
  <g id="Grupo_487" data-name="Grupo 487" transform="translate(0 0)" clip-path="url(#clip-path)">
    <g id="Grupo_485" data-name="Grupo 485" transform="translate(141.043 4.013)">
      <path id="Caminho_357" data-name="Caminho 357" d="M.2.666V2.489H-.466V-1.486H.508c.673,0,.92.334.92.891v.511c0,.428-.152.68-.534.768l.64,1.806h-.7ZM.2-.941V.3H.425A.289.289,0,0,0,.753-.031V-.618c0-.217-.1-.323-.329-.323ZM2.712.367h.95V2.489H3.181V2.055a.6.6,0,0,1-.64.482c-.574,0-.838-.458-.838-1.073V-.46a.941.941,0,0,1,1-1.072c.739,0,.955.41.955,1v.351h-.61v-.4c0-.247-.093-.387-.334-.387s-.346.169-.346.41V1.568c0,.241.1.41.329.41s.329-.122.329-.38v-.7H2.712ZM3.954-1.486h.669V2.489H3.954Zm.862,3.975.75-3.975h.762l.757,3.975H6.4l-.122-.727h-.71l-.118.727Zm.838-1.261h.534L5.924-.366H5.918ZM7.8-1.486h.669v3.43h.8v.545H7.8Zm1.683,0h.669V2.489H9.483ZM12.29-.09h-.017l-.452,2.579h-.31l-.5-2.579H11V2.489H10.45V-1.486h.78L11.664.753h.006l.387-2.239H12.9V2.489h-.61Zm.9-1.4h.99c.674,0,.921.334.921.891V.244c0,.557-.247.9-.921.9h-.321V2.489h-.669Zm.669.545V.624h.245A.286.286,0,0,0,14.437.3V-.618c0-.217-.1-.323-.329-.323Zm1.394,3.43.75-3.975h.763l.756,3.975h-.686l-.123-.727h-.71l-.116.727ZM16.1,1.228h.532L16.366-.366h-.007Z" transform="translate(0.466 1.532)" fill="#fff"/>
    </g>
    <g id="Grupo_486" data-name="Grupo 486" transform="translate(134.906 9.174)">
      <path id="Caminho_358" data-name="Caminho 358" d="M0,.224H1.587V.767H.666V1.9h.658v.537H.666v1.2h.921v.542H0ZM2.275,4.178,3.021.224h.757l.753,3.954H3.849l-.122-.723H3.021l-.116.723Zm.834-1.254H3.64L3.377,1.339H3.371Zm1.61.234V1.246A.933.933,0,0,1,5.71.178c.735,0,.94.407.94.991v.466H6.043V1.117c0-.245-.082-.384-.321-.384S5.383.9,5.383,1.14V3.263c0,.24.1.409.339.409s.321-.152.321-.384v-.73h.607V3.24c0,.565-.234.986-.94.986a.935.935,0,0,1-.991-1.067M6.923.224H8.51V.767H7.588V1.9h.66v.537h-.66v1.2H8.51v.542H6.923Zm1.819,3.1V2.8h.618v.542c0,.222.1.35.327.35.209,0,.3-.141.3-.35V3.187a.715.715,0,0,0-.3-.559L9.3,2.237a1.334,1.334,0,0,1-.554-1.056V1.046A.824.824,0,0,1,9.682.178c.664,0,.927.326.927.9V1.4H10V1.052c0-.227-.1-.337-.314-.337a.292.292,0,0,0-.316.326v.082c0,.222.123.35.316.537l.426.42A1.329,1.329,0,0,1,10.65,3.1V3.3a.857.857,0,0,1-.968.927.824.824,0,0,1-.94-.9m2.135,0V2.8H11.5v.542c0,.222.1.35.327.35.209,0,.3-.141.3-.35V3.187a.715.715,0,0,0-.3-.559l-.392-.39a1.334,1.334,0,0,1-.554-1.056V1.046a.824.824,0,0,1,.934-.868c.664,0,.927.326.927.9V1.4h-.607V1.052c0-.227-.1-.337-.314-.337a.292.292,0,0,0-.316.326v.082c0,.222.123.35.316.537l.426.42A1.329,1.329,0,0,1,12.785,3.1V3.3a.857.857,0,0,1-.968.927.824.824,0,0,1-.94-.9M13.921-.055,12.878.078V-.3l1.043-.221Zm-.874.28h.666V4.178h-.666Zm3.09,0-.752,3.954h-.723L13.91.224h.677l.455,2.759h.006L15.514.224Zm.186,0h1.587V.767H16.99V1.9h.658v.537H16.99v1.2h.921v.542H16.324Zm1.855,0h.666V3.636h.793v.542H18.179Z" transform="translate(0 0.516)" fill="#fff"/>
    </g>
  </g>
  <path id="Caminho_360" data-name="Caminho 360" d="M0,14.506H48.4V-33.9H0Z" transform="translate(0 33.9)" fill="#4c9e44"/>
  <g id="Grupo_492" data-name="Grupo 492" transform="translate(0 0)" clip-path="url(#clip-path)">
    <g id="Grupo_488" data-name="Grupo 488" transform="translate(4.648 3.959)">
      <path id="Caminho_361" data-name="Caminho 361" d="M.684,3.026C2.34,3.026,3.06,2.148,3.06.8V-.644A1.5,1.5,0,0,0,1.851-2.3,1.557,1.557,0,0,0,2.973-3.883v-.849A1.963,1.963,0,0,0,.8-6.963c-1.7,0-2.288,1.007-2.288,2.446v.864h1.5v-.993c0-.6.188-.95.706-.95s.7.346.7.878v1.05c0,.519-.344.792-.877.792h-.62v1.252H.613c.575,0,.8.274.8.792V.781c0,.518-.23.878-.733.878-.561,0-.763-.374-.763-.95v-1.4h-1.5V.593c0,1.483.59,2.433,2.259,2.433m33.552,16.3a2.273,2.273,0,0,0-2.2-2.466,3.406,3.406,0,0,0-1.894,1.171c-.433-.446-1.178-1.172-1.841-1.172a2.315,2.315,0,0,0-2.251,2.468,2.49,2.49,0,0,0,.7,1.743l3.393,3.4,3.389-3.4,0,0a2.492,2.492,0,0,0,.7-1.744" transform="translate(1.575 6.963)" fill="#fff"/>
    </g>
    <g id="Grupo_489" data-name="Grupo 489" transform="translate(8.004 18.24)">
      <path id="Caminho_362" data-name="Caminho 362" d="M5.456,6.878H5.422a.559.559,0,0,1-.515-.463L3.184-3.623.573,1.218A.557.557,0,0,1-.016,1.5.557.557,0,0,1-.47,1.032L-1.578-6.715-3.606-2.16a.559.559,0,0,1-.508.331H-12a.559.559,0,0,1-.558-.558h0A.557.557,0,0,1-12-2.943h7.519l2.668-5.991a.557.557,0,0,1,.472-.631.559.559,0,0,1,.631.473.56.56,0,0,1-.043.306L.395-.8,2.968-5.573a.557.557,0,0,1,.581-.285.558.558,0,0,1,.459.456l1.6,9.3,5.817-19.323a.558.558,0,0,1,.491-.4.56.56,0,0,1,.545.314l3.061,6.345a.559.559,0,0,1-.26.745.557.557,0,0,1-.745-.261l-2.439-5.054L5.99,6.482a.558.558,0,0,1-.534.4" transform="translate(12.554 15.826)" fill="#fff"/>
    </g>
    <g id="Grupo_490" data-name="Grupo 490" transform="translate(13.792 3.313)">
      <path id="Caminho_363" data-name="Caminho 363" d="M0,1.165V.634H.618v.542c0,.222.1.35.327.35.211,0,.3-.139.3-.35V1.025a.713.713,0,0,0-.3-.559L.561.073A1.332,1.332,0,0,1,.006-.982v-.135A.825.825,0,0,1,.94-1.987c.666,0,.928.327.928.9v.32H1.261v-.344c0-.227-.1-.337-.316-.337a.292.292,0,0,0-.316.326v.082c0,.222.123.35.316.538l.426.419A1.331,1.331,0,0,1,1.908.943v.194a.856.856,0,0,1-.968.927.824.824,0,0,1-.94-.9m2.212.852.746-3.957h.759L4.47,2.017H3.787l-.122-.723H2.958l-.116.723ZM3.046.762h.532L3.315-.825H3.31Zm3.688-2.7V1.055c0,.613-.263,1.009-.94,1.009A.892.892,0,0,1,4.8,1.055V-1.939h.666V1.118c0,.234.093.392.326.392s.327-.158.327-.392V-1.939Zm-.409-.28-1.044.133v-.373l1.044-.222ZM9.161-.878V.956c0,.607-.25,1.062-.963,1.062H7.172V-1.939H8.2c.713,0,.963.449.963,1.062M8.117,1.475c.274,0,.38-.164.38-.4V-1a.348.348,0,0,0-.38-.4h-.28V1.475ZM9.6-1.939h1.588V-1.4h-.922V-.265h.66V.273h-.66v1.2h.922v.542H9.6Zm2.667,0h1.588V-1.4h-.922V-.265h.66V.273h-.66v1.2h.922v.542H12.266Z" transform="translate(0 2.681)" fill="#fff"/>
    </g>
    <g id="Grupo_491" data-name="Grupo 491" transform="translate(13.827 9.72)">
      <path id="Caminho_364" data-name="Caminho 364" d="M0,.014H.963c.666,0,.888.31.888.869v.4a.576.576,0,0,1-.4.63.6.6,0,0,1,.5.66V3.1c0,.561-.251.869-.917.869H0ZM.666,1.683H.9a.279.279,0,0,0,.314-.32V.878A.281.281,0,0,0,.892.557H.666Zm0,.508V3.429H.957a.287.287,0,0,0,.327-.321v-.6c0-.209-.1-.321-.333-.321ZM2.34.014H3.928V.557H3.005V1.69h.66v.537h-.66v1.2h.922v.542H2.34ZM6.175,1.4H6.156L5.707,3.971H5.4L4.9,1.4H4.891V3.971H4.341V.014h.776l.432,2.229h.006L5.941.014h.841V3.971H6.175Zm1,.462h.934V2.4H7.177ZM8.5.014H10.09V.557H9.167V1.69h.66v.537h-.66v1.2h.922v.542H8.5Zm1.965,3.1V2.588h.62V3.13c0,.222.1.35.326.35.211,0,.3-.139.3-.35V2.98a.713.713,0,0,0-.3-.561l-.39-.392A1.334,1.334,0,0,1,10.474.971V.838a.826.826,0,0,1,.934-.871c.666,0,.928.327.928.9v.321h-.607V.844c0-.228-.1-.339-.316-.339A.291.291,0,0,0,11.1.832V.914c0,.221.122.35.314.537l.426.42A1.327,1.327,0,0,1,12.378,2.9V3.09a.858.858,0,0,1-.97.928.825.825,0,0,1-.94-.9m2.241-3.1h1.769V.557H13.93V3.971h-.671V.557h-.549Zm2.031,3.957L15.488.014h.757L17,3.971h-.683l-.122-.723h-.706l-.118.723Zm.835-1.254h.531l-.263-1.588h-.006ZM18,2.156V3.971h-.666V.014H18.3c.671,0,.917.333.917.887v.508c0,.426-.152.677-.531.765l.636,1.8h-.7Zm0-1.6V1.789h.221a.288.288,0,0,0,.327-.327V.878c0-.215-.1-.321-.327-.321Z" transform="translate(0 0.033)" fill="#fff"/>
    </g>
  </g>
</svg>
