<svg xmlns="http://www.w3.org/2000/svg" xmlns:xlink="http://www.w3.org/1999/xlink" width="141" height="72.557" viewBox="0 0 141 72.557">
  <defs>
    <clipPath id="clip-path">
      <path id="Caminho_2" data-name="Caminho 2" d="M0,13.236H141V-35.31H0Z" transform="translate(0 35.31)" fill="none"/>
    </clipPath>
    <clipPath id="clip-path-2">
      <path id="Caminho_6" data-name="Caminho 6" d="M0,25.57H141V-46.987H0Z" transform="translate(0 46.987)" fill="none"/>
    </clipPath>
  </defs>
  <g id="Grupo_8" data-name="Grupo 8" transform="translate(0 46.987)">
    <g id="Grupo_3" data-name="Grupo 3" transform="translate(0 -34.982)" clip-path="url(#clip-path)">
      <g id="Grupo_2" data-name="Grupo 2" transform="translate(98.286 0.002)">
        <path id="Caminho_1" data-name="Caminho 1" d="M12.377,4.144c2.4.594,5.727.29,7.548-1.966a16.167,16.167,0,0,1-4.941,5.791C10.5,11.1,4.795,11.463-.13,10.713c.233-5.062-3.3-8.535-6.8-8.535-3.142,0-5.507,2.576-6.293,6.017a19.068,19.068,0,0,0-9.52.99c1.181-7.574,7.276-12.718,15.865-13.1S6.16,2.605,12.377,4.144" transform="translate(22.744 3.931)" fill="#51bc49"/>
      </g>
    </g>
    <g id="Grupo_7" data-name="Grupo 7" transform="translate(0 -46.987)" clip-path="url(#clip-path-2)">
      <g id="Grupo_4" data-name="Grupo 4" transform="translate(87.478 28.407)">
        <path id="Caminho_3" data-name="Caminho 3" d="M2.84,1.055C.441,1.464-2.436,3.841-3.5,4.726c-1,.832-2.461-.993-1.286-1.8A34.827,34.827,0,0,1,6.052-1.547c5.178-.974,10.326-.04,16.155,1.791A36.564,36.564,0,0,0,36.586,2.065C33.652,7.593,26.622,9.423,21.771,9.4c-5.057-.019-10.21-1.49-13.4-4.745C6.673,2.92,5.552.592,2.84,1.055" transform="translate(5.22 1.939)" fill="#006e54"/>
      </g>
      <g id="Grupo_5" data-name="Grupo 5" transform="translate(37.843 43.263)">
        <path id="Caminho_4" data-name="Caminho 4" d="M.663.631H3.717C4.7.631,5.586.9,5.586,2.274c0,1.127-.649,1.714-1.838,1.714H.663ZM-1.218,9.845H.663V5.418H3.432c1.731,0,2.137.874,2.137,2.846a2.99,2.99,0,0,0,.287,1.581H7.873a4.9,4.9,0,0,1-.587-2.832c0-1.7-.948-2.18-1.6-2.272V4.71A2.608,2.608,0,0,0,7.467,2c0-1.821-1.2-2.9-3.553-2.9H-1.218Zm15.278-11c-3.221,0-5.147,2.559-5.147,5.63S10.839,10.1,14.06,10.1s5.148-2.562,5.148-5.632-1.926-5.63-5.148-5.63m0,1.535c2.3,0,3.268,2.032,3.268,4.1s-.964,4.094-3.268,4.094-3.266-2.032-3.266-4.094.964-4.1,3.266-4.1m8.853.255h1.853c2.949,0,3.581,1.688,3.581,3.84s-.632,3.837-3.581,3.837H22.913ZM21.031,9.845h4.457c3.311,0,4.742-2.409,4.742-5.374S28.8-.9,25.487-.9H21.031Zm15.552-11c-3.221,0-5.148,2.559-5.148,5.63S33.361,10.1,36.582,10.1s5.147-2.562,5.147-5.632-1.924-5.63-5.147-5.63m0,1.535c2.3,0,3.268,2.032,3.268,4.1s-.965,4.094-3.268,4.094-3.266-2.032-3.266-4.094.964-4.1,3.266-4.1m9.335,9.469h2.092L51.681-.9H49.77L47.015,7.6h-.029L44.289-.9H42.331Zm6.943,0H54.74V-.9H52.86Zm8.127-8.9h.046l1.609,4.62H59.361Zm-5.09,8.9h1.944L58.851,7h4.29l1.007,2.846h2.018L62.026-.9h-2ZM66.649,6.262c.043,2.664,2.032,3.84,4.486,3.84,2.137,0,4.274-.967,4.274-3.374a2.845,2.845,0,0,0-2.092-2.741c-.557-.164-2.937-.781-3.1-.826-.767-.213-1.28-.632-1.28-1.387,0-1.084,1.1-1.4,1.972-1.4,1.3,0,2.228.513,2.319,1.9h1.881c0-2.244-1.881-3.433-4.125-3.433-1.94,0-3.928,1.008-3.928,3.159,0,1.115.544,2.228,2.377,2.725,1.476.406,2.455.6,3.209.888a1.28,1.28,0,0,1,.888,1.325c0,.812-.618,1.626-2.273,1.626-1.506,0-2.726-.647-2.726-2.3Z" transform="translate(1.218 1.159)" fill="#6f7175"/>
      </g>
      <g id="Grupo_6" data-name="Grupo 6" transform="translate(-0.001 43.272)">
        <path id="Caminho_5" data-name="Caminho 5" d="M1.227,1.6A2.3,2.3,0,0,1,3.48-.576,2.153,2.153,0,0,1,5.549,1.6ZM9.03,3.54c.164-3.6-1.74-6.472-5.55-6.472A5.58,5.58,0,0,0-2.255,2.661c0,3.561,2.356,5.653,5.817,5.653,2.377,0,4.648-1.067,5.284-3.525H5.589A2.076,2.076,0,0,1,3.6,5.956,2.269,2.269,0,0,1,1.227,3.54ZM21.072,1.268c-.246-2.807-2.6-4.2-5.243-4.2-3.42,0-5.57,2.418-5.57,5.8a5.293,5.293,0,0,0,5.57,5.451c2.826,0,5.037-1.64,5.344-4.487H17.795a1.866,1.866,0,0,1-1.986,1.824c-1.475,0-2.068-1.413-2.068-2.787,0-1.473.306-3.133,2.251-3.133a1.639,1.639,0,0,1,1.7,1.538ZM25.885,2.7c0-1.35.491-2.969,2.109-2.969S30.124,1.35,30.124,2.7s-.513,2.951-2.129,2.951-2.109-1.6-2.109-2.951M22.4,2.7a5.419,5.419,0,0,0,5.592,5.615A5.434,5.434,0,0,0,33.6,2.7a5.449,5.449,0,0,0-5.61-5.632A5.434,5.434,0,0,0,22.4,2.7" transform="translate(2.255 2.932)" fill="#152030"/>
      </g>
    </g>
  </g>
</svg>
