<svg xmlns="http://www.w3.org/2000/svg" width="12.833" height="25.665" viewBox="0 0 12.833 25.665">
  <g id="Grupo_78" data-name="Grupo 78" transform="translate(-20.127 39.376)">
    <g id="Grupo_68" data-name="Grupo 68" transform="translate(24.761 -20.163)">
      <path id="Caminho_36" data-name="Caminho 36" d="M0,0V-1.426A3.585,3.585,0,0,1-3.208-4.955v-9.268A3.575,3.575,0,0,1,.356-17.787H3.208a3.575,3.575,0,0,1,3.565,3.564v9.268A3.558,3.558,0,0,1,3.565-1.426V0A4.981,4.981,0,0,0,8.2-4.955v-9.268a5,5,0,0,0-4.991-4.99H.356a5,5,0,0,0-4.99,4.99v9.268A4.956,4.956,0,0,0,0,0" fill="#007354"/>
    </g>
    <g id="Grupo_69" data-name="Grupo 69" transform="translate(26.543 -31.89)">
      <path id="Caminho_37" data-name="Caminho 37" d="M0,0A.715.715,0,0,0,.713-.713V-2.852A.715.715,0,0,0,0-3.565a.715.715,0,0,0-.713.713V-.713A.715.715,0,0,0,0,0" fill="#007354"/>
    </g>
    <g id="Grupo_70" data-name="Grupo 70" transform="translate(25.831 -21.553)">
      <path id="Caminho_38" data-name="Caminho 38" d="M0,0V5.418l-.57-.57a.7.7,0,0,0-.5-.214.7.7,0,0,0-.5.214.688.688,0,0,0,0,1l.5.5L.214,7.628c.036.036.071.072.107.072l.035.035c.036,0,.036.036.072.036s.035,0,.071.036c.036,0,.036,0,.071.035H.856c.035,0,.035,0,.071-.035.035,0,.035,0,.071-.036.036,0,.036-.036.071-.036A.035.035,0,0,0,1.105,7.7c.036-.036.071-.072.107-.072L2.495,6.345l.5-.5a.689.689,0,0,0,0-1,.689.689,0,0,0-1,0l-.57.57V-2.139a.715.715,0,0,0-.713-.713A.715.715,0,0,0,0-2.139Z" fill="#007354"/>
    </g>
  </g>
</svg>
